<svg width="82" height="82" viewBox="0 0 82 82" fill="none" xmlns="http://www.w3.org/2000/svg">
<g clip-path="url(#clip0_1474_1538)">
<path d="M82 77.6761V82.0002H0C0 81.279 0 80.5579 0 79.8395C0.0108876 73.6241 1.97338 68.1163 6.00996 63.3758C7.00617 62.2057 8.10038 61.1199 9.17008 59.9715C7.34097 57.1278 7.38724 55.0732 9.46133 52.2567C9.89683 51.6635 9.81518 51.1954 9.43683 50.594C8.88973 49.7286 8.30452 48.8225 8.04322 47.8537C7.5315 45.9515 8.09493 44.2153 9.36878 42.7241C9.87778 42.1281 9.95399 41.5567 9.40689 40.9471C7.33825 38.6449 7.3818 35.2433 9.41233 32.9874C9.58654 32.7942 9.72535 32.454 9.68997 32.2091C9.1347 28.1898 12.3955 23.9228 17.3086 24.1297C17.9401 24.1569 18.5715 24.1324 19.2847 24.1324C19.2847 23.6507 19.2765 23.2833 19.2847 22.9133C19.3663 20.1947 19.2193 17.4489 19.5759 14.7685C20.5803 7.24963 27.249 0.860088 34.7886 0.193377C37.9678 -0.0869139 41.1851 0.0192156 44.386 0.0246581C45.7143 0.0246581 47.0562 0.122624 48.3627 0.345768C56.0086 1.65198 62.3397 8.6021 62.5928 16.3223C62.816 23.0929 62.7371 29.877 62.6718 36.6529C62.6146 42.618 60.3146 47.6822 56.0902 51.8812C56.0058 51.9655 55.946 52.0717 55.8262 52.2377C56.6564 52.5179 57.4022 52.7846 58.1589 53.0187C62.7262 54.4364 67.1656 56.0719 71.1015 58.9401C75.9819 62.4968 79.4169 67.0114 81.0364 72.8404C81.4747 74.4214 81.6843 76.0651 82 77.6788V77.6761ZM57.1109 41.0968C56.1692 41.3199 55.2737 41.6111 54.3591 41.7254C53.4119 41.8424 52.4429 41.8016 51.482 41.8016C46.7514 41.807 43.2701 39.4014 41.5988 34.9875C41.4273 34.5358 41.2395 34.0868 41.0599 33.6378C39.9112 37.0121 38.093 39.7307 34.7233 41.0315C31.4788 42.2805 28.169 42.0655 24.8809 41.075C26.1983 46.5665 32.1157 53.2146 41.0817 53.1738C50.0422 53.1302 55.8398 46.4468 57.1109 41.0968ZM24.1351 24.0834H57.8676C57.8676 22.8398 57.8785 21.6424 57.854 20.4478C57.8513 20.26 57.7152 20.0478 57.5818 19.8981C56.406 18.5864 55.2464 17.2612 54.027 15.9903C52.598 14.5018 50.4259 14.5209 48.9534 15.974C48.5533 16.3659 48.164 16.7713 47.734 17.1278C45.6327 18.8613 43.1585 19.2232 40.5237 19.1933C37.6167 19.1606 35.1697 18.2218 33.1582 16.0992C31.5768 14.4338 29.3748 14.4746 27.8097 16.1591C26.6828 17.37 25.5831 18.6055 24.4835 19.8409C24.3311 20.0097 24.1569 20.2382 24.1514 20.4451C24.1188 21.6397 24.1351 22.8371 24.1351 24.0861V24.0834ZM16.6934 61.0709C10.923 63.3214 4.80143 71.8172 5.0709 77.14H22.7034C22.834 75.5154 22.9347 73.9262 23.1062 72.3451C23.1661 71.7872 23.0246 71.5614 22.4802 71.3927C20.5749 70.7994 18.6995 70.1137 16.7941 69.5204C16.1382 69.3163 15.8333 69.0769 15.9748 68.3176C16.1545 67.3516 16.1926 66.3583 16.2851 65.3787C16.4212 63.9554 16.5519 62.5295 16.688 61.0709H16.6934ZM65.2984 61.0301C65.5379 63.52 65.723 65.9148 66.0252 68.2931C66.1286 69.1041 65.8373 69.3299 65.1514 69.5422C63.0474 70.198 60.9651 70.9273 58.8393 71.6376C58.9972 73.5207 59.1524 75.3385 59.3021 77.1237H76.9863C76.088 69.6674 71.6187 64.448 65.2957 61.0273L65.2984 61.0301ZM25.7356 11.4812C25.9778 11.3723 26.0676 11.3397 26.152 11.2962C29.9817 9.22799 33.7298 9.81034 36.8055 12.8854C37.3009 13.3806 37.9297 13.8705 38.583 14.0446C39.5438 14.2977 40.5781 14.2977 41.5852 14.3413C43.1122 14.4093 44.3561 13.8269 45.4176 12.7031C48.0878 9.88654 52.1326 9.28242 55.5431 11.122C55.7282 11.2227 55.9242 11.3098 56.1147 11.4023C53.6786 7.26596 50.0966 5.01547 45.336 4.84675C42.4562 4.74334 39.571 4.79776 36.6912 4.83586C34.4076 4.86852 32.2736 5.50257 30.322 6.69993C28.4303 7.86191 26.9196 9.39127 25.741 11.4785L25.7356 11.4812ZM12.9644 37.502C15.2426 40.9662 15.2563 42.637 12.9726 45.927C12.5861 46.4849 12.6351 46.9693 13.0678 47.4401C15.1474 49.7123 15.1174 53.1983 13.0815 55.4678C12.4336 56.1917 12.567 56.6706 13.4081 57.3183C17.2324 54.7494 21.748 53.7969 26.0595 52.0472C22.2488 48.3081 20.0332 43.8425 19.399 38.5905C17.1316 38.6177 14.9242 38.7755 12.9644 37.502ZM35.0336 77.1536C32.358 70.3586 29.7068 63.6343 27.0394 56.8584C25.3518 57.457 23.7241 58.0231 22.1073 58.6245C21.9467 58.6843 21.7888 58.9592 21.767 59.1497C21.5438 61.1634 21.3615 63.1799 21.1328 65.1936C21.073 65.7243 21.258 65.9338 21.7534 66.0916C23.7323 66.7202 25.692 67.4087 27.6681 68.0401C28.1281 68.187 28.286 68.3748 28.2343 68.8809C28.041 70.764 27.9022 72.6526 27.7498 74.5384C27.679 75.4011 27.6246 76.2637 27.562 77.1509H35.0336V77.1536ZM54.8899 57.0244C52.2306 63.7758 49.6094 70.4321 46.9719 77.1318H54.4489C54.2039 74.1575 53.9644 71.2403 53.7222 68.2931C53.9562 68.2033 54.1468 68.119 54.3455 68.0537C56.3134 67.3951 58.2814 66.7311 60.2575 66.0889C60.6821 65.9501 60.9352 65.7977 60.8726 65.2616C60.6385 63.2479 60.4643 61.2287 60.233 59.2177C60.2112 59.0163 59.9961 58.736 59.8083 58.668C58.2051 58.1047 56.5856 57.5849 54.8926 57.0244H54.8899ZM24.1433 29.0089C24.1433 30.2444 24.0997 31.4363 24.1514 32.6255C24.2467 34.7535 25.7192 36.5468 27.8369 36.8434C29.2142 37.0366 30.6568 36.9768 32.0449 36.8244C33.3977 36.6774 34.5736 35.9046 35.1724 34.6936C36.0734 32.8785 36.7538 30.9519 37.5568 29.0062H24.1405L24.1433 29.0089ZM44.4922 29.0089C45.17 30.7804 45.7552 32.4921 46.4819 34.1439C47.1052 35.5617 48.2675 36.5686 49.789 36.7836C51.2697 36.9931 52.8348 37.0339 54.3074 36.8026C56.2154 36.5006 57.4539 35.1562 57.7533 33.2622C57.9711 31.8934 57.7968 30.4621 57.7968 29.0089H44.4949H44.4922ZM41.0435 66.3229C39.9956 67.9693 38.9912 69.5313 38.0195 71.1124C37.9351 71.2484 38.0195 71.5233 38.0903 71.7083C38.7327 73.3737 39.4159 75.0228 40.0256 76.6991C40.2188 77.2298 40.5618 77.1944 40.9619 77.1835C41.3702 77.1726 41.7649 77.2788 41.9772 76.6964C42.6168 74.9466 43.3408 73.2268 44.005 71.4852C44.0866 71.2702 44.103 70.9355 43.9886 70.7586C43.0523 69.3027 42.0806 67.8713 41.0463 66.3229H41.0435ZM31.9742 56.227C33.1963 59.3266 34.4293 62.4506 35.7141 65.7052C36.4109 64.6113 36.9171 63.5881 37.633 62.7472C38.8932 61.2668 38.5748 59.5824 38.5585 58.053C36.3211 57.4326 34.1762 56.8393 31.9742 56.227ZM46.3431 65.5637C47.6142 62.3336 48.8255 59.2531 50.0122 56.2325C47.8156 56.8393 45.6735 57.4298 43.4062 58.0557C43.4062 58.7224 43.3926 59.5415 43.4116 60.3606C43.4198 60.6981 43.398 61.0954 43.564 61.3566C44.4269 62.7281 45.3469 64.0643 46.3431 65.561V65.5637ZM19.2438 28.9654C18.4082 28.9654 17.6406 28.9517 16.8758 28.9681C15.5856 28.998 14.5812 29.9287 14.4751 31.175C14.3744 32.3642 15.2018 33.5262 16.4403 33.6949C17.344 33.8174 18.2776 33.7194 19.2438 33.7194V28.9654Z" fill="#FCD601"/>
</g>
<defs>
<clipPath id="clip0_1474_1538">
<rect width="82" height="82" fill="white"/>
</clipPath>
</defs>
</svg>
