<svg width="80" height="80" viewBox="0 0 80 80" fill="none" xmlns="http://www.w3.org/2000/svg">
<path d="M29.6553 13.7472C24.5203 17.4919 24.4968 24.4264 24.971 31.7016C25.1161 34.9751 25.2936 38.9786 25.4766 40.263C26.1422 44.9279 32.2673 51.4616 40.1774 51.4346C48.0936 51.4075 53.3562 44.8262 54.8735 39.9416C55.1985 38.8944 55.2821 36.5309 55.4488 31.8027C55.7437 23.4424 55.0215 21.1096 54.7266 20.2472C52.4323 9.82853 37.5865 6.797 29.6553 13.7472Z" stroke="#FCD601" stroke-width="3" stroke-miterlimit="10"/>
<path d="M52.7146 70.618L52.173 62.3166L57.2027 60.4401L56.7886 51.8745" stroke="#FCD601" stroke-width="3" stroke-miterlimit="10"/>
<path d="M47.8932 49.082C57.2099 50.6685 70.2995 57.0867 70.2797 70.65C55.2641 70.5976 25.0228 70.5994 10 70.65C10.1529 58.4336 23.4219 50.3682 32.9101 49.5382L30.2156 50.1022L37.9687 70.3322L35.551 64.0236L40.2292 58.1369L44.7443 63.698" stroke="#FCD601" stroke-width="3" stroke-miterlimit="10"/>
<path d="M50.6256 49.7808L41.8867 70.3328L28.185 70.6181V62.1621L23.0776 60.4402L24.1351 52.3344" stroke="#FCD601" stroke-width="3" stroke-miterlimit="10"/>
<path d="M20.3175 35.3879C19.6175 35.9182 17.6091 36.8571 17.7434 38.6373C17.8433 39.959 19.5844 40.2906 19.6777 41.5984C19.7806 43.0345 17.7181 43.5051 17.8204 44.9724C17.9101 46.255 19.5218 46.4169 19.6001 47.7271C19.4334 49.9082 16.3549 50.0587 19.2414 53.7318" stroke="#FCD601" stroke-width="3" stroke-miterlimit="10"/>
<path d="M39.8349 29.0974H24.8687L25.1383 35.0864C29.8478 36.5002 38.559 38.8992 39.8355 29.0974H39.8349Z" fill="#FCD601" stroke="#FCD601" stroke-width="3" stroke-miterlimit="10"/>
<path d="M40.5517 29.0974H55.518L55.2484 35.0864C50.5389 36.5002 41.8277 38.8992 40.5511 29.0974H40.5517Z" fill="#FCD601" stroke="#FCD601" stroke-width="3" stroke-miterlimit="10"/>
<path d="M25.1377 36.3692C18.1454 37.2442 17.5683 28.444 24.7146 28.8159" stroke="#FCD601" stroke-width="3" stroke-miterlimit="10"/>
</svg>
