<svg width="80" height="80" viewBox="0 0 80 80" fill="none" xmlns="http://www.w3.org/2000/svg">
<path d="M32 51.5147C32 49.393 32.8428 47.3582 34.3431 45.8579C35.8434 44.3576 37.8782 43.5147 40 43.5147C42.1217 43.5147 44.1565 44.3576 45.6568 45.8579C47.1571 47.3582 48 49.393 48 51.5147C48 53.6365 47.1571 55.6713 45.6568 57.1716C44.1565 58.6719 42.1217 59.5147 40 59.5147C37.8782 59.5147 35.8434 58.6719 34.3431 57.1716C32.8428 55.6713 32 53.6365 32 51.5147ZM40 35.5147C35.7565 35.5147 31.6868 37.2004 28.6863 40.201C25.6857 43.2016 24 47.2713 24 51.5147C24 55.7582 25.6857 59.8279 28.6863 62.8284C31.6868 65.829 35.7565 67.5147 40 67.5147C44.2434 67.5147 48.3131 65.829 51.3137 62.8284C54.3143 59.8279 56 55.7582 56 51.5147C56 47.2713 54.3143 43.2016 51.3137 40.201C48.3131 37.2004 44.2434 35.5147 40 35.5147ZM26.6666 51.5147C26.6666 48.3321 27.9309 45.2799 30.1813 43.0294C32.4318 40.779 36.8174 38.1814 40 38.1814C44.6666 38.1814 47.5681 40.779 49.8186 43.0294C52.069 45.2799 53.3333 48.3321 53.3333 51.5147C53.3333 55.9999 50.7357 59.0829 48.4852 61.3333C46.2348 63.5838 43.1826 64.8481 40 64.8481C36.8174 64.8481 33.7651 63.5838 31.5147 61.3333C29.2642 59.0829 26.6666 57.1716 26.6666 51.5147ZM9.3333 22.8481C9.3333 21.2568 9.30819 20.4585 10.4334 19.3333C11.5586 18.208 12.4087 18.1814 14 18.1814H66C67.5913 18.1814 68.4413 18.208 69.5665 19.3333C70.6917 20.4585 70.6666 21.2568 70.6666 22.8481V26.8481C70.6673 28.0894 70.2829 29.3003 69.5665 30.314C68.8501 31.3277 69.1703 30.761 68 31.1747V47.5147C68 51.1917 67.2757 54.8328 65.8686 58.2299C64.4615 61.627 62.399 64.7137 59.7989 67.3137C57.1989 69.9138 54.1122 71.9762 50.7151 73.3834C47.318 74.7905 43.677 75.5147 40 75.5147C36.323 75.5147 32.6819 74.7905 29.2848 73.3834C25.8877 71.9762 22.801 69.9138 20.201 67.3137C17.6009 64.7137 15.5385 61.627 14.1313 58.2299C12.7242 54.8328 12 51.1917 12 47.5147V31.1747C10.8297 30.761 11.1498 31.3277 10.4334 30.314C9.71701 29.3003 9.33265 28.0894 9.3333 26.8481V22.8481ZM14.6666 31.5147V47.5147C14.6666 55.3332 18.5285 61.3177 23.0294 65.8186C27.5303 70.3195 33.6348 72.8481 40 72.8481C46.3652 72.8481 53.803 68.9862 58.3039 64.4853C62.8047 59.9844 64.4336 55.7574 65.3333 47.5147V31.5147H14.6666ZM14 20.8481C13.4695 20.8481 12.9608 21.0588 12.5858 21.4338C12.2107 21.8089 12 22.3176 12 22.8481V26.8481C12 27.3785 12.2107 27.8872 12.5858 28.2623C12.9608 28.6373 13.4695 28.8481 14 28.8481C14.5304 28.8481 66 28.8481 66 28.8481C66.5304 28.8481 67.0391 28.6373 67.4142 28.2623C67.7892 27.8872 68 27.3785 68 26.8481V22.8481C68 22.3176 67.7892 21.8089 67.4142 21.4338C67.0391 21.0588 66.5304 20.8481 66 20.8481H14Z" fill="#FCD601"/>
</svg>
