<svg width="80" height="80" viewBox="0 0 80 80" fill="none" xmlns="http://www.w3.org/2000/svg">
<path d="M33.3713 31.7425V40.9092H22.9546V31.7425H20.0379V40.9092H8.37126V31.7425H5.45459V69.2425H8.37126V57.5759H20.0379V69.2425H22.9546V57.5759H33.3713V69.2425H36.2879V57.5759H46.7046V69.2425H49.6213V57.5759H60.0379V69.2425H62.9546V57.5759H72.1213V69.2425H75.0379V31.7425H72.1213V40.9092H62.9546V31.7425H60.0379V40.9092H49.6213V31.7425H46.7046V40.9092H36.2879V31.7425H33.3713ZM8.37126 43.8259H20.0379V54.6592H8.37126V43.8259ZM22.9546 43.8259H33.3713V54.6592H22.9546V43.8259ZM36.2879 43.8259H46.7046V54.6592H36.2879V43.8259ZM49.6213 43.8259H60.0379V54.6592H49.6213V43.8259ZM62.9546 43.8259H72.1213V54.6592H62.9546V43.8259ZM24.2046 17.5758H37.5379V10.9092L57.5379 20.9092H44.2046V27.5758L24.2046 17.5758Z" fill="#FCD601"/>
</svg>
