<svg width="80" height="88" viewBox="0 0 80 88" fill="none" xmlns="http://www.w3.org/2000/svg">
<path d="M63.75 19.25H16.25C14.1789 19.25 12.5 21.0968 12.5 23.375V50.875C12.5 53.1532 14.1789 55 16.25 55H63.75C65.8211 55 67.5 53.1532 67.5 50.875V23.375C67.5 21.0968 65.8211 19.25 63.75 19.25Z" stroke="#FCD601" stroke-width="2" stroke-linecap="round" stroke-linejoin="round"/>
<path d="M20 46.75L30 36.4375L37.5 44L47.5 30.25L55.625 46.75L61.25 35.0625" stroke="#FCD601" stroke-width="2" stroke-linecap="round" stroke-linejoin="round"/>
<path d="M32.5 63.25H47.5" stroke="#FCD601" stroke-width="2" stroke-linecap="round" stroke-linejoin="round"/>
<path d="M40 55V63.25" stroke="#FCD601" stroke-width="2" stroke-linecap="round" stroke-linejoin="round"/>
<path d="M64.5908 14.585C67.5192 14.2511 70.8147 17.1384 71.182 20.3596" stroke="#FCD601" stroke-width="2" stroke-linecap="round" stroke-linejoin="round"/>
<path d="M65.5044 9.58618C71.3611 8.91849 76.3044 13.2495 77.0389 19.6918" stroke="#FCD601" stroke-width="2" stroke-linecap="round" stroke-linejoin="round"/>
</svg>
