<svg width="80" height="80" viewBox="0 0 80 80" fill="none" xmlns="http://www.w3.org/2000/svg">
<path d="M42.5 7L70 18.02V37.3049C70 53.8348 59 64.735 42.5 73C26 64.735 15 53.8348 15 37.3049V18.02L42.5 7Z" stroke="#FCD601" stroke-width="2" stroke-linecap="round" stroke-linejoin="round"/>
<path d="M42.5 16.3914L62 24.5691V38.1988C62 51.8284 53.6429 58.9395 42.5 64.3914C31.3571 58.9395 23 51.8284 23 38.1988V24.5691L42.5 16.3914Z" stroke="#FCD601" stroke-width="2" stroke-linecap="round" stroke-linejoin="round"/>
<g clip-path="url(#clip0_1313_1523)">
<path d="M42.5774 39.7302C42.1138 39.7337 41.6647 39.8924 41.3018 40.1809C40.9388 40.4694 40.6829 40.8711 40.5749 41.322C40.4669 41.7728 40.513 42.2469 40.7058 42.6685C40.8986 43.0902 41.2271 43.4351 41.6388 43.6483V46.1111H43.361V43.7258C43.8056 43.5436 44.1732 43.2127 44.4011 42.7897C44.629 42.3666 44.703 41.8776 44.6105 41.4061C44.5181 40.9346 44.2648 40.5098 43.894 40.2041C43.5233 39.8985 43.0579 39.731 42.5774 39.7302Z" fill="#FCD601"/>
<path d="M49.3889 34.9167V31.2311C49.4259 29.3641 48.7219 27.5585 47.4308 26.2094C46.1398 24.8602 44.3669 24.0774 42.5001 24.0322C40.6332 24.0774 38.8603 24.8602 37.5693 26.2094C36.2782 27.5585 35.5742 29.3641 35.6112 31.2311V34.9167H33.0278V49.5556C33.0278 50.0123 33.2093 50.4504 33.5323 50.7734C33.8552 51.0963 34.2933 51.2778 34.7501 51.2778H50.2501C50.7068 51.2778 51.1449 51.0963 51.4678 50.7734C51.7908 50.4504 51.9723 50.0123 51.9723 49.5556V34.9167H49.3889ZM37.3334 31.2311C37.2963 29.8208 37.8188 28.4532 38.787 27.427C39.7551 26.4008 41.09 25.7995 42.5001 25.7544C43.9101 25.7995 45.245 26.4008 46.2132 27.427C47.1813 28.4532 47.7038 29.8208 47.6667 31.2311V34.9167H37.3334V31.2311ZM34.7501 49.5556V36.6389H50.2501V49.5556H34.7501Z" fill="#FCD601"/>
</g>
<defs>
<clipPath id="clip0_1313_1523">
<rect width="31" height="31" fill="white" transform="translate(27 22)"/>
</clipPath>
</defs>
</svg>
