<svg width="80" height="80" viewBox="0 0 80 80" fill="none" xmlns="http://www.w3.org/2000/svg">
<g clip-path="url(#clip0_1313_1509)">
<path d="M59.3283 36.4632V26.4868C59.4294 21.433 57.5051 16.5453 53.9765 12.8933C50.4479 9.24129 45.6023 7.1223 40.5 7C35.3977 7.1223 30.5521 9.24129 27.0235 12.8933C23.4949 16.5453 21.5706 21.433 21.6717 26.4868V36.4632H16C16 36.4632 16 73.6453 16 74.7137C16 75.7822 17.389 77.1578 17.389 77.1578C17.389 77.1578 18.0697 78 19.3181 78H61.6819C62.9303 78 64.2284 77.8456 64.6142 77.1578C65 76.47 65 75.9391 65 74.7137V36.4632H59.3283ZM26.3787 26.4868C26.2773 22.6692 27.7056 18.9671 30.3515 16.1893C32.9975 13.4114 36.6461 11.7838 40.5 11.6619C44.3539 11.7838 48.0025 13.4114 50.6484 16.1893C53.2944 18.9671 54.7227 22.6692 54.6213 26.4868V36.4632H26.3787V26.4868ZM19.3181 74.7137V39.7495H61.6819V74.7137H19.3181Z" fill="#FCD601"/>
<path d="M38.6999 70V67.1333C37.5222 66.8667 36.5057 66.3556 35.6506 65.6C34.7955 64.8444 34.1675 63.7778 33.7666 62.4L36.2333 61.4C36.5666 62.4667 37.0613 63.2778 37.7173 63.8333C38.3733 64.3889 39.2342 64.6667 40.2999 64.6667C41.211 64.6667 41.9835 64.4613 42.6173 64.0507C43.251 63.64 43.5675 63.0009 43.5666 62.1333C43.5666 61.3556 43.3222 60.7391 42.8333 60.284C42.3444 59.8289 41.211 59.312 39.4333 58.7333C37.5222 58.1333 36.211 57.4169 35.4999 56.584C34.7888 55.7511 34.4333 54.7342 34.4333 53.5333C34.4333 52.0889 34.8999 50.9667 35.8333 50.1667C36.7666 49.3667 37.7222 48.9111 38.6999 48.8V46H41.3666V48.8C42.4777 48.9778 43.3946 49.3836 44.1173 50.0173C44.8399 50.6511 45.3675 51.4231 45.6999 52.3333L43.2333 53.4C42.9666 52.6889 42.5888 52.1556 42.0999 51.8C41.611 51.4444 40.9444 51.2667 40.0999 51.2667C39.1222 51.2667 38.3777 51.4836 37.8666 51.9173C37.3555 52.3511 37.0999 52.8898 37.0999 53.5333C37.0999 54.2667 37.4333 54.8444 38.0999 55.2667C38.7666 55.6889 39.9222 56.1333 41.5666 56.6C43.0999 57.0444 44.2613 57.7502 45.0506 58.7173C45.8399 59.6844 46.2342 60.8009 46.2333 62.0667C46.2333 63.6444 45.7666 64.8444 44.8333 65.6667C43.8999 66.4889 42.7444 67 41.3666 67.2V70H38.6999Z" fill="#FCD601"/>
</g>
<defs>
<clipPath id="clip0_1313_1509">
<rect width="80" height="80" fill="white"/>
</clipPath>
</defs>
</svg>
