<svg width="80" height="80" viewBox="0 0 80 80" fill="none" xmlns="http://www.w3.org/2000/svg">
<path d="M40 21.6667C40.663 21.6667 41.2989 21.4034 41.7678 20.9345C42.2366 20.4657 42.5 19.8298 42.5 19.1667C42.5 18.5037 42.2366 17.8678 41.7678 17.399C41.2989 16.9301 40.663 16.6667 40 16.6667C39.337 16.6667 38.7011 16.9301 38.2322 17.399C37.7634 17.8678 37.5 18.5037 37.5 19.1667C37.5 19.8298 37.7634 20.4657 38.2322 20.9345C38.7011 21.4034 39.337 21.6667 40 21.6667Z" fill="#FCD601"/>
<path fill-rule="evenodd" clip-rule="evenodd" d="M39.6933 10.0283L39.68 10.0317L39.6417 10.0383L39.5033 10.065L38.9867 10.1683C38.5433 10.2583 37.9117 10.3917 37.1567 10.5633C35.6483 10.9067 33.6233 11.4083 31.59 12.0367C29.5767 12.6583 27.4683 13.4317 25.8333 14.3367C25.02 14.7867 24.24 15.315 23.645 15.9367C23.0533 16.5517 22.5 17.4133 22.5 18.495C22.5 21.4033 23.3167 23.5333 24.18 24.9617C24.605 25.665 25.0367 26.19 25.3767 26.55C25.3911 26.7422 25.4206 26.9556 25.465 27.19C25.6333 28.0667 26.055 29.1833 27.0217 30.2683C26.5614 32.2254 26.5496 34.2613 26.9873 36.2236C27.4249 38.1859 28.3007 40.0238 29.549 41.5998C30.7974 43.1758 32.3859 44.4491 34.1959 45.3244C36.0059 46.1997 37.9903 46.6544 40.0008 46.6544C42.0113 46.6544 43.9958 46.1997 45.8058 45.3244C47.6157 44.4491 49.2043 43.1758 50.4526 41.5998C51.701 40.0238 52.5767 38.1859 53.0144 36.2236C53.4521 34.2613 53.4403 32.2254 52.98 30.2683C53.945 29.1833 54.3667 28.0683 54.535 27.19C54.5794 26.9567 54.6089 26.7433 54.6233 26.55C55.0776 26.0647 55.4788 25.5322 55.82 24.9617C56.685 23.5333 57.5 21.4033 57.5 18.495C57.5 17.4133 56.9467 16.5517 56.355 15.9367C55.76 15.315 54.98 14.7867 54.1667 14.3367C52.5317 13.4317 50.4233 12.6583 48.4083 12.0367C46.572 11.4775 44.7158 10.9861 42.8433 10.5633C42.0635 10.3856 41.2812 10.219 40.4967 10.0633L40.3583 10.0383L40.32 10.0317L40.3067 10.0283L40 9.97168L39.6933 10.0283ZM40 30.8333C43.6783 30.8333 46.1483 30.3567 47.8 29.7367C49.1983 29.2117 50.0133 28.585 50.4833 28.0567C50.6533 27.8645 50.7911 27.6789 50.8967 27.5H29.1033C29.2089 27.68 29.3461 27.8656 29.515 28.0567C29.9883 28.585 30.8017 29.2117 32.1983 29.7367C33.8517 30.3567 36.3217 30.8333 40 30.8333ZM52.2867 24.1667H27.7133C27.4576 23.8787 27.2293 23.5673 27.0317 23.2367C26.46 22.2917 25.84 20.7633 25.8333 18.53C25.8903 18.4238 25.9634 18.3271 26.05 18.2433C26.32 17.9617 26.7767 17.6233 27.4483 17.2533C28.7817 16.515 30.6317 15.8217 32.575 15.22C34.3306 14.6868 36.1051 14.2181 37.895 13.815C38.5947 13.6558 39.2964 13.5058 40 13.365L40.3467 13.4333C40.77 13.52 41.3767 13.65 42.105 13.815C43.565 14.1467 45.5 14.6267 47.425 15.2217C49.3683 15.8217 51.2183 16.515 52.5517 17.2533C53.2233 17.6233 53.68 17.9617 53.9517 18.2433C54.1017 18.4017 54.1517 18.495 54.1667 18.53C54.16 20.7633 53.54 22.2917 52.9667 23.2367C52.7695 23.5672 52.5419 23.8786 52.2867 24.1667ZM30 33.3333C30 33.0333 30.0128 32.7367 30.0383 32.4433C32.2683 33.4883 35.4617 34.1667 40 34.1667C43.9083 34.1667 46.815 33.6667 48.97 32.8583C49.32 32.7283 49.6506 32.5895 49.9617 32.4417C49.9872 32.7361 50 33.0333 50 33.3333C50 35.9855 48.9464 38.5291 47.0711 40.4044C45.1957 42.2798 42.6522 43.3333 40 43.3333C37.3478 43.3333 34.8043 42.2798 32.9289 40.4044C31.0536 38.5291 30 35.9855 30 33.3333Z" fill="#FCD601"/>
<path d="M55 56.6667C56.1116 57.7784 58.3333 58.8884 58.3333 58.8884C58.3333 58.8884 57.17 63.3334 55 63.3334C52.83 63.3334 51.6666 58.8884 51.6666 58.8884C51.6666 58.8884 53.8883 57.7784 55 56.6667Z" fill="#FCD601"/>
<path fill-rule="evenodd" clip-rule="evenodd" d="M34.1667 51.6666C34.1667 50.7825 34.5179 49.9347 35.143 49.3096C35.7681 48.6844 36.6159 48.3333 37.5 48.3333H42.5C43.3841 48.3333 44.2319 48.6844 44.857 49.3096C45.4821 49.9347 45.8333 50.7825 45.8333 51.6666V53.9699C45.8333 54.5126 45.7007 55.0471 45.4471 55.5269C45.1936 56.0068 44.8267 56.4174 44.3783 56.7233L44.5667 57.6666L50.2867 50.7216C50.4794 50.4873 50.7325 50.3101 51.0186 50.2091C51.3046 50.1081 51.6129 50.087 51.91 50.1483C56.1833 51.0349 60.555 52.3783 63.9017 54.2216C67.1383 56.0049 70 58.5933 70 62.1633V68.3333C70 68.7753 69.8244 69.1992 69.5118 69.5118C69.1993 69.8243 68.7754 69.9999 68.3333 69.9999H11.6667C11.2246 69.9999 10.8007 69.8243 10.4882 69.5118C10.1756 69.1992 10 68.7753 10 68.3333V62.1633C10 58.6133 12.9167 56.0416 16.1533 54.2733C19.5133 52.4349 23.8867 51.0816 28.1083 50.1833C28.4068 50.1199 28.717 50.1397 29.005 50.2405C29.293 50.3413 29.5478 50.5192 29.7417 50.7549L35.4583 57.6983L35.6383 56.7349C35.185 56.4297 34.8137 56.0178 34.5571 55.5353C34.3005 55.0529 34.1664 54.5147 34.1667 53.9683V51.6666ZM40.8667 56.1599L41.8317 60.9883L40 63.2116L38.2267 61.0583L39.1383 56.1366C39.2044 55.781 39.1529 55.4135 38.9918 55.0897C38.8306 54.7659 38.5685 54.5033 38.245 54.3416L37.5 53.9699V51.6666H42.5V53.9699L41.755 54.3433C41.428 54.5066 41.1637 54.7728 41.0029 55.1011C40.842 55.4294 40.7936 55.8014 40.865 56.1599M41.4717 66.6666L52.2117 53.6249C55.9783 54.4683 59.59 55.6533 62.2917 57.1416C65.34 58.8199 66.6667 60.5549 66.6667 62.1633V66.6666H41.4717ZM27.815 53.6616L38.5267 66.6666H13.3333V62.1633C13.3333 60.6066 14.6667 58.8849 17.7517 57.1966C20.4733 55.7083 24.0917 54.5166 27.8183 53.6616" fill="#FCD601"/>
</svg>
