<?xml version="1.0" encoding="UTF-8"?>
<svg id="Layer_2" data-name="Layer 2" xmlns="http://www.w3.org/2000/svg" viewBox="0 0 348.48 329.17">
  <g id="Layer_1-2" data-name="Layer 1">
    <g>
      <path d="m170.12,219.23c-5.65-.79-11.3-1.58-17.57-2.46,0,1.74.03,3.94,0,6.14-.45,33.45-.97,66.9-1.28,100.36-.04,4.26-1.23,5.88-5.66,5.86-26.19-.13-52.39-.07-78.59.05-3.93.02-5.49-1.3-5.53-5.44-.37-37.59-.85-75.18-1.46-112.77-.31-18.87-.86-37.73-1.62-56.58-.08-1.94-1.85-4.55-3.59-5.57-13.6-8.01-27.29-15.88-41.14-23.44-16.85-9.19-18.47-30.82-2.96-42.26,17.38-12.81,34.79-25.59,52.11-38.5,1.13-.84,2.08-2.61,2.21-4.04C68.27,4.46,105.78-9.8,132.52,7.02c.33.21.79.22,1.19.33-.1-.58-.2-1.16-.3-1.74,4.63-1.04,9.26-2.98,13.89-3,64.66-.19,129.31-.06,193.97-.22,5.33-.01,7.22,1.22,7.21,6.88-.18,91.89-.18,183.78-.09,275.68,0,4.69-1.11,6.63-6.24,6.61-58.42-.18-116.84-.14-175.26-.18-1.64,0-3.27-.16-5.58-.28-.15-2.56-.3-4.92-.48-7.95h178.4V11.68h-200.4c17.76,32.69,16.61,44.13-7.54,75,3.97,1.11,7.6,2.15,11.26,3.13,15.59,4.15,29.51,10.32,35.07,27.43.4,1.23,3.12,2.37,4.79,2.41,9.32.23,18.65.11,28.09.11,1.76,5.99-1.97,6.98-5.83,7.09-8.08.24-16.17.07-25.09.07,1.04,5.14,1.92,9.49,2.68,13.2,3.81,2.03,7.14,3.8,10.47,5.57.53.66,1.06,1.32,1.59,1.99,8.71-9.96,17.42-19.93,25.88-29.6,7.62,4.94,7.68,5.44,2.75,10.43-2.19,2.22-4.35,4.47-6.47,6.75-.55.59-.92,1.36-.69,1.01.78,4.06,1.75,7.09,1.86,10.15.21,5.81-.23,11.64-.1,17.46.08,3.61-1.19,5.55-4.93,5.54-7.03,0-14.06,0-21.3,0v-7.11h18.52v-21.63c-6,6.3-11.06,11.63-16.59,17.44-3.06-2.73-6.04-5.39-10.49-9.36,0,16.7-.26,31.95.09,47.18.24,10.53-3.03,18.66-12.88,23.41l.17-.13Zm-25.7,101.28c0-22.85-.05-45.04.01-67.23.1-35.13.29-70.26.44-105.39,0-1.87-.3-3.85.22-5.58.4-1.31,1.97-3.26,2.87-3.19,1.51.12,3.5,1.33,4.18,2.65.78,1.51.41,3.65.42,5.51.04,16.84-.04,33.68.1,50.52.07,7.66,4.99,13.42,11.06,13.51,5.89.09,10.87-5.15,10.91-12.85.12-24.28,1.23-48.59-3.39-72.7-2.18-11.4-7.69-19.61-18.6-23.7-6.4-2.4-13.07-4.07-19.5-6.39-3.27-1.18-5.55-.64-8.39,1.42-11.34,8.19-22.67,8.18-33.46.47-5.78-4.12-18.07-.29-21.47,6.12-.81,1.53-4.46,2.75-6.34,2.28-4.38-1.1-8.44-3.41-12.69-5.08-5.26-2.07-5.74-4.07-1.58-7.76,8.7-7.73,17.55-15.29,26.11-23.17,5.19-4.77,10.25-9.75,14.71-15.18,1.32-1.6,1.39-5.73.22-7.45-1.26-1.85-4.82-3.32-7.1-3-3.57.51-7.33,2.08-10.26,4.21-19.81,14.42-39.65,28.82-58.98,43.86-8.37,6.52-6.8,18.62,2.14,24.35,1.57,1.01,3.27,1.8,4.9,2.73,13.51,7.74,27.1,15.35,40.45,23.37,2.31,1.39,4.96,4.46,5.08,6.87,1.05,21.73,1.76,43.48,2.2,65.23.53,26.57.74,53.16,1.03,79.74.09,8.63.01,17.25.01,25.77h33.59v-95.37c7.78-1.99,8.11-1.8,8.13,4.93.06,27.65.08,55.3.11,82.95,0,2.42,0,4.84,0,7.53h32.88Zm-60.83-246.91c4.21,2.76,7.97,6.03,12.33,7.94,21.66,9.5,48.6-10.76,45.98-34.36-1.11-9.98-7.51-14.47-17.26-11.39-8.39,2.65-16.54,6.11-24.61,9.14q1.73,9.38-16.43,28.67Zm56-39.76c-1.64-14.45-16.95-25.82-32.08-25.36-17.49.54-32.42,13.95-33.13,28.76,5.62-.61,11.4-1.37,17.19-1.83,4.16-.33,8.54.47,12.49-.53,5.37-1.36,10.39-4.07,15.63-6.01,7.15-2.65,14.4-5.31,19.9,4.96Zm-62.41,45.3c-5.35,4.76-10.17,9.05-14.99,13.34.22.37.44.74.66,1.12,7.3-2.26,14.6-4.52,22.74-7.05-3.27-2.89-5.7-5.02-8.41-7.41Zm40.94,12.37h-20.55c6.24,5.45,10.42,5.69,20.55,0Z"/>
      <path d="m210.71,41.57c-.12,6.21-3.39,7.01-7.21,7.02-8.71.02-17.42,0-26.72,0v34.37h33.08v-18.87l-1.36-1.07c-4.58,5.7-9.16,11.39-13.37,16.63-6.95-5.77-12.05-10.01-17.41-14.46,7.54-6.33,10.02.44,14.08,2.7,8.58-8.12,17.21-16.14,25.67-24.34,5.06-4.91,5.45-4.96,9.52,1.72-3.91,4.32-7.92,8.74-11.26,12.44.86,3.69,2,6.58,2.11,9.5.23,5.8-.28,11.63-.14,17.44.1,3.98-1.57,5.84-5.42,5.88-12.88.12-25.76.39-38.63.07-1.67-.04-4.61-3.16-4.66-4.93-.43-13.07-.42-26.17-.11-39.25.04-1.64,2.65-4.57,4.14-4.62,12.41-.37,24.84-.21,37.7-.21Z"/>
      <path d="m169.96,219.35c5.74.84,7.07,4.5,6.6,9.72-.35,3.88-.07,7.82-.07,11.97h33.32v-21.1c-5.6,6.35-10.43,11.82-15.92,18.05-5.69-5.95-10.09-10.55-14.51-15.17,6.25-6.45,9.04-.27,13.2,2.15,7.68-7.46,15.35-14.93,23.06-22.37,1.49-1.43,2.94-3.24,4.76-3.87,1.26-.44,3.83.41,4.51,1.49.79,1.27.91,4.27.02,5.05-3.74,3.28-7.97,6.02-12.02,8.96,1.11.74,2.21,1.49,3.32,2.23.43,3.04,1.14,6.08,1.24,9.13.2,5.8.43,11.65-.14,17.41-.19,1.89-2.74,5.01-4.3,5.06-13.27.46-26.56.43-39.83.27-1.47-.02-4.19-1.76-4.18-2.68.1-8.81.66-17.62,1.09-26.44,0,0-.16.12-.16.12Z"/>
      <path d="m275.95,164.22c-9.97,0-19.96.25-29.91-.2-2.15-.1-4.19-2.7-6.29-4.16,2.06-1.2,4.11-3.41,6.19-3.44,20.15-.31,40.3-.37,60.45-.14,1.96.02,3.9,2.49,5.85,3.83-1.92,1.36-3.8,3.83-5.77,3.91-10.16.4-20.35.18-30.53.2Z"/>
      <path d="m275.73,44.94c10.16,0,20.33-.21,30.48.18,2,.08,3.9,2.47,5.85,3.79-1.93,1.35-3.85,3.83-5.81,3.86-20.11.28-40.24.29-60.35-.03-2.09-.03-4.13-2.69-6.19-4.14,2.05-1.22,4.06-3.41,6.15-3.49,9.94-.37,19.9-.17,29.86-.18Z"/>
      <path d="m275.9,202.56c9.96,0,19.93,0,29.89,0,3.01,0,6.6-.02,5.99,4.08-.23,1.52-3.68,3.62-5.69,3.64-20.13.25-40.27.23-60.4-.06-2.03-.03-5.54-2.16-5.74-3.67-.54-4.04,3.05-4.06,6.06-4.05,9.96,0,19.93,0,29.89,0v.07Z"/>
      <path d="m276.62,85.24c-10.18,0-20.37.24-30.54-.19-2.17-.09-4.25-2.58-6.36-3.96,2.05-1.18,4.09-3.35,6.16-3.37,19.94-.28,39.89-.18,59.84-.23,3.08,0,6.54.11,6,4.1-.19,1.44-3.74,3.37-5.82,3.45-9.75.36-19.53.16-29.29.16,0,.01,0,.03,0,.04Z"/>
      <path d="m276.18,243.23c-9.98,0-19.96-.03-29.94.02-3.09.02-6.53-.13-6.12-4.05.14-1.4,3.75-3.45,5.8-3.48,20.17-.27,40.34-.16,60.51-.2,2.88,0,5.79.05,5.61,3.93-.17,3.74-3.01,3.73-5.91,3.71-9.98-.09-19.96-.04-29.94-.04v.11Z"/>
      <path d="m276.17,123.42c10.16,0,20.33-.18,30.48.17,1.82.06,3.56,2.29,5.34,3.52-1.67,1.35-3.33,3.85-5.02,3.87-20.73.25-41.47.22-62.2-.06-1.72-.02-3.4-2.46-5.11-3.78,1.8-1.24,3.57-3.48,5.41-3.54,10.36-.35,20.73-.17,31.1-.18Z"/>
      <path d="m190.03,199.26h20.36c.51,7-3.42,8.39-19.71,6.77-.18-1.87-.37-3.85-.65-6.77Z"/>
    </g>
  </g>
</svg>