<svg viewBox="0 0 52 49" fill="none" xmlns="http://www.w3.org/2000/svg">
<g clip-path="url(#clip0_1071_192)">
<path d="M25.3852 32.6344C24.5421 32.5168 23.699 32.3992 22.7634 32.2682C22.7634 32.5272 22.7679 32.8547 22.7634 33.1822C22.6963 38.1616 22.6187 43.1409 22.5724 48.1217C22.5665 48.7559 22.3889 48.997 21.7278 48.994C17.8198 48.9747 13.9102 48.9836 10.0007 49.0015C9.41425 49.0045 9.18147 48.808 9.1755 48.1917C9.12029 42.5961 9.04866 37.0005 8.95764 31.4048C8.91138 28.5959 8.82931 25.7884 8.71591 22.9824C8.70397 22.6936 8.43985 22.3051 8.18021 22.1532C6.15082 20.9609 4.10801 19.7894 2.04132 18.664C-0.473028 17.296 -0.714764 14.0761 1.59963 12.3732C4.19306 10.4663 6.79097 8.56388 9.37546 6.64211C9.54407 6.51706 9.68583 6.25358 9.70523 6.04071C10.1872 0.663919 15.7844 -1.45881 19.7746 1.045C19.8238 1.07626 19.8924 1.07775 19.9521 1.09412C19.9372 1.00778 19.9223 0.921445 19.9074 0.835107C20.5983 0.680293 21.2891 0.391506 21.98 0.388529C31.6286 0.360246 41.2756 0.379597 50.9241 0.35578C51.7195 0.354291 52.0015 0.537388 52 1.37993C51.9731 15.0586 51.9731 28.7373 51.9866 42.4174C51.9866 43.1156 51.8209 43.4044 51.0554 43.4014C42.338 43.3746 33.6206 43.3806 24.9032 43.3746C24.6585 43.3746 24.4153 43.3508 24.0706 43.3329C24.0482 42.9519 24.0258 42.6005 23.999 42.1495H50.6197V1.73868H20.7161C23.3663 6.60489 23.1947 8.30784 19.591 12.9031C20.1834 13.0684 20.7251 13.2232 21.2712 13.3691C23.5976 13.9868 25.6747 14.9053 26.5044 17.4523C26.564 17.6354 26.9699 17.8051 27.2191 17.811C28.6098 17.8453 30.0021 17.8274 31.4107 17.8274C31.6733 18.7191 31.1167 18.8664 30.5407 18.8828C29.335 18.9185 28.1279 18.8932 26.7968 18.8932C26.952 19.6584 27.0833 20.3059 27.1967 20.8582C27.7653 21.1603 28.2622 21.4238 28.7591 21.6873C28.8381 21.7856 28.9172 21.8838 28.9963 21.9835C30.296 20.5009 31.5957 19.0168 32.8581 17.5773C33.9952 18.3127 34.0041 18.3871 33.2685 19.1299C32.9417 19.4604 32.6194 19.7953 32.303 20.1347C32.221 20.2225 32.1657 20.3372 32.2001 20.2851C32.3165 20.8894 32.4612 21.3405 32.4776 21.796C32.5089 22.6608 32.4433 23.5287 32.4627 24.3951C32.4746 24.9324 32.2851 25.2212 31.727 25.2197C30.678 25.2197 29.629 25.2197 28.5487 25.2197V24.1614H31.3122V20.9415C30.4169 21.8793 29.6618 22.6728 28.8367 23.5376C28.38 23.1312 27.9354 22.7353 27.2713 22.1443C27.2713 24.6303 27.2325 26.9004 27.2848 29.1675C27.3206 30.735 26.8326 31.9452 25.3628 32.6523L25.3882 32.6329L25.3852 32.6344ZM21.5503 47.7109C21.5503 44.3095 21.5428 41.0063 21.5518 37.7031C21.5667 32.4737 21.595 27.2442 21.6174 22.0148C21.6174 21.7364 21.5727 21.4417 21.6502 21.1842C21.7099 20.9892 21.9442 20.6989 22.0785 20.7093C22.3038 20.7272 22.6008 20.9073 22.7022 21.1038C22.8186 21.3286 22.7634 21.6471 22.7649 21.924C22.7709 24.4308 22.7589 26.9376 22.7798 29.4444C22.7903 30.5846 23.5244 31.4421 24.4302 31.4555C25.3091 31.4689 26.0522 30.6888 26.0582 29.5426C26.0761 25.9283 26.2417 22.3095 25.5523 18.7205C25.227 17.0236 24.4048 15.8014 22.7769 15.1926C21.8218 14.8353 20.8266 14.5867 19.8671 14.2414C19.3791 14.0657 19.0389 14.1461 18.6151 14.4528C16.923 15.6719 15.2323 15.6704 13.6222 14.5227C12.7598 13.9094 10.9258 14.4795 10.4185 15.4337C10.2976 15.6615 9.75298 15.8431 9.47245 15.7731C8.81887 15.6094 8.21304 15.2655 7.57885 15.0169C6.79396 14.7088 6.72233 14.4111 7.34309 13.8618C8.6413 12.7111 9.96189 11.5857 11.2392 10.4127C12.0137 9.70265 12.7687 8.96133 13.4342 8.15303C13.6312 7.91485 13.6416 7.30006 13.4671 7.04403C13.279 6.76864 12.7478 6.54981 12.4076 6.59745C11.8749 6.67337 11.3138 6.90708 10.8766 7.22415C7.92057 9.3707 4.96005 11.5143 2.07564 13.7531C0.826673 14.7237 1.06095 16.5249 2.39497 17.3778C2.62924 17.5282 2.88292 17.6458 3.12615 17.7842C5.1421 18.9364 7.16999 20.0692 9.16207 21.2631C9.50677 21.47 9.9022 21.927 9.92011 22.2857C10.0768 25.5204 10.1827 28.7581 10.2484 31.9958C10.3275 35.951 10.3588 39.9092 10.4021 43.8658C10.4155 45.1505 10.4036 46.4337 10.4036 47.702H15.4159V33.5052C16.5768 33.209 16.626 33.2373 16.629 34.2391C16.638 38.3551 16.641 42.471 16.6454 46.587C16.6454 46.9472 16.6454 47.3075 16.6454 47.7079H21.5518L21.5503 47.7109ZM12.4733 10.956C13.1015 11.3669 13.6625 11.8537 14.3131 12.138C17.5452 13.5522 21.5652 10.5363 21.1742 7.02319C21.0086 5.53757 20.0536 4.86919 18.5987 5.32768C17.3468 5.72216 16.1306 6.23721 14.9264 6.68825C15.0985 7.61912 14.2813 9.04172 12.4747 10.956H12.4733ZM20.8295 5.0374C20.5848 2.88639 18.3003 1.19386 16.0426 1.26233C13.4327 1.34272 11.2049 3.33892 11.0989 5.54352C11.9376 5.45272 12.8 5.33959 13.664 5.27111C14.2848 5.22199 14.9384 5.34108 15.5278 5.19222C16.3291 4.98977 17.0782 4.58636 17.8601 4.29757C18.927 3.9031 20.0088 3.50713 20.8295 5.03591V5.0374ZM11.5168 11.7807C10.7184 12.4893 9.99919 13.1279 9.27995 13.7665C9.31278 13.8216 9.34561 13.8767 9.37844 13.9332C10.4677 13.5968 11.557 13.2604 12.7717 12.8838C12.2837 12.4536 11.9211 12.1365 11.5168 11.7807ZM17.6258 13.6221H14.5593C15.4905 14.4334 16.1142 14.4691 17.6258 13.6221Z" fill="#B61BAD"/>
<path d="M31.442 6.18804C31.4241 7.11246 30.9362 7.23154 30.3662 7.23303C29.0665 7.23601 27.7668 7.23303 26.379 7.23303V12.3493H31.3152V9.54035L31.1123 9.38107C30.4288 10.2296 29.7454 11.0766 29.1172 11.8566C28.0801 10.9977 27.3191 10.3665 26.5193 9.7041C27.6444 8.76182 28.0145 9.76959 28.6203 10.106C29.9006 8.89728 31.1884 7.70343 32.4508 6.48278C33.2058 5.75188 33.264 5.74444 33.8713 6.73882C33.2879 7.38189 32.6895 8.03985 32.1911 8.59063C32.3194 9.13992 32.4896 9.57012 32.506 10.0048C32.5403 10.8682 32.4642 11.736 32.4851 12.6009C32.5 13.1934 32.2508 13.4702 31.6763 13.4762C29.7544 13.4941 27.8324 13.5342 25.912 13.4866C25.6628 13.4807 25.2241 13.0162 25.2166 12.7527C25.1524 10.8071 25.1539 8.85709 25.2002 6.91001C25.2062 6.66588 25.5956 6.22972 25.818 6.22228C27.6698 6.1672 29.5246 6.19102 31.4435 6.19102L31.442 6.18804Z" fill="#B61BAD"/>
<path d="M25.3613 32.6523C26.2179 32.7773 26.4163 33.3222 26.3462 34.0992C26.294 34.6768 26.3357 35.2633 26.3357 35.8811H31.3077V32.7401C30.4721 33.6854 29.7514 34.4996 28.9322 35.427C28.0831 34.5413 27.4265 33.8566 26.767 33.1688C27.6996 32.2087 28.1159 33.1286 28.7367 33.4889C29.8827 32.3784 31.0272 31.2664 32.1777 30.1589C32.4 29.946 32.6164 29.6766 32.888 29.5828C33.076 29.5173 33.4595 29.6439 33.5609 29.8046C33.6788 29.9937 33.6967 30.4403 33.5639 30.5564C33.0059 31.0446 32.3747 31.4525 31.7703 31.8901C31.9359 32.0003 32.1001 32.1119 32.2657 32.2221C32.3299 32.6746 32.4358 33.1272 32.4508 33.5812C32.4806 34.4446 32.5149 35.3154 32.4299 36.1728C32.4015 36.4542 32.021 36.9186 31.7882 36.926C29.8081 36.9945 27.825 36.9901 25.8448 36.9662C25.6255 36.9633 25.2196 36.7042 25.2211 36.5673C25.236 35.2558 25.3196 33.9444 25.3837 32.6315L25.3598 32.6493L25.3613 32.6523Z" fill="#B61BAD"/>
<path d="M41.1771 24.4456C39.6894 24.4456 38.1987 24.4828 36.7139 24.4158C36.3931 24.401 36.0887 24.0139 35.7754 23.7966C36.0828 23.618 36.3887 23.289 36.699 23.2845C39.7058 23.2384 42.7126 23.2294 45.7193 23.2637C46.0118 23.2667 46.3013 23.6343 46.5923 23.8338C46.3058 24.0363 46.0252 24.4039 45.7313 24.4158C44.2152 24.4754 42.6947 24.4426 41.1756 24.4456H41.1771Z" fill="#B61BAD"/>
<path d="M41.1443 6.6898C42.6603 6.6898 44.1779 6.65854 45.6925 6.7166C45.9909 6.7285 46.2744 7.08428 46.5654 7.28077C46.2774 7.48173 45.9909 7.8509 45.6985 7.85537C42.6977 7.89705 39.6939 7.89854 36.6931 7.8509C36.3812 7.84644 36.0768 7.45047 35.7694 7.23463C36.0753 7.05302 36.3752 6.72702 36.6871 6.71511C38.1703 6.66003 39.6566 6.6898 41.1428 6.68831L41.1443 6.6898Z" fill="#B61BAD"/>
<path d="M41.1696 30.153C42.6559 30.153 44.1436 30.153 45.6298 30.153C46.079 30.153 46.6147 30.15 46.5236 30.7603C46.4893 30.9866 45.9745 31.2992 45.6746 31.3022C42.6708 31.3394 39.6655 31.3364 36.6617 31.2932C36.3588 31.2888 35.8351 30.9717 35.8052 30.7469C35.7246 30.1455 36.2603 30.1426 36.7095 30.144C38.1957 30.144 39.6834 30.144 41.1696 30.144V30.1545V30.153Z" fill="#B61BAD"/>
<path d="M41.2771 12.6888C39.758 12.6888 38.2375 12.7245 36.7199 12.6605C36.3961 12.6471 36.0857 12.2765 35.7709 12.071C36.0768 11.8954 36.3812 11.5724 36.6901 11.5694C39.6655 11.5277 42.6424 11.5426 45.6194 11.5352C46.079 11.5352 46.5953 11.5515 46.5147 12.1455C46.4863 12.3598 45.9566 12.6471 45.6462 12.659C44.1913 12.7126 42.732 12.6829 41.2756 12.6829C41.2756 12.6843 41.2756 12.6873 41.2756 12.6888H41.2771Z" fill="#B61BAD"/>
<path d="M41.2114 36.207C39.7222 36.207 38.233 36.2026 36.7438 36.21C36.2827 36.213 35.7694 36.1907 35.8306 35.6071C35.8515 35.3987 36.3902 35.0936 36.6961 35.0891C39.7058 35.0489 42.7156 35.0653 45.7253 35.0593C46.1551 35.0593 46.5893 35.0668 46.5624 35.6443C46.5371 36.2011 46.1133 36.1996 45.6806 36.1966C44.1913 36.1832 42.7021 36.1907 41.2129 36.1907V36.207H41.2114Z" fill="#B61BAD"/>
<path d="M41.2099 18.3722C42.726 18.3722 44.2436 18.3455 45.7581 18.3976C46.0297 18.4065 46.2894 18.7384 46.555 18.9215C46.3058 19.1225 46.0581 19.4946 45.8059 19.4976C42.7126 19.5348 39.6178 19.5304 36.5244 19.4887C36.2678 19.4857 36.0171 19.1225 35.7619 18.926C36.0305 18.7414 36.2946 18.408 36.5692 18.399C38.1151 18.3469 39.6625 18.3737 41.2099 18.3722Z" fill="#B61BAD"/>
<path d="M28.3562 29.6617H31.3943C31.4704 30.7038 30.8839 30.9107 28.4532 30.6695C28.4263 30.3912 28.398 30.0964 28.3562 29.6617Z" fill="#B61BAD"/>
</g>
<defs>
<clipPath id="clip0_1071_192">
<rect width="52" height="49" fill="white"/>
</clipPath>
</defs>
</svg>
