<?xml version="1.0" encoding="UTF-8"?>
<svg id="Layer_2" data-name="Layer 2" xmlns="http://www.w3.org/2000/svg" viewBox="0 0 920.41 1014.86">
  <g id="Layer_1-2" data-name="Layer 1">
    <g>
      <path d="m919.25,382.49c-6.85,0-13.7.02-20.54-.02-.78,0-1.83-.06-2.31-.54-7.34-7.39-4.86.47-5.43,3.49-.26,1.38,0,2.96-.58,4.15-8.63,17.55-12.77,36.6-18.57,55.1-3.69,11.76-9.15,22.23-17.97,31.51-14.33,15.08-28,30.95-40.5,47.58-28.35,37.71-65.05,66.12-101.74,94.78-14.08,11-29.17,18.81-46.1,24.55-51.51,17.48-102.66,36.02-153.96,54.15-2.1.74-4.16,1.68-6.32,2.13-18.03,3.74-29.32,16.09-38.95,30.49-1.5,2.24-2.93,3.83-5.75,3.42-3.57-.52-4.94,1.21-4.33,4.49.95,5.08-1.66,7.88-5.73,10.12-2.47,1.35-4.85,2.94-7.01,4.74-1.71,1.42-3.56,3.66-1.87,5.75,3.42,4.22,4.24,10.18,8.55,13.52,4.47,3.47.74,6-.22,8.87-1.17,3.5-3.61,2.52-5.84,1.27-2.62-1.46-5.11-.76-7.59.2-4.17,1.63-5.68-.05-5.38-4.16.12-1.61.25-3.23.25-4.85,0-3.61-.33-7.33-5.02-7.51-4.54-.18-7.54,2.42-7.41,6.99.27,9.37-2.27,18.62-1.91,27.78.51,13.09-5.38,22.89-12.63,32.52-4.78,6.35-9.74,12.21-13.38,19.73-3.22,6.65-4.59,14.17-8.88,20.28-3.75,5.33-2.05,11.35-2.22,17.09-.09,3.22-.46,6.05-3.27,7.99-6.83,4.73-7.79,11.63-6.2,18.86,2.25,10.21,1.17,19.14-7.09,26.45-3.25,2.88-3.27,7.68-6.09,11.06-3.3,3.95-7.17,6.36-12.12,7.35-13.84,2.78-18.38,7.58-20.31,21.47-.37,2.66-1.14,4.96-3,7.09-4.37,5.02-8.46,10.11-8.29,17.55.1,4.36-8,8.83-11.71,6.11-7.13-5.24-14.88-3.35-22.24-2.94-7.76.43-13.42-.69-15.63-9-.5-1.88-1.84-3.19-3.82-3.49-4.31-.65-7.14-2.43-6.64-7.44.19-1.94-1.51-2.1-2.96-2.19-5.14-.34-7.3-3.75-8.31-8.2-1.07-4.73-2.11-9.49-2.88-14.27-.68-4.24-1.07-7.93-6.08-10.07-3.42-1.46-2.4-6.05-1.83-9.37.66-3.84,1.95-6.95-4.5-6.72-4.04.14-6.53-4.21-8.9-7.52-4.46-6.24-6.1-6.59-13.01-2.97-15.34,8.03-22.45,6.51-33.2-7.42-1.84-2.39-4.18-3.24-6.78-3.38-8.01-.44-13.93-4.22-19.18-10.14-6.16-6.95-12.77-6.29-18.75.73-7.93,9.31-17.13,17.19-28.06,22.81-4.48,2.3-13.41-.26-17.02-4.41-2.99-3.43-2.76-10.24-.1-14.95,4.6-8.11,12.66-13.61,16.88-22.37-2.8-1.74-4.83.15-6.88.9-7.68,2.83-12.32.53-13.17-7.51-.6-5.66-1.61-11.14-2.87-16.67-2.05-9.07,10.01-18.93,19.26-14.35,10.55,5.22,15.68,2.13,20.25-7.05,1.91-3.83,6.66-3.33,10.13-4.75,2.57-1.05,3.67-1.46,2.17-5.05-3.55-8.48-6.87-17.12-5.89-26.85,1.4-14.02-3.28-27.17-7.13-40.35-1.42-4.84-6.49-5.11-10.2-6.69-4.12-1.76-4.25-3.35-1.31-6.33,3.38-3.43,6.01-5.95,12.15-5.12,8.59,1.16,18.48,2.44,24.89-6.65.92-1.31,2.32-2.46,2.77-3.9,2.54-8.19,8.34-13.64,14.93-18.53,10.5-7.79,17.13-17.39,18.46-31.15,1.49-15.34,7.52-29.74,12.72-44.22.42-1.16,2.2-2.54.49-3.68-1.27-.85-3.02-.96-4.32.61-3.46,4.18-7.87,1.34-11.81,1.33-2.52,0-1.44-2.44-1.18-3.83.68-3.68,1.56-7.31,2.49-11.55-5.01,3-7.2,6.82-7.62,11.76-.31,3.61-1.94,4.55-5.68,3.78-17.48-3.62-19.16-6.77-14.77-22.12,2.04-7.13,3.31-14.46,5.7-21.53-3.87,4.12-5.01,9.51-7.19,14.38-4.52,10.09-12.23,17.63-20.47,24.42-4.84,3.99-7.51,8.09-6.86,14.27.44,4.16-1.37,5.52-5.32,4.43-1.36-.38-3.19-.15-4.08-.97-7.37-6.84-17.09-10.08-24.88-15.83-9.63-7.11-17.51-16.68-25.24-26.1-6.33-7.72-14.04-12.66-24.98-12.61-8.11.04-14.47-5.89-20.28-11.14-4.16-3.76-7.29-8.64-10.95-12.96-1.39-1.64-1.89-3.48-2.11-5.55-.34-3.3.59-4.96,3.89-2.93,4.39,2.71,8.24,1.42,12.47-.54,17.93-8.32,25.95-26.24,21.26-45.72-3.3-13.72-8.91-26.26-15.47-38.62-4.87-9.17-1.28-20.6,7.47-26.19,2.92-1.86,3.32-4.74,4.55-7.49,5.94-13.28-1.65-21.88-10.41-29.62-9.03-7.98-10.68-19.04-13.87-29.54-.21-.69.14-1.61.4-2.36,3.49-9.94,21.03-20.32,31.6-19.15,4.99.55,10.13.56,15.14.1,9.62-.9,12.73-8.34,14.57-16.23,3.21-13.68,7.24-26.89,17.32-37.33,1.58-1.63.6-2.93-.26-4.3-2.13-3.44-4.25-6.89-6.43-10.29-5.15-8.05-4.53-14.51,2.44-20.57,4.66-4.05,8.06-8.36,9.77-14.71,1.9-7.01,8.97-10.3,15.04-13.18,6.48-3.08,11.49-7.24,15.54-13.01,3.13-4.47,6.57-8.73,10.05-12.94,11.86-14.34,17.57-30.63,15.92-49.32-.2-2.21.01-4.45-.11-6.67-.14-2.62,1.55-2.74,3.52-2.64-5.66-5.59-6.7-12.31-3.1-19.5,5.35-10.7,3.82-16.6-6-23.51-4.31-3.03-6.92-6.71-4.41-12.29.65-1.45.85-3.11,1.23-4.68,2.12-8.78,6.4-12.21,15.2-10.52,5.69,1.09,10.24.2,14.65-3.26,1.4-1.1,3.17-1.79,4.84-2.49,5.87-2.46,12.04-4.13,15.39-10.62,1.65-3.2,5.44-4.9,8.9-6.01,7.9-2.54,14.69-7.41,23.78-7.83,6.7-.31,13.17-5.5,19.75-8.51,1.47-.67,2.96-1.91,4.42-1.89,11.97.18,23.47-4.44,35.51-3.35,6.53.59,17.89-7.39,19.23-13.71.54-2.54,1.54-4.46,3.59-6.02,4.65-3.56,9.1-7.41,13.86-10.82,7.31-5.23,13.82-10.86,17.29-19.65,2.71-6.86,4.32-6.45,11.21-3.76,9.2,3.58,14.1,11.07,19.26,18.55,6.47,9.36,16.18,14.41,26.16,18.65,7.84,3.34,14.91,6.02,19.27,14.8,3.73,7.49,12.76,10.32,20.92,12.16,6.56,1.48,11.2,3.77,15.21,10.08,3.65,5.74,10.7,9.63,16.86,13.35,3.6,2.17,7.56,3.7,10.58,6.81,1.13,1.16,2.38,2.47,4.09,2.41,8.92-.31,17.72,2.93,26.86-.8,6.35-2.59,13.67-5.4,20.16,1.4,3.22,3.37,4.28,5.83.09,8.76-2.92,2.05-1.99,2.91.28,5.29,6.55,6.88,15.02,10.78,22.66,15.92,6.53,4.39,7.78,7.28,5.96,15.09-1.92,8.24,2.84,20.94,8.9,23.6,1.08.47,2.65,1.39,3.31.99,5.95-3.64,11.31-.74,16.79,1.16,5.31,1.85,10.38.38,15.46-1.08,9.01-2.59,12.09-1.34,15.54,7.06,1.48,3.6,3.59,5.64,7.49,5.9,7.14.48,13.87,2.56,20.48,5.23,9.21,3.72,17.72,1.4,25.88-3.41.97-.57,2.42-1.04,3.41-.75,6.32,1.85,13.12,1.8,19.12,4.87.89.46,2.07,1.63,2.58,1.38,6.29-3.07,12.79-2.87,19.45-1.77,1.07.18,2.44-1.11,3.43-.84,7.46,2.06,6.47-2.94,6.38-7.34-.06-2.83.03-5.67.07-8.5.04-3.7,1.68-6.53,4.55-8.83,5.89-4.73,16.85-4.93,22.84-.22,3.43,2.69,7.43,3.11,11.48,2.95,4.16-.16,7.59.45,9.3,4.85.83,2.13,2.59,2.92,4.88,2.75,6.61-.47,11.22,2.94,14.61,8.11,7,10.66,14.5,20.54,24.94,28.51,7.51,5.73,14.73,9.19,23.82,7.52,8.48-1.56,15.47.69,20.34,7.48,9.04,12.62,22.39,15.55,36.39,17.62,1.99.29,5.4-.45,5.4,3.34,0,3.28-1.03,5.88-4.8,6.67-8.26,1.72-16.26,4.18-24.55-.89-6.34-3.89-13.87-1.39-20.87-1.72-2.22-.11-2.38,1.78-2.38,3.47,0,4.65-.23,9.33.08,13.96.33,4.86,10.54,12.5,16.23,12.49,11.53-.02,11.45.01,15.47,10.68,1.43,3.81,4.13,6.17,8.05,8.13,6.43,3.23,12.24,7.73,18.16,11.92.98.7,1.96,2.74,1.63,3.73-1.9,5.68,5.41,13.66-4.27,17.39-.32.12-.58,1.06-.47,1.51,2.46,9.24,1.08,19.65,8.47,27.46.84.89.46,3.1.37,4.68-.31,5.99-2.03,12.22,4.26,16.95-.39.42-.77.83-1.16,1.25Zm-446.51,46.87s0,.05,0,.07c-5.05-.34-10.1-.58-15.14-1.04-3.27-.3-4.98.86-3.44,4.04,3.08,6.36,1.1,11.83-2.69,16.86-2.2,2.92-.79,3.69,1.25,5.9,4.46,4.85,12.24,7.27,12.88,14.97.52,6.25,5.32,10.37,6.68,16.1.53,2.24,2.55,1.29,4.09.96,9.06-1.96,12.96.45,15.05,9.43.35,1.52-.18,3.46,1.96,3.94,4.54,1.01,5.3,4.58,5.57,8.3,1.02,14.38,6.78,26.08,18.75,34.54,2.33,1.65,4.43,3.54,7.33,4.05,14.91,2.65,28.3,9.54,42.14,15.15,3.3,1.34,6.52,2.95,9.28,5.55,6.44,6.07,12.79,12.25,20.32,17.1,5.74,3.69,12.19,7.18,16.23,12.39,5.66,7.28,8.6,16.54,14.2,24.03,2.91,3.9,5.76,8.76,11.68,8.22,6.31-.58,12.81,1.75,19.03-2.07,2.23-1.37,6-.53,8.1,2.42.81,1.14,1.62,2.94,3.05,2.7,8.16-1.34,16.72,1.11,24.45-4.67,26.42-19.77,51.97-40.62,77.39-61.63,2.8-2.31,5.71-4.59,8.04-7.34,22.35-26.41,44.57-52.93,66.86-79.39,2.21-2.63,4.78-4.97,6.93-7.64,1.78-2.2,2.03-5.14.83-7.46-1.15-2.24-3.53-.81-5.45-.36-4.72,1.1-14.39-4.67-15.67-9.6-1.19-4.55-3.74-7.44-8.49-6.83-4.24.54-6.72.06-8.68-4.46-1.14-2.63-4.76-5.09-8.68-3.26-1.57.73-2.66-.09-3.99-.5-7.34-2.27-14.89-3.99-22.04-6.75-11.62-4.49-23.01-3.03-34.45.14-6.87,1.91-12.57.1-16.98-5.84-.74-1-1.66-2.34-2.85-1.88-7.15,2.74-11.67-2.55-17.05-5.3-4.22-2.15-6.17-5.35-6.09-10.22.05-3.18,1.07-5.87,2.16-8.71.84-2.19,2.04-6.02-.74-6.33-5.9-.65-11-4.8-17.39-3.26-8.26,2-15.87,6.34-24.47,6.9-3.76.24-5.17,1.89-5.68,5.46-.86,5.93-5.4,8.2-9.75,4.26-4.42-4.01-7.95-8.2-14.84-7.04-2.18.37-3.27-3.56-6.6-3.37-15.43.89-30.75,2.79-46.04,4.83-12.34,1.65-24.52,4.18-36.7,6.85-6.69,1.47-13.49,2.31-19.98,4.7-5.88,2.17-11.84,4.13-17.78,6.15-2.06.7-4.31,2.04-5.42-1.31-.83-2.53-2.78-3.73-5.16-3-2.3.71-2.97,3.09-3.16,5.33-.14,1.6,0,3.25.22,4.84.49,3.64-1.22,4.63-4.56,4.27-4.83-.52-9.68-.82-14.52-1.22Zm-80.12,205.26c1.11,1.53,2.95.94,4.41,1.47,3.48,1.24,6.87,2.49,6.93,7.22.06,4.5-2.28,6-6.34,7.24-5.2,1.59-10.79.76-15.79,3.38-5.83,3.06-8.61,8.52-6.17,13.26,3.73,7.24,3.14,10.62-3.22,15.94-3.01,2.52-4.63,5.55-4.76,9.4-.11,3.23,0,6.48-.17,9.71-.52,9.59-4.63,15.85-12.44,17.1-6.67,1.07-10.57,4.53-12.73,10.51-2.25,6.22-5.69,10.91-12.93,11.8-1.84.23-3.7,1.63-5.22,2.88-1.83,1.51-5.48,2.01-4.23,5.67,1.12,3.26,3.83,4.35,7.13,4.66,7.69.73,11.41,5.68,10.35,13.43-.44,3.2-.83,6.42-1.13,9.64-.15,1.55-.71,3.45,1.18,4.33,4.75,2.22,8.22,7.57,14.57,5.91,1.49-.39,2.64.62,3.85,1.41,5.16,3.34,9.23,2.46,12.37-2.97,2.69-4.66,5.57-5.08,9.67-1.65,2.42,2.03,5.44,3.57,6.62-1.48.6-2.6,2.61-2.02,4.38-1.9,6.05.42,12.09,1.11,18.15,1.25,8.75.2,8.75.03,8.83-8.64.07-7.35,3.76-11.65,10.09-11.76,5.59-.09,8.46,3.84,8.44,11.54,0,.4-.07.81-.04,1.21.7,8.47,7.77-.46,10.46,3.79.89,1.41,2.9-.33,3.43-2.04.21-.68.25-1.99-.1-2.19-3.77-2.15-3.39-6.92-5.94-9.56-7.33-7.57-5.45-13.02,4.3-18.47,4.86-2.72,7.42-5.81,6.54-11.44-.52-3.33.37-5.65,4.45-5.03,3.77.57,5.43-1.69,7.63-4.45,8.65-10.83,16.94-21.87,31.12-26.8,47.18-16.39,94.6-32.11,141.35-49.73,11.29-4.25,22.75-8.05,34.13-12.05-2.89-.73-5.59-.67-7.38-3.51-2.49-3.95-5.38-3.51-8.37-.32-1.1,1.17-2.35,3.59-4.3,1.29-2.2-2.59-4.6-1.63-7.19-1.2-8.44,1.41-16.51-2.16-19.59-8.68-3.06-6.48-9.08-11.02-10.52-18.54-.87-4.54-4.69-7.93-9.06-10.79-10.63-6.95-20.74-14.76-30.04-23.43-3.37-3.14-6.96-5.51-11-7.21-9.88-4.15-19.61-9.69-29.95-11.48-13.56-2.35-22.3-10.46-31.1-19.39-.57-.58-1.15-1.14-1.77-1.66-1.92-1.64-2.11-3.83-2.83-6.14-2.49-8.02,1.71-18.8-9.2-23.57-1.39-.61-.99-2.49-1.2-3.88-1.23-8.42-3.95-10.21-12.09-8.17-2.24.56-5.42,2.12-6.24-1.13-1.33-5.24-5.82-9.2-6.36-14.26-.86-8.07-7.18-11.55-11.68-16.62-1.39-1.56-2.73-1.86-4.47.07-5.71,6.34-13.33,9.15-21.52,9.51-5.56.25-7.21,2.01-6.68,7.45.71,7.31-1.7,13.11-8.89,16.8-8.26,4.24-8.84,8.58-3.54,16.21,3.33,4.81,4.28,9.85.61,15.11-3,4.3-5.34,9.09-9.65,12.36-1.7,1.29-2.43,2.43.02,4.07,6.14,4.12,6.07,4.23,6.1,11.9,0,.4-.03.83.07,1.21,1.65,6.09-1.22,9.18-6.94,9.99-4.52.64-3.95,2.29-2.03,5.51,2.61,4.38,3.93,8.61-.54,13.53-2.46,2.71-2.53,7.59-5.78,10.5-.79.71.22,2.07,1.01,2.53,8.03,4.62,6.67,12.97,7.17,19.99.46,6.51.57,13.63-4.2,19.35Zm224.45-247.46c1.97,10.24,11.78,7.84,17.89,10.32,4.49,1.82,9.1,2.52,12.35,6.59,1.18,1.48,2.74,2.6,4.72,2.19,2.43-.51,1.84-2.78,2.2-4.45.52-2.44-.12-5.73,3.73-5.89,8.66-.36,16.74-3.15,24.5-6.51,8.58-3.71,15.96,1.52,23.9,2.26,2.2.21,3.14,3.45,2.94,6.07-.19,2.44-.97,4.69-1.88,6.98-1.46,3.64-2.57,8.3.96,10.62,5.08,3.34,9.58,9.16,17.12,6.83,2.45-.76,4.2.54,5.68,2.47,4.71,6.14,8.16,6.81,15.98,4.93,10.83-2.6,21.7-4.37,32.73-.07,6.76,2.63,13.89,4.32,20.87,6.39,1.34.4,2.96,1.19,4.07.78,6.17-2.25,10.07,1.73,13.62,5.27,1.89,1.89,3.24,2.85,5.91,2.83,5.67-.03,9.37,2.74,10.99,8.43,1.32,4.63,8.52,8.57,13.38,7.58,4.76-.96,9.27-1.7,8.88,7.33,4.97-9.51,9.58-16.75,11.73-25.37,3.88-15.5,8.77-30.73,14.23-45.75,2.05-5.65,5.18-10.85,4.38-17.32-.37-3,4.97-5.83,6.87-3.65,5.6,6.44,12.41,2.26,19.19,3.74-1.87-4.95-1.11-9.17-1.09-13.36,0-1.59.3-3.44-.39-4.72-5.06-9.37-6.54-14.88-7.11-25.35-.12-2.31-1.34-4.59-4.1-5.52-2.87-.96-5.86-1.89-8.39-3.48-7.39-4.65-15.24-6.82-24.04-6.51-3.92.14-7.26-1.45-9.67-5.78-2.58-4.63-6.9-8.05-13.04-8.79-5.26-.64-10.48-1.02-15.71-.79-5.3.23-10.19.43-14.47-3.86-2.21-2.21-5.9-2.47-9.15-2.77-1.4-.13-3.21-.37-3.37,1.57-.36,4.42-1.48,8.99-.17,13.27,2.72,8.93,2.92,8.97-6.6,7.37-3.21-.54-5.88-.74-8.67-4.46-3.21-4.27-7.77-7.66-10-12.97-.75-1.79-2.84-1.23-4.38-1.2-7.89.17-15.77.53-23.66.61-2.72.03-4.43,1.26-6.21,3.09-6.99,7.18-8.16,7.32-17.45,3.56-2.24-.91-4.57-1.7-6.94-2.17-4.04-.8-6.81-2.92-8.89-6.52-2.4-4.15-5.53-6.84-11.2-6.64-2.89.1-7.21,2.41-9.41-1.61-2.75-5.03-7.64-6.86-12.22-9.34-2.3-1.25-4.47-2.79-5.79-5.21-3.02-5.55-7.19-10.18-11.34-14.91-3.69-4.2-7.27-8.49-10.15-13.48-5.73-9.93-10.4-10.81-20.41-5.32-2.16,1.18-4.51,2.76-6.83,1.81-9.03-3.7-19.13-2.39-28.12-6.21-2.03-.86-4.23-3.13-6.61-1.1-2.45,2.09-2.09,5.02-1.57,7.9.93,5.14,3.22,10.05,2.68,15.46-.27,2.69-.1,5.22,2.61,6.91,2.47,1.53,1.47,3.44-.49,3.98-11.11,3.07-12.02,14.38-16.82,22.02-3.54,5.63-8.58,7.39-13.11,9.97-5.65,3.23-10.89-1.42-15.63-4.6-1.34-.9-2.23-2.25-4.14-1.83-2.23.49-2.16,2.24-2.01,3.8.31,3.21-1.15,4.3-4.19,4.29-1.35,0-3.59,1.48-2.48,2.33,2.9,2.24,2.53,7.15,6.87,7.94,6.58,1.2,7.59,6.64,8.58,11.8.89,4.65,6.75,9.75-.94,13.96-2.07,1.13-1.06,3-.6,4.83,1.34,5.32.53,10.38-2.78,14.86-1.64,2.22-5.09,4.72-3.51,7.02,1.74,2.54,5.95,1.71,9.08,1.2,2.36-.39,4.69-1.43,5.94-3.8,1.12-2.13,2.86-3.13,5.21-3.68,13.59-3.19,25.77-8.73,34.27-20.54,1.99-2.76,4.67-5.03,7.05-7.52,2.99-3.14,6.97-2.49,10.24-1.55,3.18.92,1.15,4.55,1.58,6.95.45,2.52-1,4.17-2.77,5.67-2.77,2.36-5.58,4.69-8.21,7.2-3.59,3.43-2.87,4.96,1.21,7.61,5.63,3.66,11.69,4,17.97,4.13,1.76.04,3.9-.19,4.06,2.48.12,1.98.54,4.11-1.83,5.29-1.04.52-2.38.73-2.7,2.09,1.1,3.33,7.36,4.23,5.77,7.28-1.79,3.43-6.86,4.41-10.7,4.68ZM155.01,177.57c.96,19.28-4.11,36.42-16.04,51.53-4.39,5.56-8.95,10.99-13.06,16.75-3.53,4.94-7.93,8.29-13.44,10.87-5.98,2.8-13.39,5.77-14.95,12.38-1.83,7.73-6.52,12.31-11.91,16.78-2.87,2.38-3.48,4.96-3.34,8.44.24,5.75,4.06,9.63,6.89,13.92,3.47,5.27,7.35,9.99-.74,14.5-.78.43-1.15,1.63-1.68,2.49-5.64,9.19-9.61,19-11.85,29.59-1.89,8.9-5.04,17.28-15.47,19.45-5.58,1.16-11.31.94-16.92.37-10.19-1.02-25.31,7.4-29.1,16.58-.67,1.63-.22,3.18.33,4.72,3.51,9.78,6.15,19.44,15.06,26.89,8.67,7.24,14.75,17.26,8.47,29.84-1.39,2.79-.75,6.75-4.33,8.23-6.53,2.69-7.78,8.72-9.7,14.44-1.58,4.71,1.19,8.31,3.17,11.9,1.56,2.82,4.4.04,6.67.28,2.2.24,4.45.14,6.67.05,6.33-.24,12.62.95,18.97-1.79,3.28-1.42,8.33-1.34,10.04,3.88.69,2.11,2.18,2.13,3.79,2.12,5.04-.04,10.16.6,15.07-1.04,3.88-1.29,7.45-1.73,10.47,1.85.75.89,2.1,1.85,3.15.7,3.25-3.57,6.22-1.25,9.71-.37,3.27.82,7.36-.85,9.38-3.26,2.12-2.53-1.62-4.31-3.29-6.17-2.13-2.38-4.89-4.26-5.86-7.58-.8-2.72-.53-4.5,2.9-3.86,3.99.75,7.56-.22,11.06-2.09,2.14-1.14,2.72-2.3.91-4.13-4.19-4.23-3.04-8.96-.93-13.5,2.49-5.35,9.3-8.72,7.38-16.17-.07-.26,1.29-.78,1.83-1.33,4.33-4.42,12.04-4.24,14.9-10.38,2.27-4.86,9.55-5.55,9.49-12.11-.05-4.88,2.86-6.32,7.13-5.55,1.22.22,2.23.47,3.47.05,8.52-2.85,11.37-11.58,17.1-17.26,2.06-2.04,2.88-6.31,6.35-8.31,1.03-.6,1.98-2.35,1.97-3.57,0-4.12,2.86-7.06,3.92-10.72.93-3.21,3.34-3.17,5.82-2.07,10.01,4.46,17.6-.75,16.64-11.48-.07-.81-.16-1.61-.16-2.42-.02-5.62-.01-11.25,7.5-12.21,1.45-.18,1.54-.93,1.3-2.04-1.1-5.08,1.78-7.73,5.71-10.18,4-2.49,4.39-7.2,1.11-11.16-1.29-1.56,0-2.02.51-2.9,1.22-2.09,2.56-4.11,3.67-6.26,2.32-4.48,3.42-10.53,7.04-13.17,4.99-3.63,4.39-7.41,4-11.96-.3-3.43-.55-6.86-.74-10.29-.73-13.67-.72-13.63-14.39-14.51-4.22-.27-9.68-.09-11.66-3.82-5.95-11.2-7.59-23.55-4.52-35.87,1.73-6.95.96-9.44-6.3-10.06-8.64-.73-11.42-5.35-7.75-12.8.62-1.26,1.02-2.64,1.61-3.92.73-1.59,1.3-3.46-.68-4.16-5.33-1.89-5.56-5.29-4.18-10.09.89-3.08-.68-5.98-4.02-7.11-3.93-1.34-4.71,1.63-5.7,4.4-2.6,7.24-5.19,9.18-13,8.86-4.13-.17-6.65.76-8.55,4.85-2.56,5.53-8.6,5.69-12.04.56-1.98-2.96-3.27-6.38-4.87-9.6Zm694.46,81.73c0-2.63.2-5.28-.05-7.89-.39-4.08.9-5.78,5.32-5.65,9.65.28,19.45-1.07,28.32,4.45,2.27,1.41,5.39,1.81,6.92-1.1,1.59-3.03,2.39-2.43,4.57-.5,1.7,1.51,4.23.21,6.2-.82.4-.21.78-1.08.68-1.54-.48-2.11-2.47-1.83-3.91-2.05-14.7-2.22-28.51-5.94-37.71-19.17-3.36-4.83-8.33-6.28-14.38-5.73-7.57.68-15.56,1.86-22.24-3.28-6.09-4.68-11.83-9.79-17.74-14.7-6.09-5.05-8.6-12.65-13.29-18.72-3.6-4.66-7.56-7.76-13.73-7.19-1.6.15-3.77.38-4.39-1.28-2.56-6.88-8.31-6.44-13.98-6.74-3.25-.17-6.16-1.46-8.67-3.84-5.35-5.06-11.26-1.72-16.59-.13-4.63,1.38-5.53,5.86-5.29,10.5.23,4.64.02,9.31.05,13.96.01,2.02-.1,3.86-2.93,2.91-3.98-1.33-7.77-1.34-11.63.73-1.28.69-3.47.8-4.6-.49-2.61-2.98-5.05-1.66-7.49-.05-3.45,2.28-6.42,2.07-9.97-.35-4.74-3.23-11.06-1.86-16.15-4.58-.61-.33-2.06.21-2.72.79-5.66,5.04-13.02,4.76-19.55,4.91-10.53.24-19.76-6.92-30.49-7.14-4.67-.1-7.01-2.89-8.59-7.15-2.55-6.85-4.51-7.68-11.51-5.58-7.37,2.22-14.55,2.95-21.88-.41-2.43-1.12-5.33-2.08-8.18-.62-4.77,2.46-14.47-1.33-15.71-6.61-1.83-7.75-5.08-15.44-2.18-23.7,1.04-2.97-.82-5.7-2.92-6.77-6.34-3.25-10.61-11.55-20.46-6.88-3.83,1.82-6.86,3.02-7.68,6.97-.99,4.76-3.42,8.53-6.34,12.22-5.95,7.51-13.05,14.38-13.95,24.81-.14,1.68-1.07,4.05-2.37,4.74-4.46,2.39-4.45,6.34-4.44,10.38,0,4.35-1.61,7.32-6.11,8.49-1.51.39-2.82,1.54-4.26,2.27-2.81,1.43-2.72,2.96-.47,4.97,4.08,3.65,7.09,8.01,9.78,12.88,1.48,2.68,2.28,8.17,7.46,7.17,5.75-1.11,7.59,1.37,7.52,6.57-.02,1.81.29,3.63.4,5.45.14,2.26,1.09,2.42,3.42,3.19,6.34,2.09,12.97.2,18.92,2.1,8.94,2.85,13.33-3.62,18.57-7.97,3.04-2.53,7.64-4.44,8.52-1.83,1.17,3.48,9.43,5.58,3.27,11.05-2,1.78-1.88,3.5.42,4.84,6.69,3.91,11.31,3.16,16.44-2.79,1.58-1.82,2.89-3.89,4.17-5.95.91-1.47,1.88-3.08,3.74-1.99,8.27,4.84,17.93,4.1,26.65,6.88,5.37,1.71,9.82,2.17,14.87-1.1,5.77-3.72,13.17-3.88,18.74,3.39,4.03,5.27,7.02,11.26,11.75,16.04,3.39,3.44,6.86,7.01,9.31,11.11,3.58,5.98,7.94,10.62,14.6,12.93,1.96.68,3.59,1.84,4.45,3.86,1.33,3.14,3.76,3.79,6.93,3.39,7.69-.98,13.33,2.16,16.82,9.03,1.23,2.42,3.23,3.43,5.64,4.14,2.91.85,6.09,1.32,8.6,2.86,5.51,3.39,9.48,1.6,13.27-2.69,2.12-2.4,4.16-4.68,8.03-4.64,8.9.11,17.8-.25,26.71-.44,1.63-.03,3.74-.35,4.21,1.51,1.77,7.07,8.26,10.27,12.25,15.49,1.6,2.1,4.1,1.81,6.16,1.61,3.11-.31,1.05-2.88,1.2-4.35.3-3.01.07-6.06.16-9.1.27-8.72,1.94-10.08,10.5-8.22,2.54.55,5.57,1,7.3,2.63,3.51,3.34,7.39,3.6,11.72,3.36,3.23-.18,6.48-.18,9.71,0,8.44.47,17,1.64,21.75,9.56,3.62,6.04,8.72,6.3,14.45,6.26,2.63-.01,5.26.02,7.89.04,1.4.01,2.81-.18,3.75,1.34,3.56,5.77,10.14,6.23,15.61,8.21,4.86,1.76,7.41-1.38,6.12-6.3-.52-1.99-.82-3.88.02-5.91.81-1.97-.25-3.48-1.79-4.7-4.63-3.7-10.12-6.51-15.04-9.31-6.49-3.7-9.8-7.98-11.85-14.43-1.23-3.87-3.7-5.65-8.19-5.43-13.97.69-22.47-7.94-22.41-22.21Zm-609.17-30.28c9.34,4.52,10.85-9.08,18.8-9.19.11,0,.35-1.13.28-1.71-.56-4.67,2.33-7.92,4.49-11.56,2.2-3.71,4.81-7.25-.5-11.39-3.74-2.92-1.5-9,3.12-10.63,2.4-.85,4.14-2.43,4.9-4.95,2.23-7.34,4.31-9.17,11.33-6.71,10.21,3.58,20.37.56,30.51,1.17,1.09.06,2.42-.47,3.32-1.15,4.25-3.26,8.85-3.73,14.16-3.52,6.58.26,13.82,2.95,19.26-4.6,2.7-3.75,10.74-2.2,14.19,1.7,2.07,2.34,4.86,3.31,7,1.71,6.95-5.22,13.56-11.4,16.51-19.5,1.65-4.54,2.92-5.79,7.38-5.88,6.4-.13,12.87-5.53,13.36-11.19.53-6.14-3.66-9.75-8.92-11.41-4.83-1.53-3.66-4.99-3.88-8.26-.26-3.92.44-7.13,4.61-8.87,1.54-.64,4.64.55,4.38-2.84-.21-2.7-1.83-4.28-4.36-5.21-7.31-2.68-8.7-9.72-10.62-15.85-1.29-4.1-.42-8.83-.92-13.23-.42-3.62.58-5.84,3.81-7.87,5.42-3.41,3.99-13.81-1.34-17.03-10.09-6.1-21.18-11.12-27.13-22.4-3.29-6.23-8.3-10.61-14.81-13.71-4.21-2-6.75-2.15-8.29,2.57-2.95,9-9.83,14.51-17.14,19.74-4.6,3.29-8.94,6.94-13.4,10.42-1.8,1.4-3.02,2.99-3.55,5.38-1.7,7.73-14.52,15.93-22.4,16.06-14.02.24-27.96,1.25-41.51,5.91-6.89,2.37-12.38,8.12-19.91,8.36-10.61.34-20.49,4.66-27.08,11.46-6.11,6.31-13.2,9.12-20.1,13.26-6.48,3.88-12.5,6.75-20.3,4.63-5.19-1.41-8.89,1.75-9.78,6.6-.97,5.29-5.83,11.03,2.2,15.92,10.43,6.34,11.94,13.25,7.15,24.59-.31.74-.64,1.49-.99,2.22-3.13,6.51-2.44,10.27,3.15,14.87,1.35,1.11,1.83,2.22,1.28,3.61-2.01,5.09,1.16,9.04,2.99,13.13,2.23,4.98,5.38,4.95,8.14.17,1.8-3.13,3.8-6.18,7.86-5.38,8.11,1.59,11.89-2.85,13.93-9.58,1.04-3.43,2.93-4.31,6.24-3.96,6.16.66,10.01,5.67,8.64,11.8-.45,2-1.3,3.64.98,5.3,6.11,4.48,6.37,6.26,2.52,12.39-3.37,5.37-2.31,7.81,3.96,8.9,1.38.24,2.83.16,4.24.08,5.13-.3,5.84,5.54,9.75,7.21.76.33-2.08,3.43-3.25,5.26-3.98,6.22-2.95,9.39,3.74,11.74,3.69,1.3,7.43,1.86,12.02,1.41Zm-39.79,411.15c-3.97,2.86-7.36,4.29-8.75,7.97-6.82,18.04-11.93,36.51-14.86,55.58-.17,1.13-1.01,2.79.71,2.98,4.67.5,9.49,2.23,14.02-.5,7.62-4.58,10.64-12.74,14.29-20.01,9.51-18.95,15.22-40.16,33.37-53.73,2.39-1.79,2.1-4.53,1.42-6.68-1.05-3.34-2.8.13-4.27.07-3.6-.15-6.1-2.01-7.67-5.06-1.65-3.19,1.78-3.49,3.14-4.87,3.92-3.96,9.08-6.79,10.61-12.84,2.39-9.48,2.49-9.45,12.29-9.31.59,0,1.36.1,1.76-.21,7.48-5.9,16.43-4.47,24.95-4.97,2.72-.16,3.85-1.61,5.02-3.62,3.38-5.85,5.09-12.37,7.54-18.59.46-1.17,2.22-2.55.25-3.52-1.4-.69-2.95-.24-4.11,1.47-3.31,4.86-5.34,4.27-9.09-.44-2.18-2.74-3.93-9.11-9.98-4.44-1.14.88-2.24-.39-3.15-1.12-2.71-2.16-5.29-4.48-6.64-7.76-4.02-9.78-11.59-16.46-19.77-22.51-8.75-6.47-14.67-6.47-23.99-.26-2.56,1.71-5.57,1.91-7.36.36-5.21-4.52-11.04-8.35-13.1-16.01-1.26-4.68-2.49-10.79-8.54-12.57-5.95-1.75-13.61-11.48-11.86-17.58,2.14-7.43.41-14.45-.17-21.56-.81-9.82,1.43-17.96,9.58-24.06,5.62-4.21,8.67-10.01,9.73-16.9.69-4.51,2.44-8.41,5.64-11.82,6.67-7.1,15.19-11.29,23.69-15.51,2.37-1.18,5.03-1.64,5.33-4.97.14-1.58,1.23-2.25,2.77-2.73,3.86-1.21,4.32-4.01,3.71-7.72-.45-2.74-2.7-4.93-1.87-8.04,1.91-7.15,1.83-7.05-5.78-6.51-2.58.18-4.52,1.33-6.66,2.49-4.86,2.62-9.44,7.45-15.45,5.2-5.47-2.04-7.22.47-8.25,4.74-1.16,4.81-2.41,9.36-7.47,11.72-.75.35-1.15,2.1-1.18,3.22-.11,3.14-.78,5.51-4.61,5.65-1.23.04-1.86,1.23-2.42,2.42-3.64,7.81-9.31,12.74-18.43,12.51-1.34-.03-2.83.21-2.68,1.66.91,8.63-7.6,10.34-11.39,15.48-2.07,2.81-4.29,6.57-7.84,7.28-5.85,1.16-7.65,4.55-7.86,9.85-.07,1.83.43,3.86-2.09,5.15-6.96,3.57-7.95,8.48-3.4,15.31,2.06,3.08,2.02,5.54-1.66,7.37-3.93,1.95-7.85,3.84-12.75,3.53,1.74,3.7,4.61,5.62,7.03,7.98,2.86,2.79,2.56,9.77-.42,10.27-4.88.83-9.58,5.53-14.88,1-.42-.36-1.85-.29-2.19.11-3.63,4.18-6.64,2.2-9.64-.78-1.07-1.06-2.35-1.27-3.89-1.15-12.24,1-12.78,1.55-12.57,13.83.03,1.62-.09,3.3.3,4.84,2.28,9.05,3.55,18.44,15.86,20.32,6.29.96,12.17,4.59,13.6,12.06.56,2.9,2.86,3.2,5.05,3.42,4.51.46,6.22,3.05,6.07,7.3-.17,4.6.65,8.83,4.44,11.99,1.86,1.55,1.73,3.4.77,5.45-1.03,2.19-2.49,4.42-2.69,6.73-.94,11.23-8.32,14.72-18.04,15.75-2.21.23-4.39.94-6.59.98-3.8.07-6.43,1.66-8.44,4.87-3.1,4.92-7.03,8.58-13.23,9.7-4.48.81-6.96,5.14-8.77,8.68-1.53,3.01,2.82,4.77,4.68,6.93,2.63,3.06,5.6,5.84,8.55,8.6,2.77,2.6,4.69,6.85,8.52,7.46,7.53,1.19,12.95,5.13,17.6,10.72.62.74,1.56,1.3,2.47,1.69,3.85,1.66,6.63,1.76,6.34-3.86-.16-3.09-.58-6.32,2.69-8.77,13.72-10.29,24.57-22.87,29.61-39.61,2.79-9.26,10.6-10.12,18.22-12.52-1.38,6.09-7.36,7.83-9.37,12.04-4.55,9.5-6.19,20.04-8.38,30.32-.67,3.13.88,5.27,3.91,6.66,3.71,1.7,7.4,3.11,11.53,2.48.46-.07,1.08-1.33,1.05-2.01-.23-5.83,4.8-8.58,7.31-12.8,1.3-2.18,2.87-1.66,4.67-.96,1.87.72,2.33,2.02,1.86,3.86-.75,2.94-1.51,5.88-2.17,8.84-.41,1.81-.88,3.71,2.04,3.92,2.2.16,4.05.11,4.38-2.74.35-3.01.47-6.14,1.43-8.96.57-1.66-1.63-5.89,3.06-4.75,2.97.72,4.65,2.23,3.71,6.11-1.79,7.37-1.48,7.44,6.24,7.88.6.03,1.19.17,3.59.54Zm382.3-394.3c-4.85,6.32-10.24,5.19-16.35,3.13-5.86-1.98-7.65-3.44-5.59-9.65.86-2.6-.45-4.21-.78-6.24-.23-1.38-2.32-2.07-2.72-1.09-1.67,4.08-6.76,4.06-8.49,6.66-3.98,5.99-8.93,3.75-13.97,3.68-8.22-.11-16.39-2.44-25.13-.65-.46-4.56-.92-9.15-1.37-13.75-.12-1.23-.23-2.69-1.67-2.86-1.31-.15-3.25-.47-3.85,1.03-1.96,4.9-6.96,5.02-10.7,7.01-2.11,1.12-4.19,2.03-4.07,4.63.21,4.56-2.8,6.65-5.83,9.18-6.52,5.43-14.2,7.68-22.31,8.61-3.51.4-5.18,1.92-6.73,4.93-5.05,9.83-8.11,20.81-16.3,28.87-1.14,1.12-.93,2.42-.62,3.92,1.98,9.35-.19,17.58-7.26,24.18-2.86,2.67-4.5,5.93-4.43,9.61.09,4.96-2.71,6.2-6.75,6.66-7.96.91-9.04,3.51-5.24,10.6,3.27,6.09,7.32,13.88,3.01,19.35-4.56,5.78-.92,10.38-1.62,15.38-.16,1.15-.07,2.48,1.52,2.87,9.65,2.39,11.35,9.45,10.01,17.82-.86,5.35,1.29,6.94,6.14,6.45,2.41-.24,4.83-.41,7.25-.56,4.83-.3,8.7,1.18,10.91,5.85,1.47,3.11,3.47,6.1,3.7,9.56.21,3.19,1.71,4.02,4.53,4.18,8.08.47,16.18.82,24.2,1.79,5.18.62,7.17-.84,5.96-6.03-.76-3.28.26-6.47,3.01-7.76,3.09-1.45,7.68-1.53,9.61,1.28,2.58,3.77,4.87,2.47,7.62,1.4,19.07-7.43,39.12-10.65,59.08-14.54,8.21-1.6,16.42-2.01,24.55-3.25,6.59-1,13.05-2.25,19.75-2.17,1.82.02,4.57.91,5.29-1.45.66-2.15-2.03-2.47-3.38-3.54-2.03-1.61-2.08-4.29-2.56-6.62-.25-1.22.96-1.43,2.09-1.43,3.09,0,7.63,2.21,8.76-1.3.95-2.93-4.35-4.04-6.11-6.68-.11-.16-.15-.37-.23-.56,1.61-2.67,5.61-2.04,7.51-5.57-7.09-.91-13.79-.85-20.04-4.51-6.22-3.64-7.6-8.22-2.1-13.09,2.58-2.28,5.11-4.61,7.74-6.82,2.36-1.99,3.29-4.89,1.51-6.95-2.1-2.43-4.74-.82-6.69,1.32-4.77,5.23-9.59,10.41-14.35,15.65-1.64,1.81-3.24,3.44-5.84,4.03-7.85,1.79-13.93,8.42-22.51,8.38-.5,0-1.19.5-1.47.97-4.2,6.97-10.76,6.74-17.64,6.11-6.93-.64-7-.49-4.19-6.88.72-1.64,1.59-3.37,2.85-4.58,2.87-2.74,4.18-6.31,3.93-9.84-.37-5.37-3.12-10.95,3.43-14.61.22-.12.36-.88.2-1.11-3.88-5.61-.34-16.11-11.28-17.1-1.62-.15-2.05-1.85-2.55-3.13-.84-2.17-2.12-3.89-4.2-4.97-3.27-1.7-2.32-2.98-.19-5.32,2.09-2.29,6.61-1.66,6.81-5.88.09-2.01-.33-4.33,2.66-4.51,2.66-.16,5.73-2.13,7.8,1.06,2.2,3.38,5.98,2.78,8.91,4.16,4.37,2.06,6.7,1.17,8.67-2.78.19-.38,1.05-.51,1.62-.61,6.7-1.14,6.79-8.04,9.66-12.19,1.63-2.35,1.8-6.17,4.79-8.3,4.18-2.99,7.71-5.37,5.96-12.36-1.46-5.83-1.64-12.14-3.93-19.1ZM103.91,887.71c-.12,2.62-1.82,3.98-2.78,5.71-4.53,8.21-12.48,13.78-16.99,22.04-1.1,2.02-1.97,3.58-1.18,6.11,2.24,7.18,10.03,11.04,16.55,7.21,10.16-5.97,19.38-13.22,26.38-22.87,1.38-1.9,2.78-3.26,5.01-4.04,5.97-2.1,11.73-.82,15.6,3.45,5.75,6.34,12.07,10.46,20.69,11.03,2.85.19,5.16,1.51,7.03,4.1,8.82,12.26,15.44,13.76,28.87,6.95,9.58-4.85,11.32-4.41,17.96,4.38,2.46,3.25,4.91,6.7,9.89,5.11,2.46-.79,3.16.63,3.69,2.64.74,2.82.61,5.48-.16,8.33-.65,2.42-1.29,5.68,1.97,6.8,3.66,1.26,5.03,3.61,5.28,7.17.08,1.15.36,2.54,1.98,2.56,1.34.02,2.05-.68,2.51-2.08,1.2-3.69,3.39-6.88,5.9-9.79,3.16-3.68,5.09-7.87,4.96-12.69-.13-5.19,3.12-7.87,7.08-9.51,3.96-1.63,8.47-3.48,11.95,1.31.7.97,1.79,1.4,2.52.46,5.34-6.91,14.95-11.04,13.69-22.24-.65-5.8-.39-11.73-.17-17.58.15-4.04-.66-7.46-3.3-10.65-2.47-2.98-4.31-6.32-3.08-10.58,2.94-10.22,1.48-20.9,3.13-31.25,1.12-7.06-1.2-12.8-5.15-18.51-5.86-8.46-2.99-17.68,6.4-21.81,2.54-1.12,3.63-2.2.65-3.9-3.63-2.06-4.4-5.41-4.93-9.15-.42-2.97-1.07-6.03-2.3-8.73-1.82-4-4.42-5.71-8.97-2.59-6.43,4.41-8.92,3.32-11.92-3.99-1.25-3.05-1.98-6.24-1.53-9.47.8-5.82-2.63-7.58-7.37-7.79-5.4-.24-10.82-.06-16.63-.06,2.52,2.66,1.47,7.21,5.26,9.32,5.29,2.96,5.62,9.24.66,12.92-1.76,1.3-4.38,2.28-3.03,5.07,1.04,2.15,2.06,4.29,5.72,3.81,4.07-.53,12.39,11.21,11.29,15.09-.21.75-.59,1.74-1.19,2.07-6.65,3.57-5.93,9.73-5.96,15.83-.02,4.44-2.19,6.82-7.24,6.75-5.43-.08-10.84-2.67-16.17-.82-3.99,1.39-6.17-.57-8.25-3.08-3.29-3.95-9.16-4.26-12.51-.18-2.16,2.62-3.98,5.56-5.65,8.53-2.38,4.25-9.38,6-13.24,3.08-6.8-5.13-20.46-6.29-27.53-1.24-6.85,4.89-14.76,6.12-22.27,8.87-9.14,3.35-19.51,5.03-24.52,15.55-2.23,4.68-6.46,6.24-11.64,3.04-4-2.46-8.44-3.75-13.34-2.77-4.34.87-9.72,7.15-8.52,11.36,1.57,5.51,2.04,11.07,2.82,16.67.82,5.89,3.7,7.48,8.82,5.02,4.32-2.08,8.49-2.15,13.26-.99Zm191.15,15.12c3.96,11.74-2.45,21.45-12.38,29.79-.46.38-.85.88-1.16,1.39-2.04,3.39-4.62,2.63-7.22.87-6.97-4.73-13.66-1.95-13.94,6.6-.32,9.95-10.43,14.86-11.33,24.33-.22,2.29-3.05,1.37-4.6,2.11-1.11.53-1.29,1.43-1.08,2.5.74,3.76,1.2,7.62,2.34,11.26.8,2.55,2.76,4.59,5.94,4.15,4.17-.58,5.42,1.57,5.17,5.25-.16,2.43.98,3.98,3.32,4.23,4.36.47,6.23,3.53,7.42,7.04,1.56,4.64,4.53,5.49,9.21,5.6,8.64.2,17.6-2.64,25.92,2.9,3.45,2.3,7.87-.94,7.83-5.32-.03-3.71,1.73-6.42,3.18-9.53,2.14-4.57,7.18-7.12,7.96-12.6,2.32-16.28,6.83-20.84,23.32-24.71,2.49-.58,5.47-1.47,7.03-3.26,6.34-7.27,9.88-16.5,16.15-23.9.71-.84.31-2.75.2-4.15-.31-3.83-.69-7.65-1.12-11.47-.85-7.54-.26-14.55,6.67-19.43,2.59-1.83,2.95-4.5,2.97-7.5.04-4.62-.86-9.33.65-13.85,2.11-6.32,6.35-11.87,6.72-18.85.06-1.08.78-2.86,1.52-3.05,3.54-.92,3.84-3.81,4.41-6.52.57-2.69,1.84-4.89,3.84-6.7,14.64-13.27,21.4-29.84,21.1-49.52-.04-2.86-.07-4.45-3.67-4.46-6.66-.03-13.32-.64-19.98-.99-1.36-.07-3.37-.83-3.85.75-2.62,8.75-7.94,3.85-11.53,1.78-3.3-1.91-4.1-.66-5.57,1.59-3.92,6.02-10.05,7.31-16.12,3.36-1.49-.97-3.01-1.32-4.59-1.06-5.81.94-8.91-4.02-13.38-5.96-7.23-3.14-2.1-8.73-2.72-13.15-.25-1.72.48-3.58.73-5.38.72-5.23-2.13-7.8-6.77-8.93-1.75-.43-4.12.01-5.25-1.01-5.5-4.92-9.54-1.79-13.47,2.04-2.07,2.02-6.57,3.3-5.43,6.52,1.8,5.09.35,8.83-2.1,12.92-1.14,1.91-.94,4.23-.39,6.5,1.71,7.06-2.16,14.49-8.9,17.34-8.47,3.58-10.65,9.75-5.42,17.11,4.68,6.59,6.84,13.54,5.39,21.5-1.86,10.14,0,20.65-3.11,30.67-.54,1.74-.65,3.83.74,5.21,6.92,6.88,5.28,15.59,5.35,25.96ZM427.87,196.36c-7.92,6.58-9.78,6.44-15.25-1.59-2.33-3.43-5.15-4.9-9.18-4.35-16.19,2.21-32.3,3.82-48.73,1.11-7.22-1.19-14.91.85-22.36.68-7.29-.17-14.52-.53-19.53-7.86-2.19-3.2-7.36-6.97-10.47-6.43-7.83,1.35-14.71-1.08-21.95-2.39-2.83-.51-5.5-.04-5.73,3.56-.3,4.5-3.24,7.01-6.76,8.55-4.27,1.86-3.4,4.69-.98,6.36,4.93,3.41,3.59,6.98,1.42,10.93-1.26,2.29-2.6,4.55-3.95,6.79-4.09,6.76-2.87,10.89,4.31,13.38,9.04,3.14,18.45.75,27.66,1.53,3.08.26,7.38-1.66,8.97,1.26,1.86,3.4-.95,6.85-3.38,9.69-.2.23-.07.74-.1,1.23.53.2,1.08.56,1.63.59,6.66.33,13.32.8,19.99.85,4.11.03,7.12.99,7.88,5.51.9,5.36,4,7.44,9.36,6.47,1.57-.28,3.24-.15,4.84,0,6.49.59,11.49,7.07,11.05,13.24-.28,4.01-4.74,3.41-5.71,6.46-1.75,5.49-6.47,6.64-11.42,7.35-2.25.33-5.69-1.11-6.31,1.96-.64,3.15.05,6.66,2.88,9.13,4.28,3.75,6.58,8.88,7.51,14.14.77,4.33,2.52,5.5,6.5,6.16,5.98.99,12.04,2.52,11.04,11.04-.19,1.58,1.51,3.29,1.75,5.02.53,3.87,2.33,3.14,4.42,1.44,6.71-5.46,13.85-8.86,23-8.63,3.93.1,5.77.18,5.7,4.09-.12,6.7,7.72,4.95,9.71,9.38.29.63,1.16,1.06,1.84,1.43.23.12.87-.1,1.05-.35,2.52-3.71,6.4-3.67,10.24-3.84,2.2-.1,2.2-1.76,2.44-3.45.64-4.47,2.22-8.38,5.64-11.72,6.18-6.03,8.68-13.44,5.96-21.96-.73-2.29-.45-3.93,1.19-5.43,6.01-5.5,9.49-12.68,12.14-20.05,3.56-9.88,8.7-16.98,20.36-16.61,1.16.04,2.43-.4,3.5-.91,6.78-3.29,14.66-5.43,15.32-15.06.17-2.5,2.49-3.53,4.5-4.5,2.82-1.36,5.7-2.61,8.72-3.99-1.32-1.21-4.25-.6-2.81-3.22,1.37-2.51-.21-3.93-1.29-5.92-3.64-6.73-7.68-12.09-15.23-15.84-6.03-3-10.37-3.09-16.22-1.3-6.85,2.1-12.38,6.99-19.94,7.77-11.48,1.19-13.5.2-15.21-11.68Zm-49.61,440.07c-3.59.34-7.14,1.32-7.4,5.47-.41,6.59-4.45,8.2-9.96,8.92-7.39.97-12.86,4.69-15.09,12.16-1.14,3.82-5.75,5.85-5.23,10.56.12,1.1-1.4,1.2-2.39,1.35-3.79.59-7.56,1.41-11.37,1.7-3.5.26-7.4-1.38-7.62-4.67-.54-7.89-7.65-11.55-10.21-18-1.41-3.56-3.48-3.29-5.49-.22-1.46,2.22-2.97,4.43-6.24,3.76-3.62-.75-7.2-.15-10.83.22-8.35.86-14.21-6.6-12.61-14.71,1.7-8.65-.53-18.03-12.19-19.86-2.77-.43-5.45-.94-8.15-1.81-4.52-1.46-9.92,1.13-9.34,4.46,1.2,6.91-2.99,9.81-7.75,12.73-1.9,1.17-3.61,2.53-4.73,4.58-8.27,15.03-17.84,29.4-23.1,45.95-.85,2.67-2.23,5.09-4.24,7.23-4.23,4.49-7.6,10.49-6.86,16,.57,4.23,7.84,3.62,12.08,5.27,1.83.71,4.01.5,5.95,1,3.41.88,5.15,2.72,5.54,6.74.53,5.54-2.63,9.08-5.03,13.19-3.11,5.31-1.62,8.42,4.46,9.11,10.63,1.2,21.19,3.26,31.95,3,2.69-.06,5.11.98,7.65,1.65,3.37.9,4.36,2.83,4.33,6.16-.04,3.79-.25,7.62,1.16,11.38,1.66,4.44,3.54,5.69,7.88,2.62,5.93-4.19,8.54-3.43,12.43,2.75,1.52,2.41,2.39,5.1,2.79,7.95.31,2.2.53,4.47,1.29,6.53,1.21,3.27,3.94,4.86,7.24,3.8,3.42-1.1,1.92-3.98,1.18-6.16-1.09-3.19-1.57-6.32-.02-9.41,2.11-4.19,3.83-8.27,1.44-13.02-.88-1.75.82-2.97,2.07-3.97,3.79-3.03,7.6-6.02,11.46-8.96,1.12-.85,2.92-1.35,2.95-2.84.17-7.84,7.27-8.73,11.92-10.12,6.31-1.88,9.51-5.43,11.53-10.95,2.44-6.68,6.99-10.61,14.12-11.63,5.75-.82,8.89-4.58,9.84-10.06.55-3.16.58-6.44.55-9.66-.07-6.79,1.36-12.72,7.4-16.94,2.75-1.92,4.41-5.05,2.79-8.5-4.99-10.67-2.16-17.74,9.04-21.14,4.58-1.39,9.36-2.14,14.08-3.03,1.86-.35,2.96-1.18,3.09-3.08.12-1.82-.7-3.11-2.37-3.83-2.66-1.14-4.87-1.78-7.65.69-7.61,6.77-9.93,5.82-12.31-4.34Zm-98.84-132.62c-3.24-3.03-9.18-.75-8.75-6.83.32-4.59-1.22-7.87-6.62-7.97-2.09-.04-3.04-1.47-3.41-3.57-.39-2.2.42-3.5,2.25-4.4,2.53-1.25,5.06-2.49,7.61-3.69,2.11-.99,2.94-2.76,2.8-4.92-.14-2.29-2.07-2.08-3.64-2.24-1.39-.14-3.4.01-3.38-1.76.05-5.21-3.74-6.48-7.47-7.92-2.04-.79-2.43-2.61-2.68-4.41-.35-2.54,1.68-2.23,3.2-2.49,2.38-.41,3.37-1.76,3.3-4.23-.05-1.81.4-3.79,2.34-4.59,4.26-1.77,4.33-6.24,3.19-8.64-1.5-3.17-5.86-2.96-9.1-1.57-2.59,1.11-5.07,1.44-7.65.73-3.67-1.01-5.67-3.03-1.92-6.13,4.77-3.95,9.53-8.13,14.94-11,5.06-2.69,5.44-6.65,2.92-9.84-5.51-6.98-3.94-12.87.58-19.23,1.16-1.63,3.56-3.52,2.05-5.85-4.67-7.25-1.29-12.5,3.9-17.4,4.92-4.64,8.62-10.25,11.61-16.15,4.77-9.41,8.76-19.22,13.14-28.82.7-1.54,2.87-2.9.7-4.63-2.15-1.71-3.24.72-4.49,1.71-7.96,6.24-15.56,12.93-23.9,18.7-3.41,2.36-6.7,1.43-9.79.09-2.77-1.2-2.76-4.29-2.61-6.89.22-3.78-.6-7.65,1.34-11.31.83-1.57,1.09-3.68-.74-4.98-4.6-3.26-16.32,1.81-17.24,7.42-.52,3.17-.49,6.57-4.16,8.13-4.52,1.92-5.76,5.35-4.44,9.88,1.08,3.71-.47,5.03-3.95,4.12-2.48-.65-4.01.1-4.63,2.42-1.12,4.2-1.2,8.75.58,12.45,1.28,2.67,5.2.6,7.92.91,1.4.16,2.84.08,4.24-.07,3.04-.32,3.87.68,3.2,3.81-.74,3.46-2.47,6.67-1.41,10.62,2.2,8.14-2.44,17.67-10.12,20.7-6.67,2.63-12.6,6.45-18.6,10.18-6.25,3.89-10.63,9.18-11.8,16.8-.97,6.37-3.32,12.39-8.69,16.17-9.83,6.9-11.8,16.21-9.93,27.25.74,4.36,2.41,9.45.93,13.1-2.08,5.13.95,8.35,1.54,12.46.9,6.27,5.1,6.35,9.57,6.92.89.11,2.35.86,2.42,1.43.54,5.05,5.17,8.18,5.88,13.15.91,6.44,6.5,9.46,10.53,13.54,1.3,1.32,3.35.97,4.98-.42,9.71-8.29,18.59-5.08,29.06,2.25,8.36,5.85,15.31,13.13,19.49,22.77,1.02,2.36,2.81,6.45,5.76,4.68,3.87-2.32,5.28-.34,7.67,1.65,2.97,2.47,5.84,5,8.47,8.87,1.94-5.85,1.89-9.34-3.98-11.89-8.68-3.76-14.84-18.62-11.19-26.52,1.74-3.76,1.78-7.25,1.59-11.07-.24-4.95-2.79-11.15,6.6-11.43Zm16.11-97c5.49-.06,6.72.35,9.23,3.06,6.09,6.57,14.21,6.63,20.72.19.54-.53,1.38-1.32,1.92-1.21,9.12,1.83,17.71-.25,26.18-3.38.17-.06.41,0,.6.05,7.86,2.18,15.16-.32,22.57-2.48,3.35-.98,5.98-2.3,6.64-6.03.65-3.66,2.75-4.57,6.12-3.31,2.41.9,4.98,1.01,7.02,3.18,2.13,2.26,4.44,1.41,6.8-.66,7.22-6.35,8.26-14.33,6.79-23.14-.67-4.04-3.9-8.7,2.75-11.03.55-.19.93-1.86.82-2.77-1.23-10.1-5.01-19.36-12.74-25.85-3.19-2.68-8.01-3.15-8.19-8.7-.04-1.36-1.61-1.67-2.89-1.59-5.34.34-10.94-.66-15.29,4.01-1.88,2.01-4.46,3.46-6.91,4.85-4,2.27-6.98.89-7.93-3.41-1.73-7.78-2.76-15.92-14-15.46-2.8.11-5.26-2.12-5.04-6.18.25-4.61-1.96-9.79-5.18-11.79-4.01-2.49-4.26-5.49-5.23-9-1.13-4.09-4.21-4.8-6.58-1.2-1.89,2.85-4.28,5.18-6.19,7.87-3.31,4.66-7.92,9.72-.48,15.14,2.74,1.99,2.69,4.25-1.23,5.28-1.73.45-1.66,2.16-1.67,3.54-.03,2.53-1.1,3.45-3.71,3.51-8.23.2-11.1,2.49-13.05,10.52-2.25,9.26-8.27,16.68-12.09,25.18-2.44,5.44-6.49,10.16-11.12,14.25-2.68,2.37-4.78,6.12-2.01,9.07,3.38,3.59,1.77,6.22-.09,9.1-4.07,6.28-8.32,12.39-1.21,19.4.72.71.65,2.29.78,3.49.49,4.51,2.58,4.72,5.43,1.9,5.17-5.11,11.74-5.9,18.46-6.35Zm-174.45,347.55c-3.02-.14-6.05-.12-9.04-.46-3.33-.38-5.13,2-5.93,4.18-.79,2.13,2.32,2.12,3.7,3.08,2.54,1.76,6.37,1.64,7.46,5.51,3.89,13.79,8.94,27.42,7.57,42.08-.79,8.41,2.19,15.89,4.4,23.61.76,2.66,2.2,4.83,5.59,4.32,6.64-1,13.49-2.26,18.96-5.94,11.68-7.86,23.1-8.31,35.13-1.42,3.21,1.84,6.11,1.54,8.27-1.86,1.72-2.72,3.49-5.41,5.34-8.05,4.54-6.49,13.47-6.75,18.43-.55.95,1.18,2.02,2.28,3.53,1.83,5.7-1.71,11.23.45,16.83.68,3.99.16,5.54-1.13,5.28-5.18-.32-5.12-.29-10.97,3.92-14.1,6.15-4.55.06-7.22-.76-10.5-.83-3.33-3.26-4.51-6.28-1.61-.63.61-1.4.34-2.15-.19-5.74-4.05-5.96-11.35-.46-16.13,3.47-3.01,3.29-5.57-.98-7.06-2.44-.85-2.18-2.7-2.68-4.24-3.02-9.19-4.33-10.26-14.05-11.05-1.81-.15-3.61-.45-5.4-.76-3.87-.67-5.48-3.01-6.45-6.87-1.24-4.97,2.34-7.4,4.31-10.65,4.25-7.01,2.68-10.24-5.04-12.08-6.48-1.54-13.83-1.89-18.04-8.54-.81-1.29-2.28-1.55-3.73-1.69-8.29-.82-16.31-1.73-21.97,6.93-2.45,3.74-6.8,6.24-10.34,9.24-3.24,2.75-6.57,5.38-8.24,9.51-4.93,12.19-12.73,20.03-27.15,17.97Zm295.21-278.56c-.35-2.32.53-5.95-1.1-6.42-6.11-1.76-11.23-6.64-17.87-6.27-3.15.18-6.01.04-8.81-1.29-6.3-3-13.06-1.98-19.04-.27-9.5,2.72-9.3,3.44-15.37-4.56-2.64-3.47-7.77-3.96-10.42-.5-4.55,5.93-8.64,12.2-10.77,19.52-.57,1.95-.54,3.21,1.73,4.33,6.08,3,6.67,7.15,1.98,12.44-.57.65-.89,1.19-1.03,2-1.56,9.48-4.31,11.91-13.87,12.04-5.34.07-8.37,1.8-9.07,7.91-1.35,11.75-.08,23.51-1.63,35.37-1.18,9-2.75,15.85-10.89,20.24-.71.38-1.29.97-1.98,1.4-1.97,1.21-1.67,2.62-1.01,4.62,3.79,11.59,12.83,18.5,22.44,24.54,4.91,3.09,11.13,1.37,16.54.81,6.12-.64,12.63-1.69,16.37-8.25,2-3.51,5.17-3.25,7.92-.1,2.46,2.82,5.62,4.42,7.54.03,2.66-6.11,6.42-5.7,11.1-3.11,2.11,1.17,4.27,1.3,6.39.36,2.52-1.12,8.89-14.11,8.42-16.81-.47-2.71-2.47-4.6-3.7-6.89-1.92-3.57-2.12-5.85,3.01-6.3,2.94-.26,7.77.01,7.31-4.33-.48-4.56,3.57-10.67-4.26-13.63-5.61-2.12-5.63-4.77-.89-8.68,4.02-3.32,6.4-7.75,9.27-11.9,2.82-4.08,2.32-7.95-.47-11.73-1.44-1.95-2.91-3.9-4.59-5.65-1.88-1.96-2-3.63-.23-5.78,2.83-3.45,5.42-7.43,9.36-9.37,6.11-3,7.41-7.96,7.62-13.74Zm12.92-287.03c1.7,3.43,2.01,7.02,2.47,10.55.39,3,1.36,6.11,4.8,5.87,5.06-.36,9.95-.84,14.94-3.39,6.59-3.37,13.88-8.85,21.45-6.2,7.21,2.53,11.4-.72,16.79-3.59,3.56-1.9,5.17-3.83,5.19-7.78.02-4.11-.5-8.68,4.7-10.72.66-.26,1.27-1.7,1.21-2.54-.13-1.7-1.79-1.14-2.86-1.37-7.21-1.54-13.55-4.1-18.76-10.03-3.45-3.92-8.63-6.81-14.11-7.76-8.04-1.4-10.21-3.35-9.6-11.81.56-7.88-2.68-13.6-8.35-18.45-2.45-2.1-4.96-4.08-6.71-6.92-6.58-10.69-16.11-16.31-28.77-16.74-2.75-.09-4.29-.19-3.58,3.23.56,2.67-.06,4.84-3.47,4.94-2.72.08-5.41.27-5.58,3.99-.16,3.47-.22,6.21,4,8.25,9.91,4.8,11.51,13.54,4.59,21.89-3.09,3.73-7.63,5.04-12.15,6.21-1.42.37-3.43-.51-3.98,1.81-2.16,9.04-9.85,14.02-15.39,20.5-3.99,4.66-9.37,4.53-13.42.85-5.22-4.75-9-4.65-13.56.56-1.64,1.87-3,3.81-5.94,3.22-11.79-2.35-22.88.25-33.55,5.1,1.72,2.06,6.14.74,6.86,4.61.56,3,2.98,3.27,5.27,4.19,5.66,2.25,11.4,2.07,17.25,1.42,7.45-.83,15.04-1.56,22.36-.08,5,1.01,9.84,2.04,14.92,1.53,7.44-.75,14.95-1.11,22.31-2.38,7.95-1.37,14.33-.49,18.29,7.61,1.79,3.68,4.42,2.6,6.7,0,1.83-2.08,2.78-4.93,5.68-6.55ZM3.97,573.89c-.27.48-.53.95-.8,1.43,4.36,5.25,8.19,11.1,13.23,15.58,4.9,4.35,10.59,9.47,17.29,9.34,12.07-.24,20.28,5.56,27.46,13.99,1.9,2.23,3.26,2.63,5.07.13,3.18-4.36,6.94-7.74,12.73-8.31,1.39-.14,3.25-1.42,3.85-2.68,4.34-9.09,12.31-11.27,21.32-11.89,2.39-.17,4.75-.96,7.08-1.62,3.88-1.11,11.6-17.18,10.07-20.89-.22-.54-.65-1.04-1.09-1.43-3.38-2.94-3.95-6.81-3.89-10.99.02-1.73.45-4.65-1.48-4.8-7.05-.56-9.64-5.16-11.44-10.97-.25-.81-1.51-1.28-2.26-1.95-3.97-3.49-8.93-4.73-13.88-5.62-3.7-.67-5.17-2.65-6.66-5.9-3.98-8.66-5.97-17.56-5.12-27.03.35-3.85-.85-5.61-5.01-5.22-1.89.18-4.66,1.08-4.93-2.62-.38-5.37-4.66-4.32-7.09-2.98-2.59,1.43-4.91,1.33-7.47,1.32-5.66-.01-11.32-.05-16.98-.05-4,0-5.17.72-3.04,5.24,7.17,15.19,12.27,30.49,9.52,48.25-2.27,14.64-10.29,22.58-22.35,28.32-4.41,2.1-8.8,5.39-14.14,1.34Zm290.81,4.21c-2.3,1.47-2.89,3.27-3.54,4.89-2.41,5.95-5.86,9.11-13.13,8.83-5.57-.21-11.9-.74-16.99,2.8-2.85,1.98-5.44,3.33-8.91,1.96-2.94-1.16-4.98.26-5.39,3.05-1.19,8.04-6.17,13.36-12.14,18.11-1.04.83-2.75,1.62-1.48,3.32,1.09,1.45,2.56,1.41,4.32.66,2.94-1.27,6.03-2.23,9.1-3.18,7.58-2.34,22.2,1.91,27.11,7.87,4.35,5.29,4.39,11.55,3.3,17.77-.65,3.74.27,6.19,3.34,8.23,5.04,3.34,17.73,1.95,22-2.23,1.54-1.51,3.58-5.83,5.97-2.06,4.34,6.82,11.66,11.76,13.16,20.39.69,3.98,2.95,4.45,6.9,4.6,9,.36,11.83-6.11,14.54-12.15,3.31-7.37,8.46-11.65,16.19-13.01,4.58-.81,8.77-1.55,8.79-7.72,0-1.53,1.56-3.26,2.77-4.54,2.78-2.93,6.9-4.39,10.36-4.01,3.04.33.59,4.39,1.12,6.72.27,1.2.36,2.57,1.83,2.78,1.57.22,3.48-1.17,3.43-1.98-.43-6.19,5.96-9.64,5.92-15.76-.03-4.62.15-9.13-.47-13.8-1.33-10.04-8.49-17.43-18.24-17.63-2-.04-2.71,1.19-3.56,2.68-2.86,5.04-8.35,6.12-12.42,1.89-2.57-2.67-3.46-1.72-4.74.66-1.83,3.42-4.82,5.54-8.42,6.44-7.89,1.97-16.05.97-24.06,1.76-1.46.14-2.64-.3-3.83-1.34-8.77-7.62-19.57-13.35-22.83-26Zm40.17-165.15c-2.94-.28-5.43-2.16-7.83.43-5.26,5.68-17.06,6.4-22.54.7-3.81-3.96-7.92-4.59-12.5-3.73-10.43,1.98-19.03,8.53-28.83,12.18-2.15.8-2.67,3.9-5.34,4.69-2.18.65-6.06,1.82-5.03,4.03,1.41,3.02,4.44.08,6.74-.64.19-.06.36-.18.54-.27,4.21-2.06,7.38,1.11,10.71,2.49,3.07,1.27.87,4.37.58,6.5-.97,7.34-6.76,12.33-9.99,19.56,4.98-1.17,7.03,1.16,7.26,5.6.13,2.44,2.02,2.6,3.91,2.79,3.59.37,4.53,2.4,4.07,5.89-.57,4.37-3.08,6.86-6.81,8.49-1.98.87-4.41.88-6.11,3.96,7.64-.14,10.17,4.21,10.29,10.87.04,2.37,2.62,2,4.25,2.6,1.71.63,4.63-.47,4.81,2.42.16,2.54-1.22,4.74-3.85,5.57-3.45,1.09-3.59,3.55-3.51,6.61.09,3.39,1.81,6.77.4,10.15-4.76,11.44-1.05,21.72,9.87,27.39,1.88.97,4.69,1.32,4.66,4.15-.04,4.56,2.38,4.28,5.51,3.28,3.2-1.02,3.99.25,3.17,3.31-.37,1.38-1.76,2.81-.13,4.66,3-2,7.72-3.77,7.4-7.24-.91-10,3.89-19.34,2.44-29.28-.82-5.63-.2-11.31.64-16.9,1.09-7.3,4.11-9.75,11.63-9.83.81,0,1.61.18,2.42.18,5.09,0,8.16-2.99,8.45-8.07.16-2.77-1.02-5.65,3.18-7.37,2.11-.87.58-4.39-2.02-4.73-5.85-.76-4.77-4.36-3.64-7.95.97-3.07,2.05-6.17,3.56-9,1.57-2.94,1.31-5.01-1.04-7.46-5.28-5.52-5.82-13.18-8.33-19.94-.67-1.8.35-2.99,1.73-4.1,4.78-3.85,6.39-9.15,6.51-15.04.05-2.61.19-5.15,2.74-6.96Zm-40.2-170.86c1.04-3.66,3.52-5.03,4.96-7.18.86-1.28,2.87-2.26,2.06-4.03-.81-1.78-2.88-1.02-4.4-1.04-13.06-.21-26.36,1.53-38.65-4.89-2.6-1.36-4.83.34-5.46,2.32-1.74,5.49-5.86,5.09-10.13,5.02-5.65-.09-11.36.48-16.74-1.94-3.18-1.43-3.9-.08-3.52,2.94,2.47,19.56,4.04,19.93,20.71,20.09.4,0,.81-.02,1.21-.01,5.71.18,9.6,3.72,9.49,9.52-.15,8.32.65,16.57,1.16,24.84.11,1.77.68,3.92-1.44,4.85-7.3,3.2-7.34,11.16-11.11,16.66-.53.77-1.03,1.88.04,2.73.9.71,2.05.62,2.83,0,4.12-3.34,8.78-2,13.38-1.87,3.55.1,4.26,1.76,4.31,4.93.08,4.48-2.41,8.57-1.56,13.14.38,2.06-.92,4.54,1.72,5.93,2.75,1.45,5.04.45,7.24-1.31,7.59-6.06,15.45-11.81,22.7-18.24,3.51-3.11,5.85-4.24,9.06-.06,1.93,2.5,6.9,3.24,7.2,1.64.6-3.21,6.62-5.95,1.6-9.98-2.55-2.05-3.19-5.25-1.66-7.68,3.53-5.62,7.35-11.16,11.77-16.1,4.15-4.64,9.39-7.33,16.31-6.32,4.55.67,8.77-1.21,10.6-6.22.5-1.36,1.54-2.25,2.71-3.15,3.41-2.64,2.5-5.28-.1-8.07-4.04-4.33-9.22-3.53-14.19-3.28-3.98.2-6.75-.77-7.37-5.1-.79-5.46-4.1-6.86-9.31-6.85-8.38,0-16.76-.79-25.41-1.26Zm138.45,167.23q-11.1.12-10.77-11.34c.05-1.82-.01-3.64-.07-5.45-.08-2.43-1.39-4.26-3.27-5.54-2.57-1.74-5.04-2.88-6.22,1.7-.94,3.66-4.18,5.87-6.48,8.66-4.1,4.99-7.49,5.36-12.69,1.5-4.25-3.15-6.27-2.6-8.44,2.27-.55,1.24-.62,2.84-2.32,3.29-7.96,2.09-15.64,6.35-24.14,4.72-8.85-1.69-14.96,3.59-21.8,7.26-1.7.91-1.62,2.73-1.69,4.3-.25,6.07-1.93,11.5-6.44,15.85-.66.64-1.47,1.87-1.27,2.55,1.84,6.13,2.52,12.77,7.09,17.79,1.59,1.75,3.02,1.99,4.91-.23,6.9-8.1,11.93-7.76,18.49.81,2.44,3.19,5.12,5.51,8.75,1.27.47-.55,1.37-.82,2.13-1,11.08-2.69,21.71,2.97,32.72,1.83.48-.05,1.05.55,1.54.91,8.03,5.81,17.18,5.69,26.19,4.05,5.24-.95,12.5-2.42,14.05-6.99,1.4-4.13,3.47-7.49,5.67-10.85,2.99-4.57,4.12-8.89,1.69-14.07-.8-1.7-.51-3.96-.52-5.96-.11-13.69-3.81-17.46-17.13-17.31Zm-34.73-366.23c0,2.08-.18,3.1.03,4.02,1.35,5.93.92,11.3-4.75,14.92-1.91,1.22-1.91,2.9-1.81,4.75.21,4.02,0,8.11.74,12.03.77,4.14,4.83,6.69,5.87,11.21.41,1.8,5.37,3.73,8.95,4.09,2.61.26,5.18,1.11,7.78,1.21,11.85.47,20.3,6.42,26.72,15.97,1.45,2.16,3.05,4.4,5.06,5.97,8.01,6.25,12.8,13.75,11.59,24.45-.44,3.94,1.2,6.71,6.16,7.08,7.12.53,12.95,4.62,17.65,9.58,4.33,4.57,9.4,6.72,15.26,7.86,3.33.65,5.48-.16,5.88-3.97.39-3.8,2.81-6.41,5.17-9.3,5.29-6.5,11.64-12.34,13.39-21.26.74-3.76,3.44-6.8,7.5-7.92,1.41-.39,3.56.92,4.12-1.29.46-1.82-1.49-2.71-2.57-3.8-1.25-1.28-2.64-2.56-4.21-3.37-4.79-2.46-4.09-5.93-.96-8.59,3.31-2.81,2.54-4.05-.38-6.27-2.7-2.05-5.31-2.8-8.41-1.6-10.79,4.16-21.91,4.64-33.22,3-1.78-.26-3.87.32-5.24-1.06-4.35-4.37-10.09-6.55-14.98-9.92-5.58-3.84-12.83-7.42-15.77-12.75-3.74-6.79-8.79-7.76-14.73-9.47-8.61-2.48-17.75-5.59-21.91-13.87-2.9-5.76-7.14-8.18-12.91-11.68Z"/>
      <path d="m116.69,712.15c-13.15-.54-23.53-10.45-24.49-22.71-.13-1.64-1.34-3.95.88-4.83,1.82-.72,4.08-.44,5.72,1.01,3.48,3.09,6.88,6.24,8.61,10.77.48,1.26,1.15,2.9,2.9,2.57,1.93-.37,1.39-2.27,1.4-3.52.08-12.86,1.26-25.43,8.66-36.54.78-1.17,1.19-2.99,2.25-3.49,9.47-4.45,18.73-9.6,29.45-10.59,1.96-.18,3.4,1.11,4.93,2.07,3.42,2.16,6.81,4.33,10.7,5.63,3.02,1.01,6.46,1.81,5.55,6.38-.78,3.92-2.14,8.08-6.48,8.4-6.34.47-9.66,4.16-12.66,8.91-4.92,7.77-12.32,14.01-14.3,23.62-.36,1.73-1.75,3.15-3.63,3.81-5.91,2.08-12.87,1.89-16.9,8.09-.42.65-2.27.37-2.59.42Zm-20.53-24.15c-.73,6.19,6.14,18.63,11.26,20.01,3.44.93,8.53,2.61,10.48.26,4.31-5.2,10.24-5.05,15.52-7.03,1.54-.58,3.3-1.05,3.64-2.84,1.93-10.07,9.79-16.49,14.95-24.57,3.09-4.83,6.34-9.25,13.07-9.24,2.96,0,4.45-2.67,4.87-5.39.48-3.09-2.35-3.4-4.3-4.14-3.43-1.3-6.56-3.1-9.59-5.11-1.88-1.24-3.76-2.13-6.2-1.77-8.76,1.29-16.29,5.85-24.34,9.01-.81.32-1.47,1.37-1.91,2.24-4.25,8.45-9.13,16.66-8.42,26.75.28,4-.51,8.08-.34,12.1.22,5.35-2.18,5.48-6.28,3.96-2.46-.92-3.29-2.85-4.18-4.84-1.76-3.95-4.38-7.04-8.24-9.38Z"/>
    </g>
  </g>
</svg>