<?xml version="1.0" encoding="UTF-8"?>
<svg id="Layer_2" data-name="Layer 2" xmlns="http://www.w3.org/2000/svg" viewBox="0 0 324.05 333.31">
  <g id="Layer_1-2" data-name="Layer 1">
    <g>
      <path d="m201.62,186.91c3.28,0,6.8.23,10.27-.05,5.6-.45,7.32,2.27,7.21,7.43-.18,9.11-.05,18.23-.05,27.89,2.56.15,4.56.33,6.56.37,9.41.18,13.15,3.7,13.3,13.21.18,11.84.04,23.68.04,36.47,2.45,0,4.64,0,6.82,0,21.62-.02,43.23-.05,64.85-.06,8.78,0,13.17,4.16,13.24,12.78.1,13.93-.14,27.86.17,41.78.12,5.36-1.91,6.59-6.96,6.59-103.3-.14-206.61-.15-309.91-.02-5.3,0-7.33-1.19-7.16-6.92.41-13.5.06-27.02.09-40.53.02-9.41,4.27-13.67,13.72-13.69,23.88-.05,47.77-.02,72.72-.02,0-6.54,0-12.87,0-19.2,0-5.61-.09-11.22-.03-16.84.11-9.68,3.95-13.42,13.68-13.53,2.02-.02,4.04-.18,6.57-.31,0-9.3,0-18.19,0-27.08,0-7.47,1.03-8.51,8.71-8.58,2.89-.03,5.79,0,9.42,0,.57-10.18,6.44-16.04,15.08-20.83,8.05-4.47,6.55-21.07-1.1-26.51-5.87-4.17-11.1-9.25-16.76-13.74-1.88-1.5-4.08-2.74-6.32-3.61-37.01-14.35-57.87-42.66-67.62-79.8-3.93-14.98,4.44-24.16,19.8-24.26,5.81-.03,11.62,0,17.52,0,.16-.2.61-.5.64-.83,1.19-13.36,2.55-15.83,15.94-16.23C131.52-.09,161.01.14,190.48.01c9.55-.04,19.11.03,28.65.34,16.5.54,18.27,2.13,20.74,17.43,6.38,0,12.75-.03,19.12,0,12.49.06,20.41,8.77,18.37,21.13-3.97,23.96-15.64,44.04-32.62,61.08-10.53,10.57-23.12,17.32-37.2,22.88-9.73,3.84-18.3,12.7-25.17,21.13-5.89,7.23-1.14,19.82,6.93,24.59,8.45,5,9.25,6.15,12.33,18.32Zm-9.38-.44c.49-.68.99-1.36,1.48-2.04-3.17-2.94-5.89-6.74-9.6-8.64-7.66-3.92-11.9-9.32-11.43-18.11.27-4.97-.28-10.08.71-14.89.62-3,2.77-6.67,5.33-8.12,14.5-8.23,24.3-20.62,32-34.88,14.05-26.01,18.03-54.52,20.22-83.45.31-4.17-1.21-6.29-5.32-6.54-8.07-.49-16.14-1.24-24.21-1.34-24.92-.29-49.85-.43-74.77-.4-8.29,0-16.58.68-24.87,1.05-5.23.23-7.43,2.45-7.08,8.16,1.52,24.62,5.25,48.81,14.9,71.61,7.62,18,17.85,34.45,35.64,44.33,4.67,2.59,7.34,5.5,7.66,10.86.76,12.86,2.24,25.66-13.29,32.09-3.06,1.27-4.7,5.95-7.93,10.31h60.56Zm38.04,137.83c.18-1.2.45-2.19.45-3.18.02-27.85-.03-55.7.06-83.54.02-5.82-3.31-6.71-8.1-6.7-40.11.12-80.22.2-120.33.11-5.66-.01-7.59,2.02-7.54,7.72.23,26.18.09,52.37.1,78.55,0,2.23.19,4.46.3,7.04h135.06Zm-143.99-44.13c-24.75,0-48.81-.11-72.85.25-1.62.02-4.42,3.59-4.56,5.66-.54,8.06-.24,16.18-.25,24.28,0,4.68,0,9.35,0,14h77.66v-44.19Zm152.98.32v43.95h75.72c.13-2.49.33-4.73.34-6.96.02-9.15-.1-18.3-.01-27.44.09-9.59.16-9.56-9.63-9.54-18.3.03-36.59,0-54.89,0-3.71,0-7.42,0-11.53,0Zm-124.01-58.34h95.16v-26.62h-95.16v26.62ZM86.97,26.17c-6.4,0-12.56-.04-18.71,0-9.63.07-13.82,4.98-11.72,14.34,4.38,19.55,14.19,36.22,27.9,50.65,7.39,7.77,15.77,14.27,26.99,19.78-15.7-26.55-21.1-54.34-24.46-84.77Zm127.58,83.61c.78.25,1.02.41,1.14.35,29.26-15.76,46.68-40.26,53.23-72.61,1.05-5.21-2.9-10.64-7.84-10.98-7.34-.5-14.74-.13-22.03-.13-3.93,29.97-8.99,58.05-24.5,83.36Z"/>
      <path d="m162.98,87.27c-5.53,3.4-10.76,6.76-16.15,9.83-1.44.82-3.38.77-5.09,1.12-.36-1.85-1.59-4.11-.94-5.5,5.84-12.54,3.93-22.39-8.85-29.35-1.8-.98-2.6-3.78-3.86-5.74,2.23-1.11,4.56-3.33,6.67-3.13,13.02,1.25,20.54-4.34,23.47-16.98.45-1.94,2.94-3.4,4.49-5.08,1.57,1.64,4.08,3.05,4.56,4.97,2.95,11.74,9.2,18.57,22.25,16.68,1.18-.17,2.54.1,3.67.53,1.61.63,3.9,1.29,4.38,2.52.44,1.12-.78,3.41-1.91,4.53-3.52,3.52-7.61,6.49-10.95,10.16-1.52,1.68-2.67,4.59-2.44,6.77.5,4.69,2.22,9.24,2.97,13.93.28,1.74-.3,4.09-1.39,5.38-.55.65-3.39-.02-4.78-.82-5.39-3.08-10.61-6.46-16.09-9.84Zm19.91-25.87c-11.9,2.06-17.21-4.04-20.13-14.49-1.53,12.04-8.86,15.23-19.65,14.61,8,6.13,13.4,12.61,8.4,23.69,8.13-8.2,15.52-6.3,23.69-.21-5.45-10.64-1.57-17.62,7.69-23.59Z"/>
      <path d="m162.46,265.83c-4.72,3.08-8.12,5.3-11.81,7.71-1.32-1.77-2.39-3.2-4.03-5.4,6.35-4.71,12.27-9.47,18.58-13.64,3.13-2.07,5.38.24,5.39,3.42.08,14.08,0,28.16-.43,42.23-.05,1.52-2.66,2.97-4.09,4.45-1.21-1.55-3.42-3.07-3.46-4.65-.31-10.93-.16-21.88-.16-34.12Z"/>
    </g>
  </g>
</svg>