<svg viewBox="0 0 52 53" fill="none" xmlns="http://www.w3.org/2000/svg">
<g clip-path="url(#clip0_1071_181)">
<path d="M32.3538 29.7208C32.8801 29.7208 33.445 29.7574 34.0018 29.7129C34.9004 29.6413 35.1764 30.0738 35.1588 30.8943C35.1299 32.3429 35.1507 33.7931 35.1507 35.3291C35.5615 35.353 35.8825 35.3816 36.2034 35.388C37.7134 35.4166 38.3136 35.9763 38.3377 37.4885C38.3665 39.3712 38.3441 41.2539 38.3441 43.2876C38.7372 43.2876 39.0886 43.2876 39.4385 43.2876C42.9078 43.2845 46.3755 43.2797 49.8449 43.2781C51.2538 43.2781 51.9583 43.9396 51.9695 45.3103C51.9855 47.5253 51.947 49.7403 51.9968 51.9538C52.016 52.806 51.6903 53.0016 50.8799 53.0016C34.3035 52.9794 17.7254 52.9778 1.14894 52.9985C0.298457 52.9985 -0.0272954 52.8092 -1.56946e-05 51.8981C0.0657766 49.7514 0.00961245 47.6016 0.0144265 45.4534C0.0176359 43.9571 0.69963 43.2797 2.21606 43.2765C6.04806 43.2686 9.88167 43.2733 13.8854 43.2733C13.8854 42.2334 13.8854 41.2269 13.8854 40.2203C13.8854 39.3283 13.8709 38.4362 13.8806 37.5426C13.8982 36.0033 14.5144 35.4086 16.0758 35.3911C16.3999 35.388 16.7241 35.3625 17.1301 35.3419C17.1301 33.863 17.1301 32.4494 17.1301 31.0358C17.1301 29.848 17.2953 29.6826 18.5277 29.6715C18.9915 29.6667 19.4569 29.6715 20.0394 29.6715C20.1308 28.0528 21.0728 27.121 22.4592 26.3593C23.751 25.6485 23.5103 23.0089 22.2827 22.1439C21.3408 21.4809 20.5015 20.6731 19.5933 19.9591C19.2916 19.7206 18.9385 19.5234 18.5791 19.3851C12.6401 17.1033 9.29275 12.6017 7.72817 6.696C7.09753 4.31401 8.44066 2.85429 10.9055 2.83839C11.8378 2.83362 12.7701 2.83839 13.7169 2.83839C13.7426 2.80658 13.8148 2.75888 13.8196 2.70641C14.0105 0.582018 14.2288 0.18926 16.3775 0.125656C21.1049 -0.0142741 25.8371 0.0222984 30.5661 0.00162699C32.0986 -0.00473346 33.6327 0.00639732 35.1636 0.0556908C37.8113 0.141557 38.0953 0.394385 38.4917 2.82726C39.5155 2.82726 40.5377 2.82248 41.5599 2.82726C43.5641 2.8368 44.835 4.22178 44.5077 6.18716C43.8706 9.99707 41.998 13.19 39.2732 15.8996C37.5834 17.5803 35.5631 18.6536 33.3037 19.5377C31.7424 20.1483 30.3672 21.5572 29.2647 22.8976C28.3196 24.0473 29.0818 26.0492 30.3768 26.8077C31.7327 27.6028 31.8611 27.7856 32.3554 29.7208H32.3538ZM30.8486 29.6508C30.9272 29.5427 31.0074 29.4346 31.0861 29.3265C30.5774 28.859 30.1409 28.2547 29.5455 27.9526C28.3164 27.3293 27.636 26.4706 27.7114 25.0729C27.7547 24.2826 27.6665 23.4701 27.8253 22.7052C27.9248 22.2282 28.2698 21.6446 28.6806 21.4141C31.0074 20.1054 32.58 18.1353 33.8156 15.8678C36.0702 11.7319 36.7089 7.19847 37.0603 2.59828C37.1101 1.9352 36.8661 1.5981 36.2066 1.55835C34.9116 1.48043 33.6166 1.36117 32.3217 1.34527C28.3228 1.29916 24.3223 1.2769 20.3234 1.28167C18.9931 1.28167 17.6628 1.38979 16.3325 1.44863C15.4933 1.4852 15.1402 1.83821 15.1964 2.74616C15.4403 6.66101 16.0389 10.5075 17.5874 14.1329C18.8102 16.9951 20.4518 19.6109 23.3065 21.1819C24.0559 21.5938 24.4844 22.0565 24.5357 22.9088C24.6577 24.9537 24.8952 26.989 22.4031 28.0114C21.912 28.2134 21.6489 28.9576 21.1306 29.6508H30.8486ZM36.9528 51.5673C36.9817 51.3765 37.025 51.2191 37.025 51.0617C37.0282 46.6332 37.0202 42.2048 37.0346 37.7779C37.0378 36.8525 36.5035 36.7109 35.7348 36.7125C29.2984 36.7316 22.862 36.7443 16.4256 36.73C15.5173 36.7284 15.2076 37.0512 15.2157 37.9576C15.2526 42.1205 15.2301 46.285 15.2317 50.4479C15.2317 50.8025 15.2622 51.1571 15.2798 51.5673H36.9528ZM13.8469 44.5502C9.87525 44.5502 6.01437 44.5327 2.15669 44.5899C1.89673 44.5931 1.44742 45.1608 1.42495 45.4899C1.3383 46.7716 1.38644 48.0627 1.38483 49.3507C1.38483 50.0949 1.38483 50.8375 1.38483 51.5769H13.8469V44.5502ZM38.3954 44.6011V51.5896H50.5461C50.567 51.1937 50.5991 50.8375 50.6007 50.4829C50.6039 49.0279 50.5847 47.573 50.5991 46.1196C50.6135 44.5947 50.6248 44.5995 49.0538 44.6027C46.1172 44.6074 43.1822 44.6027 40.2456 44.6027C39.6503 44.6027 39.0549 44.6027 38.3954 44.6027V44.6011ZM18.4956 35.3244H33.7659V31.0915H18.4956V35.3244ZM13.956 4.16136C12.929 4.16136 11.9405 4.155 10.9536 4.16136C9.40829 4.17249 8.73592 4.95323 9.07291 6.44158C9.77576 9.55025 11.35 12.201 13.55 14.4955C14.7359 15.731 16.0806 16.7646 17.8811 17.6407C15.3617 13.419 14.4952 9.00007 13.956 4.16136ZM34.4286 17.4563C34.5538 17.496 34.5923 17.5215 34.6116 17.5119C39.3069 15.0059 42.1023 11.1101 43.1533 5.96614C43.3218 5.13769 42.688 4.27426 41.8952 4.22019C40.7174 4.14069 39.5299 4.19952 38.3601 4.19952C37.7295 8.96509 36.9175 13.4301 34.4286 17.4547V17.4563Z" fill="#B61BAD"/>
<path d="M26.1532 13.8769C25.2658 14.4175 24.4266 14.9518 23.5616 15.44C23.3306 15.5704 23.0192 15.5624 22.7448 15.6181C22.6871 15.3239 22.4897 14.9645 22.594 14.7435C23.5311 12.7495 23.2246 11.1833 21.1739 10.0765C20.885 9.92071 20.7566 9.47548 20.5544 9.16382C20.9123 8.98731 21.2862 8.63431 21.6248 8.66611C23.7141 8.86487 24.9208 7.976 25.391 5.9661C25.4632 5.65762 25.8628 5.42546 26.1115 5.15833C26.3634 5.4191 26.7662 5.64331 26.8432 5.94861C27.3166 7.8154 28.3195 8.90145 30.4137 8.60092C30.603 8.57388 30.8213 8.61682 31.0026 8.68519C31.2609 8.78537 31.6284 8.89032 31.7054 9.0859C31.776 9.26399 31.5803 9.62813 31.3989 9.80622C30.8341 10.3659 30.1778 10.8382 29.6418 11.4218C29.3979 11.6889 29.2134 12.1516 29.2503 12.4983C29.3305 13.244 29.6065 13.9675 29.7269 14.7133C29.7718 14.99 29.6787 15.3637 29.5038 15.5688C29.4155 15.6721 28.9598 15.5656 28.7368 15.4384C27.8718 14.9486 27.0342 14.4112 26.1548 13.8737L26.1532 13.8769ZM29.3481 9.76329C27.4386 10.0909 26.5865 9.12088 26.1179 7.45922C25.8724 9.37371 24.6962 9.88096 22.9647 9.78237C24.2484 10.7571 25.115 11.7875 24.3126 13.5493C25.6172 12.2455 26.8031 12.5476 28.1141 13.516C27.2396 11.8241 27.8622 10.7142 29.3481 9.76488V9.76329Z" fill="#B61BAD"/>
<path d="M26.0698 42.2699C25.3124 42.7597 24.7668 43.1127 24.1746 43.4959C23.9628 43.2145 23.7911 42.9871 23.528 42.6373C24.5469 41.8883 25.4969 41.1314 26.5095 40.4684C27.0117 40.1392 27.3728 40.5065 27.3744 41.0122C27.3872 43.251 27.3744 45.4899 27.3054 47.7272C27.2974 47.9689 26.8786 48.1995 26.6491 48.4348C26.4549 48.1883 26.1003 47.9466 26.0939 47.6954C26.0441 45.9574 26.0682 44.2162 26.0682 42.2699H26.0698Z" fill="#B61BAD"/>
</g>
<defs>
<clipPath id="clip0_1071_181">
<rect width="52" height="53" fill="white"/>
</clipPath>
</defs>
</svg>
