<?xml version="1.0" encoding="UTF-8"?>
<svg id="Layer_2" data-name="Layer 2" xmlns="http://www.w3.org/2000/svg" viewBox="0 0 303.46 287.99">
  <g id="Layer_1-2" data-name="Layer 1">
    <g>
      <path d="m165.38,255.36c1.71,1.88,3.48,3.84,5.97,6.59-14.53,8.78-28.61,17.45-42.94,25.69-1.56.9-4.84-.13-6.82-1.19-24.82-13.37-47.31-30.18-68.46-48.61-10.57-9.22-20.39-19.66-28.89-30.81C8.67,186.61,1.63,162.6.83,137.22-.16,106.08.29,74.9,0,43.74c-.03-3.67,1.42-5.07,4.93-5.7C45,30.94,83.62,19.14,120.35,1.53c4.35-2.08,7.82-2.01,12.17.05,36.8,17.41,75.37,29.39,115.43,36.47,4.05.72,5.11,2.35,5.1,6.09-.11,23.91-.02,47.82-.14,71.72-.02,3.24-.79,6.49-1.19,9.6-6.22.44-7.48-2.49-7.41-7.9.28-23.47.12-46.95.12-70.84-11.51-2.72-22.82-5.07-33.96-8.1-27.07-7.37-53.69-16.06-79.2-27.96-2.66-1.24-6.91-.99-9.69.23C86.64,26.2,50.71,38.21,13.15,45.26c-1.72.32-4.32,2.87-4.31,4.38.05,30.11-.42,60.25.97,90.31,1.61,34.76,17.43,63.2,43.11,86.25,20.92,18.77,43.39,35.47,67.61,49.8,4.02,2.38,7.04,2.81,11.23.07,10.9-7.15,22.18-13.72,33.62-20.71Z"/>
      <path d="m221.05,123.33c-2.86.17-4.9.3-7.47.45v-53.27c-8.82-2.24-17.38-3.88-25.57-6.61-19.47-6.48-38.77-13.5-58.16-20.2-1.6-.55-3.75-1.05-5.15-.44-27.11,11.82-55.28,20.32-84.02,27.09-.17.04-.29.26-.68.61,0,18.84-.28,37.91.13,56.97.17,7.82,1.47,15.68,2.89,23.41,4.3,23.44,17.75,41.47,35.45,56.32,15.23,12.78,31.39,24.44,46.99,36.49,8.55-5.39,15.9-10.01,23.85-15.02,1.3,2.61,2.44,4.9,3.86,7.74-8.3,5.1-16.16,10.09-24.21,14.74-1.25.72-3.75.55-5.03-.24-25.54-15.75-50.03-32.93-69.21-56.4-14.83-18.14-22-39.35-22.48-62.69-.43-20.54-.24-41.09-.69-61.62-.11-5.2,1.67-7.16,6.66-8.3,29.19-6.64,57.83-15.03,85.05-27.8,1.88-.88,4.9-.76,6.84.12,27.71,12.62,56.65,21.35,86.25,28.13,1.76.4,4.47,2.48,4.49,3.82.3,18.66.2,37.33.2,56.69Z"/>
      <path d="m303.44,202.26c.91,40.99-32.18,75.33-74.02,75.45-41.04.12-73.96-28.97-75.07-72.74-1.06-41.74,31.43-75.49,75.17-75.13,42.18.35,73.75,35.01,73.92,72.41Zm-75.78,67.1c35.61.57,66.94-29.29,67.68-64.52.74-35.12-30.73-66.6-66.88-66.89-35.18-.28-65.05,29.05-65.89,64.71-.84,35.55,28.99,66.11,65.09,66.7Z"/>
      <path d="m78.74,127.46c11.5,12.1,22.93,24.12,34.9,36.7,8.9-8.97,16.73-16.9,24.59-24.79,14.07-14.12,28.12-28.25,42.27-42.28,1.97-1.95,3.79-6.15,7.43-2.79,3.77,3.48.66,6.37-1.83,8.9-15.88,16.12-31.8,32.19-47.7,48.28-6.57,6.64-13.19,13.22-19.65,19.96-2.96,3.09-5.41,3.01-8.38-.02-11.18-11.43-22.45-22.77-33.75-34.08-3.71-3.71-4.66-6.89,2.13-9.89Z"/>
      <path d="m214.02,223.44c17.22-16.63,32.75-31.62,48.27-46.62,2.01-1.94,3.74-5.2,7.11-2.33,3.35,2.85,1.46,5.36-.92,7.81-16.22,16.69-32.43,33.4-48.58,50.16-2.46,2.55-4.29,2.39-6.71-.12-8.22-8.53-16.71-16.81-24.84-25.43-1.06-1.12-.57-3.7-.8-5.6,2.14.01,5.21-.89,6.26.18,7.25,7.39,14.07,15.2,20.2,21.95Z"/>
    </g>
  </g>
</svg>