<svg viewBox="0 0 52 49" fill="none" xmlns="http://www.w3.org/2000/svg">
<g clip-path="url(#clip0_1071_166)">
<path d="M28.339 43.4484C28.632 43.7683 28.9353 44.1018 29.362 44.5697C26.8722 46.0636 24.4595 47.5387 22.0039 48.9407C21.7366 49.0938 21.1745 48.9186 20.8353 48.7382C16.5822 46.4634 12.7284 43.6033 9.10416 40.4675C7.29291 38.8988 5.61019 37.1224 4.15365 35.2253C1.48562 31.751 0.279268 27.6658 0.142182 23.3475C-0.0274611 18.0492 0.0496495 12.7441 -4.40208e-05 7.44238C-0.00518473 6.81794 0.243283 6.57974 0.844746 6.47255C7.71102 5.26452 14.3288 3.25681 20.6228 0.260562C21.3682 -0.0933392 21.9628 -0.081429 22.7082 0.269069C29.0141 3.23129 35.6234 5.26963 42.4879 6.47425C43.1819 6.59676 43.3636 6.87409 43.3619 7.51043C43.343 11.5786 43.3584 15.6468 43.3379 19.7132C43.3344 20.2645 43.2025 20.8175 43.1339 21.3466C42.0681 21.4215 41.8522 20.9229 41.8642 20.0025C41.9122 16.0092 41.8848 12.0142 41.8848 7.94941C39.9124 7.48661 37.9744 7.08677 36.0655 6.57123C31.4268 5.31727 26.8653 3.83871 22.494 1.81398C22.0382 1.603 21.3099 1.64554 20.8335 1.85312C14.8463 4.45803 8.68947 6.50147 2.2533 7.70099C1.95857 7.75544 1.51304 8.18931 1.51475 8.44623C1.52332 13.5693 1.44278 18.6975 1.68097 23.812C1.95685 29.7262 4.66772 34.5652 9.06817 38.487C12.653 41.6806 16.5034 44.522 20.6536 46.9602C21.3425 47.3652 21.86 47.4383 22.578 46.9721C24.4457 45.7556 26.3787 44.6377 28.339 43.4484Z" fill="#B61BAD"/>
<path d="M37.8785 20.984C37.3884 21.0129 37.0388 21.035 36.5984 21.0605V11.9969C35.0871 11.6158 33.6202 11.3367 32.2168 10.8722C28.8805 9.76971 25.5733 8.57529 22.2507 7.43532C21.9765 7.34174 21.6081 7.25667 21.3682 7.36045C16.7227 9.37157 11.8956 10.8178 6.97079 11.9697C6.94166 11.9765 6.9211 12.0139 6.85427 12.0735C6.85427 15.279 6.80629 18.5237 6.87655 21.7666C6.90568 23.0972 7.12844 24.4345 7.37177 25.7497C8.1086 29.7379 10.4134 32.8056 13.4464 35.3323C16.0561 37.5067 18.8253 39.4906 21.4984 41.5408C22.9635 40.6238 24.223 39.8377 25.5853 38.9853C25.8081 39.4294 26.0034 39.819 26.2467 40.3022C24.8245 41.1699 23.4776 42.019 22.0982 42.8101C21.884 42.9326 21.4556 42.9037 21.2363 42.7693C16.8598 40.0895 12.6633 37.1664 9.37665 33.1731C6.83542 30.0867 5.60679 26.4779 5.52454 22.5067C5.45086 19.012 5.48342 15.5155 5.4063 12.0224C5.38746 11.1377 5.69247 10.8042 6.54754 10.6102C11.5495 9.48046 16.4571 8.05294 21.1215 5.8802C21.4436 5.73047 21.9611 5.75089 22.2935 5.90061C27.0418 8.04784 32.0009 9.5332 37.0731 10.6868C37.3747 10.7548 37.8391 11.1087 37.8425 11.3367C37.8939 14.5116 37.8767 17.6882 37.8767 20.9823L37.8785 20.984Z" fill="#B61BAD"/>
<path d="M51.9966 34.4136C52.1525 41.3878 46.4823 47.2306 39.3127 47.251C32.2802 47.2714 26.6392 42.3219 26.449 34.8747C26.2673 27.7728 31.8347 22.0304 39.3299 22.0917C46.5577 22.1512 51.9674 28.0484 51.9966 34.4119V34.4136ZM39.0111 45.8303C45.1132 45.9273 50.4818 40.8467 50.6086 34.8525C50.7354 28.877 45.3428 23.5209 39.1482 23.4715C33.1199 23.4239 28.0014 28.4143 27.8575 34.4816C27.7136 40.5303 32.8251 45.7299 39.0111 45.8303Z" fill="#B61BAD"/>
<path d="M13.4927 21.6867C15.4633 23.7454 17.4219 25.7906 19.473 27.931C20.9981 26.4048 22.3398 25.0556 23.6867 23.7131C26.0977 21.3107 28.5052 18.9065 30.9299 16.5194C31.2675 16.1876 31.5794 15.473 32.2031 16.0447C32.8491 16.6368 32.3162 17.1285 31.8895 17.559C29.1684 20.3017 26.4404 23.0359 23.7158 25.7736C22.59 26.9033 21.4556 28.0229 20.3486 29.1697C19.8414 29.6954 19.4216 29.6818 18.9127 29.1663C16.9969 27.2215 15.0657 25.2921 13.1294 23.3677C12.4936 22.7365 12.3309 22.1954 13.4944 21.685L13.4927 21.6867Z" fill="#B61BAD"/>
<path d="M36.6738 38.0172C39.6246 35.1876 42.2858 32.6372 44.9452 30.085C45.2897 29.7549 45.5861 29.2002 46.1636 29.6886C46.7376 30.1735 46.4138 30.6005 46.0059 31.0174C43.2265 33.8571 40.4488 36.7002 37.6814 39.5519C37.2599 39.9857 36.9463 39.9585 36.5316 39.5314C35.1231 38.0801 33.6682 36.6713 32.2751 35.2047C32.0935 35.0141 32.1774 34.5751 32.138 34.2518C32.5047 34.2535 33.0308 34.1004 33.2107 34.2825C34.453 35.5398 35.6217 36.8687 36.6721 38.0172H36.6738Z" fill="#B61BAD"/>
</g>
<defs>
<clipPath id="clip0_1071_166">
<rect width="52" height="49" fill="white"/>
</clipPath>
</defs>
</svg>
