<?xml version="1.0" encoding="UTF-8"?>
<svg id="Layer_2" data-name="Layer 2" xmlns="http://www.w3.org/2000/svg" viewBox="0 0 335.47 342.11">
  <g id="Layer_1-2" data-name="Layer 1">
    <g>
      <path d="m47.94,227.68c13.98-7.97,26.4-16.43,39.92-22.43,17.86-7.92,36.53-6.06,54.71.3,6.85,2.4,13.42,5.65,20.35,7.76,7.22,2.2,14.65,4.33,22.12,5,9.7.87,19.53.02,29.29.35,16.41.56,26.58,11.76,24.26,26.29-1.67,10.45-9.41,17.82-21.33,18.21-16.59.54-33.22.02-49.83-.19-8.7-.11-17.4-.35-26.08-.91-1.79-.12-3.48-1.88-5.22-2.89,1.52-1.28,2.98-3.58,4.57-3.67,9.02-.55,18.07-.8,27.11-.73,14.12.12,28.23.63,42.35.85,2.67.04,5.39-.28,8.02-.77,7.73-1.45,13.01-6.99,12.77-13.16-.26-6.69-6.23-13.7-13.36-14.49-7.41-.82-14.94-1.18-22.39-.89-15.81.6-30.92-1.27-45.24-8.71-5.82-3.03-12.38-4.78-18.75-6.62-20.4-5.89-39.04-.63-56.48,9.96-7.4,4.5-14.14,10.09-21.66,15.54,12.82,23.41,25.45,46.46,38.34,70,14.85-10.12,30.97-11.59,47.63-11.2,19.11.45,38.24.74,57.35.49,19.23-.25,36.04-7.39,50.48-19.99,24.73-21.58,49.35-43.29,74.05-64.92,6.73-5.89,8.08-11.1,4.29-17.31-3.27-5.37-11.61-7.37-18.42-4.14-2.6,1.23-5,2.96-7.28,4.74-16.73,13-33.39,26.09-50.1,39.11-1.96,1.53-3.78,4.53-6.69,1.14-2.76-3.22-1.43-5.52,1.41-7.75,16.33-12.8,32.63-25.65,49.13-38.63-4.36-4.92-8.65-2.97-12.49-.47-12.51,8.14-24.86,16.51-37.25,24.84-3.44,2.31-6.78,4.75-10.55,7.41-1.83-1.94-3.49-3.71-5.43-5.79,1.33-1.25,2.42-2.43,3.67-3.42,9.91-7.89,19.75-15.9,29.88-23.5,2.19-1.65,5.51-1.77,8.27-2.69,1.66-.55,3.48-1,4.85-2.01,8.17-5.98,16.53-8.23,26.06-2.84,2.02,1.15,5.16,1.15,7.57.65,11-2.27,20.92,1.53,25.26,10.08,4.78,9.42,2.16,19.91-6.48,27.41-23.37,20.28-46.92,40.36-69.86,61.11-19.31,17.46-41.53,26.02-67.48,25.67-21.2-.28-42.4-.06-63.6-.2-10.34-.07-19.56,3.3-28.25,8.49-1.06.63-2.33,1.98-2.4,3.06-.43,6.21-4.2,9.51-9.31,12.17-7.36,3.83-14.42,8.27-21.84,11.98-9.15,4.58-16.93,1.57-21.84-7.41-13.05-23.88-26.28-47.65-39.43-71.48-5.11-9.26-2.69-16.73,6.69-21.66,7.16-3.77,14.16-7.85,21.25-11.78,6.35-3.52,12.57-3.66,17.39.02Zm38.74,88.32c-.86-1.85-1.38-3.2-2.08-4.46-2.32-4.18-4.75-8.29-7.05-12.48-11.19-20.4-22.37-40.8-33.48-61.24-1.91-3.52-3.82-5.83-8.25-3.32-7.58,4.31-15.35,8.27-22.98,12.49-4.11,2.28-5.28,5.42-2.82,9.85,13.3,23.97,26.44,48.03,39.75,71.99,2.23,4.02,5.54,6.17,10.32,3.5,7.79-4.35,15.65-8.59,23.4-13.02,1.3-.74,2.16-2.23,3.19-3.32Z"/>
      <path d="m197.21,207.77c11.82-8.75,23.35-16.59,34.06-25.43,9.59-7.91,18.92-16.34,27.25-25.55,26.45-29.24,12.83-72.34-25.18-79.84-15.03-2.96-28.4,1.86-39.48,12.3-3.71,3.5-6.05,4.28-10.26.38-19.05-17.61-44.28-17.9-63.13-1.2-17.92,15.88-21.73,44.05-5.6,63.01,12.92,15.19,29.17,27.59,44.26,40.87,6.16,5.43,13.15,9.92,20.31,15.24-6.31,4.36-11.55.8-15.05-1.48-19.48-12.71-38.12-26.81-53.14-44.68-15.32-18.24-19.83-39.35-9.47-61.6,9.88-21.22,27.59-31.68,50.84-31.8,13.55-.07,25.5,5.14,35.76,14.91,9.95-9.86,22.13-14.84,35.87-14.95,22.58-.17,39.72,10.06,50.16,29.91,10.93,20.79,8.8,41.83-5.9,59.55-11.29,13.61-25.57,24.77-38.76,36.76-4.59,4.17-10.18,7.25-14.84,11.36-5.32,4.68-10.81,5.36-17.7,2.23Z"/>
      <path d="m277.4,0c1.77,3.06,3.2,4.59,3.59,6.35,3.2,14.53,11.56,23.43,26.68,25.6,1.78.26,3.31,2.33,4.95,3.56-1.57,1.24-3,3.28-4.73,3.59-14.75,2.66-24.79,9.94-27.09,25.74-.21,1.41-2.46,3.12-4.04,3.49-.83.19-3.05-2.12-3.29-3.53-2.6-15.46-12-23.39-27.13-25.54-1.52-.22-2.77-2.3-4.14-3.52,1.43-1.37,2.71-3.69,4.32-3.96,14.79-2.46,23.89-10.56,26.81-25.49.36-1.83,2.14-3.39,4.08-6.29Zm-.12,21.45c-4.78,4.56-9.91,9.45-15.03,14.34.83-1.12,1.66-2.24,2.49-3.36,4.93,5.23,9.85,10.46,14.07,14.94,3.13-2.95,8.32-7.82,12.7-11.95-4.47-4.39-9.53-9.35-14.23-13.97Z"/>
      <path d="m61.93,319.18c-1.62-2.21-4.94-4.92-4.46-6.5.76-2.52,4.04-4.28,6.25-6.36,1.65,1.98,4.55,3.91,4.62,5.94.07,2.25-2.44,4.59-3.83,6.89-.86.01-1.71.02-2.57.03Z"/>
    </g>
  </g>
</svg>