<svg viewBox="0 0 52 53" fill="none" xmlns="http://www.w3.org/2000/svg">
<g clip-path="url(#clip0_1071_174)">
<path d="M7.43103 35.2725C9.59802 34.0377 11.5232 32.7271 13.6189 31.7976C16.3873 30.5706 19.2813 30.8588 22.0993 31.8441C23.1611 32.2159 24.1795 32.7194 25.2537 33.0462C26.3728 33.3871 27.5245 33.717 28.6824 33.8208C30.186 33.9556 31.7097 33.8239 33.2225 33.8751C35.7662 33.9618 37.3426 35.6969 36.983 37.9479C36.7241 39.5669 35.5244 40.7086 33.6767 40.769C31.1052 40.8527 28.5274 40.7721 25.9527 40.7396C24.6042 40.7226 23.2556 40.6854 21.9102 40.5986C21.6327 40.58 21.3708 40.3074 21.101 40.1509C21.3367 39.9526 21.563 39.5963 21.8094 39.5824C23.2076 39.4971 24.6104 39.4584 26.0116 39.4693C28.2003 39.4879 30.3875 39.5669 32.5762 39.6009C32.99 39.6071 33.4117 39.5576 33.8193 39.4817C35.0175 39.257 35.836 38.3988 35.7988 37.4429C35.7584 36.4065 34.8331 35.3205 33.7279 35.1981C32.5793 35.0711 31.4121 35.0153 30.2573 35.0602C27.8066 35.1532 25.4645 34.8635 23.2448 33.7109C22.3426 33.2414 21.3258 32.9703 20.3384 32.6853C17.1763 31.7728 14.287 32.5877 11.5836 34.2283C10.4366 34.9254 9.39186 35.7914 8.22621 36.6358C10.2134 40.2625 12.1711 43.8334 14.1692 47.4802C16.471 45.9124 18.9697 45.6847 21.5521 45.7451C24.5143 45.8148 27.4796 45.8597 30.4417 45.821C33.4225 45.7823 36.0282 44.6762 38.2665 42.7241C42.0998 39.381 45.916 36.0176 49.7447 32.6667C50.7879 31.7542 50.9971 30.9471 50.4097 29.985C49.9028 29.1531 48.61 28.8432 47.5544 29.3436C47.1514 29.5342 46.7794 29.8022 46.426 30.078C43.8327 32.0919 41.2503 34.1198 38.6602 36.1369C38.3564 36.3739 38.0742 36.8387 37.6232 36.3135C37.1954 35.8147 37.4015 35.4584 37.8417 35.1129C40.373 33.1299 42.8996 31.1392 45.4572 29.1283C44.7814 28.3661 44.1164 28.6682 43.5212 29.0555C41.582 30.3165 39.6677 31.6132 37.7472 32.9037C37.214 33.2616 36.6962 33.6396 36.1119 34.0517C35.8282 33.7511 35.5709 33.4769 35.2702 33.1547C35.4763 32.961 35.6453 32.7782 35.8391 32.6249C37.3752 31.4025 38.9004 30.1616 40.4706 28.9842C40.8101 28.7286 41.3247 28.71 41.7525 28.5675C42.0099 28.4823 42.292 28.4126 42.5043 28.2561C43.7707 27.3297 45.0666 26.9811 46.5438 27.8161C46.8569 27.9943 47.3436 27.9943 47.7172 27.9168C49.4223 27.5651 50.9599 28.1538 51.6327 29.4784C52.3736 30.9378 51.9675 32.5629 50.6282 33.7248C47.0057 36.8666 43.3553 39.9774 39.7995 43.192C36.8063 45.8969 33.362 47.2231 29.3396 47.1688C26.0535 47.1255 22.7674 47.1595 19.4812 47.1378C17.8785 47.127 16.4493 47.6491 15.1023 48.4531C14.938 48.5507 14.7411 48.7599 14.7303 48.9272C14.6636 49.8892 14.0793 50.4005 13.2872 50.8126C12.1463 51.4059 11.052 52.0938 9.90183 52.6685C8.48352 53.3781 7.27757 52.9118 6.51649 51.5206C4.49366 47.821 2.44292 44.1386 0.404586 40.4468C-0.387496 39.0122 -0.0123809 37.855 1.44158 37.0912C2.55143 36.5072 3.63647 35.8751 4.73547 35.2663C5.71976 34.7209 6.6839 34.6992 7.43103 35.2694V35.2725ZM13.436 48.9551C13.3027 48.6685 13.2221 48.4593 13.1136 48.2641C12.7539 47.6166 12.3773 46.9798 12.0208 46.3307C10.2862 43.1703 8.55327 40.0099 6.83115 36.8434C6.53509 36.298 6.23903 35.9402 5.55235 36.329C4.3774 36.9967 3.173 37.6102 1.9903 38.264C1.35323 38.6172 1.17187 39.1036 1.55318 39.7899C3.61477 43.5034 5.65155 47.2308 7.71469 50.9427C8.06035 51.5655 8.57342 51.8986 9.31435 51.4849C10.5219 50.811 11.7402 50.1542 12.9415 49.4679C13.143 49.3532 13.2763 49.1224 13.436 48.9535V48.9551Z" fill="#B61BAD"/>
<path d="M30.5688 32.188C32.401 30.8324 34.1882 29.6178 35.8483 28.2483C37.3349 27.0229 38.7811 25.7169 40.0723 24.2901C44.1722 19.7602 42.061 13.0831 36.1692 11.9212C33.8395 11.4627 31.767 12.2094 30.0496 13.8268C29.4745 14.369 29.1118 14.4898 28.4592 13.8856C25.5063 11.1575 21.5955 11.1125 18.6736 13.6997C15.8959 16.1599 15.3053 20.524 17.8056 23.4613C19.8083 25.8145 22.3271 27.7356 24.6662 29.7929C25.621 30.6341 26.7045 31.3297 27.8144 32.1539C26.8363 32.8294 26.024 32.2778 25.4815 31.9246C22.462 29.9556 19.5727 27.7712 17.2445 25.0027C14.8698 22.177 14.1707 18.9066 15.7766 15.4596C17.308 12.1722 20.0532 10.5517 23.6571 10.5331C25.7574 10.5223 27.6098 11.3294 29.2001 12.843C30.7424 11.3155 32.6304 10.544 34.7602 10.5269C38.2602 10.5006 40.9171 12.0854 42.5353 15.1606C44.2295 18.3814 43.8994 21.641 41.6208 24.3862C39.8708 26.4946 37.6573 28.2236 35.6127 30.0811C34.9013 30.7271 34.0348 31.2042 33.3124 31.841C32.4878 32.566 31.6368 32.6713 30.5688 32.1864V32.188Z" fill="#B61BAD"/>
<path d="M42.9988 0C43.2732 0.474058 43.4948 0.711087 43.5553 0.983748C44.0513 3.23475 45.3472 4.61355 47.6909 4.94972C47.9668 4.99 48.2039 5.31069 48.4582 5.50124C48.2148 5.69334 47.9931 6.00938 47.725 6.05741C45.4386 6.4695 43.8824 7.59732 43.5258 10.0451C43.4933 10.2635 43.1445 10.5284 42.8996 10.5857C42.771 10.6152 42.4269 10.2573 42.3897 10.0389C41.9866 7.6438 40.5296 6.41528 38.1843 6.0822C37.9487 6.04811 37.755 5.72588 37.5426 5.53687C37.7643 5.32463 37.9627 4.96522 38.2122 4.92339C40.5048 4.54228 41.9153 3.28742 42.368 0.974453C42.4238 0.690947 42.6997 0.449271 43.0004 0L42.9988 0ZM42.9802 3.32305C42.2393 4.02949 41.4441 4.78706 40.6505 5.54462C40.7791 5.37111 40.9078 5.1976 41.0364 5.02409C41.8006 5.83432 42.5633 6.64456 43.2174 7.3386C43.7026 6.88159 44.507 6.12712 45.186 5.4873C44.4931 4.8072 43.7088 4.03879 42.9802 3.32305Z" fill="#B61BAD"/>
<path d="M9.59955 49.4476C9.34844 49.1052 8.83382 48.6854 8.90822 48.4406C9.02602 48.0502 9.53445 47.7776 9.87701 47.4553C10.1328 47.7621 10.5823 48.0611 10.5931 48.3756C10.604 48.7241 10.2149 49.0866 9.99946 49.443C9.86616 49.4445 9.7344 49.4461 9.6011 49.4476H9.59955Z" fill="#B61BAD"/>
</g>
<defs>
<clipPath id="clip0_1071_174">
<rect width="52" height="53" fill="white"/>
</clipPath>
</defs>
</svg>
