<?xml version="1.0" encoding="UTF-8"?>
<svg id="Layer_2" data-name="Layer 2" xmlns="http://www.w3.org/2000/svg" viewBox="0 0 366.29 335.15">
  <g id="Layer_1-2" data-name="Layer 1">
    <g>
      <path d="m205.71,158.5c3.94-1.92,7.7-4.82,11.85-5.56,9.96-1.79,16.63,3.61,21.17,11.96,10.62,19.52,21.14,39.09,31.71,58.64.79,1.46,1.57,2.93,2.47,4.33,4.41,6.92,7.23,7.38,14.21,2.96,4.51-2.86,9.03-6.62,14.02-7.63,9.3-1.89,17.31,2.05,22.54,10.02,13.9,21.19,27.43,42.62,41.24,63.87,3.26,5.02.31,6.54-4.13,8.1-1.23-1.55-2.61-3.04-3.7-4.72-12.26-18.79-24.46-37.63-36.74-56.41-2.04-3.12-4.03-6.37-6.62-9-5.43-5.5-10.52-5.65-16.61-1.08-1.99,1.5-3.86,3.17-5.91,4.58-9.83,6.77-18.71,5.09-24.78-5.17-4.86-8.22-9.11-16.8-13.64-25.21-6.79-12.62-13.8-25.13-20.35-37.87-7.7-14.99-18.15-12.06-26.55-.11-8.36,11.88-15.85,24.37-23.83,36.52-1.82,2.77-3.54,6.15-6.21,7.69-5.33,3.09-5.06,6.85-3.77,11.89,2.01,7.83,3.73,15.78,4.87,23.77,2,14.01-.28,19.31-17.35,21.39-2.44.3-4.97-.2-7.46-.34-5.38-.32-9.05-2.74-10.12-8.32-.12-.61-.4-1.18-.59-1.77-3.86-11.81-7.25-12.64-16.93-4.06-9.33,8.27-17.89,17.66-28.12,24.6-11.55,7.84-17.59,19.55-25.34,30.1-10.64,14.5-14.33,15.59-30.44,7.23-2.02-1.05-3.96-2.25-6.49-3.7-8.66,6.27-17.45,12.84-26.51,19.02-1.52,1.03-4.91,1.32-6.16.33-3.07-2.41-.39-4.27,1.4-6.47,8.51-10.45,23.78-12.69,29.53-27.39,4.9-12.54,13.26-24.07,21.66-34.82,12-15.35,14.48-33.03,16.13-51.34.32-3.61,2.35-7.05,2.74-10.66.5-4.56.12-9.21.12-14.77-2.25,0-4.82-.03-7.38,0-18.82.29-29.98-13.84-24.59-31.72,4.19-13.91,8.8-27.71,13.72-41.39,4.64-12.91,19.86-19.36,30.98-12.05,7.6,5,13.44,3.89,20.6-.26-7.82-8.55-11.53-18.48-8.21-30.06,2.33-8.14,7.32-14.29,14.8-18.46,14.64-8.15,34.21-2.84,42.41,11.53,8.08,14.18,5.03,34.34-15.82,44.58,8.27,6.12,16.13,12.35,24.48,17.85,2.21,1.46,6.04,1.42,8.86.82,8.1-1.74,16.06-4.12,24.72-6.42,0-1.99,0-4.19,0-6.4-.14-30.36-.19-60.71-.55-91.06-.03-2.94-1.43-6.17-3.06-8.72-3.63-5.7-3.83-12.18.16-15.4,3.97-3.2,16.2-2.27,19.24,1.59,3.28,4.15,2.37,7.96-2.26,11.9,2.61.17,4.34.38,6.08.38,25.37.04,50.73,0,76.1.19,2.12.02,4.24,1.54,6.36,2.37-.8,1.95-1.2,4.21-2.46,5.79-5.32,6.62-10.9,13.04-16.54,19.71,5.72,6.59,11.49,13.1,17.06,19.76,1.2,1.43,2.8,4.54,2.34,4.99-1.55,1.54-3.93,3.11-6,3.13-23.49.23-46.99.18-70.48.2-1.46,0-2.91-.05-4.37.03q-9.13.52-9.13-8.99c0-11.23,0-22.46-.04-33.68,0-2.23-.22-4.47-.35-6.77-5.28-.82-4.79,2.55-4.78,5.35.18,29.1.38,58.2.62,87.29.04,5.36-.73,10.32,5.96,13.8,6.76,3.51,7.58,22.22-3.11,25.77-1.33.44-2.28,2-3.41,3.04.25.24.51.48.76.72Zm-104.56-43.2c0,7.08,1.41,13.4-.26,18.76-5.23,16.8-11.35,33.35-17.7,49.77-2.91,7.5-1.97,14.09,4.78,18.54,2.9,1.91,6.19,3.46,9.51,4.49,12.29,3.79,24.59,7.61,37.06,10.74,4.9,1.23,6.81,3.6,7.65,8.24,1.76,9.79,3.81,19.53,6.01,29.24,1.59,7.02,5.88,9.35,13.56,7.86,6.01-1.17,8.05-4.32,6.77-11.53-2.36-13.28-5.35-26.45-7.33-39.79-.94-6.31-4.46-9.51-9.59-11.77-10.44-4.59-20.89-9.17-31.46-13.47-4.46-1.82-5.05-4.21-2.43-8.22,3.44.77,6.78,1.52,11.09,2.48,2.73-10.97,5.37-21.58,8.05-32.36,7.89,3.69,14.96,7.12,22.14,10.29,2.02.89,4.63,1.94,6.51,1.37,12.9-3.86,25.83-7.74,38.44-12.44,5.97-2.23,6.67-8.54,1.56-12.45-2.59-1.98-6.9-2.99-10.17-2.55-6.33.85-12.69,2.48-18.64,4.82-7.3,2.87-13.16,1.21-19.11-3.16-8.2-6.02-16.48-11.97-25.05-17.44-10.73-6.84-21.82-6.54-31.39-1.41Zm-62.99,190.21c2.31,1.88,4.12,3.56,6.14,4.95,10.83,7.43,12.27,7.12,19.78-3.55,9.08-12.89,18.14-25.8,27.36-38.59,10.32-14.32,15-31.08,21.3-46.71-12.12-4.82-23.54-9.36-34.57-13.75-.21,4.2.05,9.84-.89,15.26-1.86,10.73-2.23,22.47-7.09,31.78-9.07,17.39-20.9,33.34-32.04,50.6ZM285.94,24.72c-1.16-.44-1.72-.83-2.28-.83-20.79-.13-41.58-.19-62.36-.37-3.69-.03-3.87,2.14-3.84,4.88.09,9.98.31,19.96.06,29.94-.11,4.65,1.44,6.06,6.08,6,17.46-.24,34.93-.09,52.39-.09,3.24,0,6.47,0,11.38,0-6.62-7.75-12.05-14.11-17.68-20.7,5.52-6.39,10.65-12.33,16.25-18.81ZM83.16,111.67c-5.99-6.2-18.39-.52-21.15,8.45-3.97,12.9-7.94,25.84-12.87,38.39-4.02,10.26,2.49,19.04,10.52,21.88,8.82,3.12,17.96-.56,21.22-9.85,4.68-13.31,8.84-26.83,12.52-40.45.89-3.31-.99-7.36-1.6-11.08-.88-.02-1.77-.04-2.65-.06-2.62,5.54-5.05,11.18-7.96,16.56-.86,1.59-3.06,2.46-4.64,3.65-.97-1.97-3.22-4.41-2.7-5.84,2.55-7.02,5.83-13.77,9.32-21.65Zm68.12-29.16c.19-12.15-10.54-22.88-23.07-23.08-11.8-.19-22.95,10.71-22.95,22.45,0,11.66,10.42,22.4,22.04,22.71,12.41.33,23.79-10.15,23.98-22.08Zm48.31,77.88c-.69-.43-1.38-.87-2.08-1.3-9.11,2.65-18.34,4.96-27.3,8.04-10.61,3.65-18.39-3.96-27.52-6.49-2.25,7.85-4.4,15.31-6.57,22.88,5.25,2.38,10.02,4.37,14.64,6.67,8.26,4.13,17.3,7.56,18.23,20.37,2.2-2.96,3.46-4.51,4.56-6.16,6.9-10.35,13.97-20.59,20.55-31.14,2.44-3.91,3.7-8.57,5.49-12.88Zm-78.21,62.65c-5.31,12.9-10.63,25.85-16.57,40.27,10.62-8.69,17.5-20.34,31.68-19.77-2.24-20.28-1.23-17.11-15.11-20.5ZM208.22,10.34c-2.48-1.48-3.94-3.06-5.26-2.95-1.46.12-2.79,1.79-4.17,2.78,1.31,1.42,2.47,3.71,4,4,1.23.23,2.92-1.95,5.44-3.83Z"/>
      <path d="m284.62,303.63c-1.79,2.15-3.2,3.84-5.3,6.35-9.63-7.81-18.91-15.33-28.19-22.86-2.9-2.36-5.66-4.9-8.68-7.09-10.38-7.51-18.37-7.56-28.17.76-12.18,10.34-24.59,20.57-35.61,32.08-9.11,9.51-19.4,13.57-32.07,13.31-4.15-.09-8.31,0-12.46.24-3.26.19-5.71-.92-5.22-4.28.18-1.27,3-2.8,4.78-3.07,4.69-.73,9.5-1.3,14.23-1.08,10.79.5,18.29-5.28,25.58-12.07,10.63-9.91,21.37-19.7,32.3-29.28,16.12-14.12,29.71-13.81,45.88.1,10.52,9.05,21.5,17.58,32.94,26.88Z"/>
    </g>
  </g>
</svg>