<svg viewBox="0 0 52 48" fill="none" xmlns="http://www.w3.org/2000/svg">
<g clip-path="url(#clip0_1071_187)">
<path d="M29.2034 22.7003C29.7627 22.4253 30.2965 22.01 30.8857 21.904C32.2996 21.6477 33.2465 22.421 33.891 23.6169C35.3987 26.4126 36.8922 29.2154 38.3927 32.0153C38.5049 32.2244 38.6156 32.4349 38.7434 32.6355C39.3694 33.6265 39.7698 33.6924 40.7607 33.0594C41.4009 32.6498 42.0426 32.1113 42.751 31.9666C44.0713 31.6959 45.2084 32.2602 45.9509 33.4017C47.9242 36.4365 49.845 39.5057 51.8055 42.5491C52.2683 43.2681 51.8495 43.4858 51.2192 43.7092C51.0446 43.4872 50.8486 43.2738 50.6939 43.0332C48.9534 40.3421 47.2215 37.6438 45.4781 34.9542C45.1885 34.5073 44.906 34.0419 44.5383 33.6652C43.7675 32.8775 43.0449 32.856 42.1803 33.5105C41.8978 33.7254 41.6323 33.9645 41.3413 34.1665C39.9458 35.1361 38.6852 34.8955 37.8234 33.426C37.1335 32.2488 36.5302 31.0199 35.8871 29.8155C34.9231 28.008 33.928 26.2164 32.9981 24.3917C31.905 22.2449 30.4214 22.6645 29.2289 24.376C28.0421 26.0774 26.9788 27.8662 25.8459 29.6064C25.5876 30.0031 25.3434 30.4872 24.9643 30.7077C24.2077 31.1503 24.246 31.6888 24.4291 32.4106C24.7145 33.532 24.9587 34.6706 25.1205 35.8149C25.4044 37.8214 25.0808 38.5805 22.6574 38.8784C22.311 38.9214 21.9519 38.8497 21.5984 38.8297C20.8346 38.7839 20.3136 38.4373 20.1617 37.6381C20.1447 37.5507 20.1049 37.4691 20.0779 37.3846C19.53 35.6932 19.0487 35.5743 17.6745 36.8031C16.35 37.9876 15.1348 39.3324 13.6825 40.3263C12.0428 41.4492 11.1853 43.1263 10.0851 44.6372C8.5746 46.7139 8.05075 46.87 5.76371 45.6727C5.47694 45.5223 5.20153 45.3505 4.84237 45.1428C3.61296 46.0408 2.36509 46.9817 1.0789 47.8668C0.863114 48.0144 0.381856 48.0559 0.204401 47.9141C-0.231428 47.5689 0.149035 47.3026 0.403151 46.9875C1.61126 45.4908 3.77906 45.17 4.59535 43.0647C5.29097 41.2687 6.47779 39.6174 7.67029 38.0778C9.37386 35.8794 9.72593 33.3473 9.96017 30.7249C10.0056 30.2079 10.2938 29.7152 10.3492 29.1982C10.4201 28.5451 10.3662 27.8791 10.3662 27.0828C10.0468 27.0828 9.68192 27.0785 9.31849 27.0828C6.64673 27.1244 5.06241 25.1007 5.8276 22.5399C6.42243 20.5477 7.07688 18.5713 7.77534 16.6121C8.43406 14.7631 10.5947 13.8393 12.1734 14.8863C13.2523 15.6024 14.0814 15.4434 15.0978 14.849C13.9877 13.6245 13.461 12.2023 13.9323 10.5439C14.2631 9.37805 14.9715 8.49725 16.0334 7.90002C18.1117 6.73278 20.89 7.49328 22.0541 9.55134C23.2012 11.5822 22.7682 14.4695 19.8082 15.9361C20.9823 16.8126 22.0981 17.7048 23.2835 18.4925C23.5972 18.7016 24.141 18.6959 24.5413 18.61C25.6912 18.3608 26.8212 18.0199 28.0506 17.6905C28.0506 17.4055 28.0506 17.0904 28.0506 16.7739C28.0308 12.4258 28.0237 8.07905 27.9726 3.73234C27.9683 3.31127 27.7696 2.84867 27.5382 2.48346C27.0228 1.66711 26.9944 0.739049 27.5609 0.277882C28.1245 -0.18042 29.8607 -0.0472259 30.2923 0.505601C30.7579 1.09996 30.6287 1.64563 29.9714 2.20991C30.3419 2.23426 30.5875 2.26434 30.8346 2.26434C34.4362 2.27007 38.0364 2.26434 41.638 2.29155C41.939 2.29441 42.2399 2.51211 42.5409 2.63098C42.4273 2.91026 42.3706 3.23393 42.1917 3.46022C41.4364 4.40833 40.6443 5.3278 39.8436 6.28307C40.6556 7.22689 41.4748 8.15925 42.2655 9.11309C42.4359 9.31789 42.663 9.76331 42.5977 9.82776C42.3777 10.0483 42.0398 10.2732 41.7459 10.276C38.4112 10.309 35.075 10.3018 31.7403 10.3047C31.533 10.3047 31.3272 10.2975 31.1199 10.309C30.2558 10.3586 29.8238 9.92944 29.8238 9.02143C29.8238 7.41308 29.8238 5.80472 29.8181 4.1978C29.8181 3.87842 29.7869 3.55761 29.7684 3.2282C29.0188 3.11076 29.0884 3.59341 29.0898 3.99443C29.1154 8.16211 29.1438 12.3298 29.1778 16.4961C29.1835 17.2637 29.0742 17.9741 30.0239 18.4725C30.9836 18.9752 31.1 21.6548 29.5824 22.1632C29.3936 22.2263 29.2588 22.4497 29.0983 22.5986C29.1338 22.633 29.1707 22.6674 29.2062 22.7018L29.2034 22.7003ZM14.3596 16.5132C14.3596 17.5272 14.5598 18.4324 14.3227 19.2C13.5803 21.6061 12.7114 23.9764 11.81 26.3281C11.3968 27.4022 11.5303 28.346 12.4885 28.9834C12.9002 29.2569 13.3673 29.4789 13.8386 29.6264C15.5834 30.1692 17.3295 30.7163 19.0998 31.1646C19.7954 31.3407 20.0666 31.6802 20.1858 32.3447C20.4357 33.7468 20.7267 35.1418 21.039 36.5325C21.2648 37.5379 21.8738 37.8716 22.9641 37.6582C23.8173 37.4906 24.1069 37.0395 23.9252 36.0068C23.5901 34.1049 23.1657 32.2187 22.8846 30.3081C22.7511 29.4044 22.2514 28.9461 21.5231 28.6224C20.041 27.9651 18.5575 27.3091 17.0569 26.6933C16.4238 26.4326 16.34 26.0903 16.712 25.516C17.2003 25.6263 17.6745 25.7337 18.2864 25.8712C18.6739 24.3001 19.0487 22.7805 19.4292 21.2366C20.5493 21.7651 21.5529 22.2563 22.5723 22.7103C22.859 22.8378 23.2295 22.9882 23.4964 22.9066C25.3278 22.3537 27.1634 21.798 28.9535 21.1249C29.8011 20.8055 29.9004 19.9018 29.175 19.3418C28.8073 19.0582 28.1954 18.9136 27.7312 18.9766C26.8326 19.0984 25.9297 19.3318 25.085 19.6669C24.0487 20.078 23.2168 19.8402 22.3721 19.2144C21.208 18.3522 20.0325 17.5 18.8159 16.7166C17.2926 15.737 15.7182 15.78 14.3596 16.5147V16.5132ZM5.41732 43.755C5.74526 44.0243 6.00221 44.2649 6.28898 44.4639C7.82645 45.5281 8.03088 45.4837 9.09703 43.9555C10.3861 42.1094 11.6723 40.2605 12.9812 38.4287C14.4462 36.3778 15.1106 33.9774 16.005 31.7389C14.2844 31.0486 12.6632 30.3984 11.0973 29.7696C11.0675 30.3712 11.1044 31.1789 10.971 31.9552C10.7069 33.4919 10.6544 35.1733 9.96443 36.5067C8.67681 38.9973 6.99738 41.2816 5.4159 43.7536L5.41732 43.755ZM40.5932 3.54042C40.4285 3.4774 40.349 3.42155 40.2695 3.42155C37.3181 3.40293 34.3666 3.39434 31.4166 3.36856C30.8928 3.36426 30.8672 3.67505 30.8715 4.06747C30.8842 5.4968 30.9155 6.92613 30.88 8.35546C30.8644 9.02143 31.0844 9.22337 31.7431 9.21478C34.2218 9.1804 36.7019 9.20189 39.1806 9.20189C39.6406 9.20189 40.0991 9.20189 40.7962 9.20189C39.8564 8.09194 39.0855 7.18106 38.2863 6.23724C39.0699 5.32207 39.7982 4.47135 40.5932 3.54329V3.54042ZM11.8057 15.9934C10.9553 15.1054 9.19498 15.9189 8.80316 17.2036C8.23956 19.0511 7.67597 20.9043 6.97608 22.7018C6.40539 24.1712 7.32958 25.4286 8.46955 25.8354C9.72167 26.2822 11.0192 25.7552 11.482 24.4247C12.1464 22.5184 12.737 20.5821 13.2594 18.6315C13.3858 18.1574 13.1189 17.5774 13.0323 17.0446C12.9073 17.0417 12.781 17.0389 12.6561 17.036C12.2841 17.8294 11.9391 18.6372 11.526 19.4077C11.4039 19.6354 11.0916 19.76 10.8673 19.9305C10.7296 19.6483 10.4102 19.2989 10.484 19.0941C10.846 18.0887 11.3117 17.1219 11.8071 15.9934H11.8057ZM21.4763 11.8171C21.5033 10.077 19.98 8.54021 18.2012 8.51157C16.526 8.48436 14.9431 10.0454 14.9431 11.7268C14.9431 13.3968 16.4224 14.935 18.072 14.9794C19.8338 15.0266 21.4493 13.5257 21.4763 11.8171ZM28.3346 22.971C28.2366 22.9094 28.1387 22.8464 28.0393 22.7848C26.746 23.1644 25.4357 23.4952 24.1637 23.9363C22.6574 24.4591 21.5529 23.3692 20.2568 23.0068C19.9374 24.1311 19.6322 25.1995 19.3241 26.2837C20.0694 26.6245 20.7466 26.9095 21.4025 27.2389C22.5751 27.8304 23.8584 28.3217 23.9905 30.1563C24.3028 29.7324 24.4817 29.5104 24.6378 29.2741C25.6174 27.7918 26.6211 26.3252 27.5552 24.8142C27.9016 24.2542 28.0805 23.5868 28.3346 22.9696V22.971ZM17.2316 31.9437C16.4777 33.7912 15.7225 35.6459 14.8792 37.7112C16.3869 36.4666 17.3636 34.7981 19.3766 34.8797C19.0586 31.9752 19.202 32.4292 17.2316 31.9437ZM29.5597 1.48093C29.2077 1.26896 29.0004 1.04267 28.813 1.05843C28.6057 1.07561 28.4169 1.31479 28.221 1.45658C28.407 1.65995 28.5716 1.98792 28.7889 2.02946C28.9635 2.0624 29.2034 1.75018 29.5611 1.48093H29.5597Z" fill="#B61BAD"/>
<path d="M40.4058 43.4858C40.1516 43.7937 39.9515 44.0357 39.6534 44.3952C38.2862 43.2767 36.9688 42.1997 35.6514 41.1212C35.2397 40.7832 34.8479 40.4194 34.4191 40.1058C32.9456 39.0302 31.8113 39.0231 30.42 40.2146C28.6909 41.6955 26.9291 43.1607 25.3647 44.8091C24.0714 46.1711 22.6106 46.7526 20.8119 46.7154C20.2227 46.7025 19.6322 46.7154 19.043 46.7497C18.5802 46.777 18.2324 46.618 18.302 46.1368C18.3275 45.9549 18.7279 45.7358 18.9806 45.6971C19.6464 45.5925 20.3292 45.5109 21.0007 45.5424C22.5325 45.614 23.5972 44.7862 24.6321 43.8138C26.1412 42.3944 27.6659 40.9923 29.2176 39.6203C31.506 37.598 33.4353 37.6424 35.7309 39.6346C37.2244 40.9307 38.7831 42.1524 40.4072 43.4843L40.4058 43.4858Z" fill="#B61BAD"/>
</g>
<defs>
<clipPath id="clip0_1071_187">
<rect width="52" height="48" fill="white"/>
</clipPath>
</defs>
</svg>
