<svg viewBox="0 0 52 49" fill="none" xmlns="http://www.w3.org/2000/svg">
<g clip-path="url(#clip0_1071_160)">
<path d="M34.5594 30.0557C35.1708 30.616 35.7867 31.1808 36.3936 31.7381C38.4056 30.6729 39.5065 30.8003 41.1269 32.3599C44.3889 35.5 47.6343 38.6566 50.8736 41.8192C52.2381 43.151 52.3661 45.1406 51.2291 46.6687C49.5333 48.9459 47.4521 49.5961 45.4145 48.435C44.9356 48.1623 44.5229 47.7579 44.1223 47.3698C41.0486 44.3945 37.987 41.4072 34.9178 38.4274C33.5534 37.103 33.2808 36.0753 33.9449 34.5936C33.341 34.0333 32.7296 33.467 32.07 32.8543C27.6334 36.6251 22.5236 38.4199 16.6623 37.6558C11.5676 36.9921 7.40955 34.5831 4.11748 30.667C-1.7935 23.6406 -1.28147 12.6337 5.27859 5.90253C12.307 -1.30957 23.3278 -2.03916 31.3336 4.41037C38.368 10.0779 41.0652 21.0069 34.5594 30.0557ZM18.9544 36.5742C28.7252 36.5292 37.1075 28.8437 36.9463 18.6608C36.7822 8.34901 28.1529 1.26426 18.983 1.29722C9.22877 1.33317 0.992566 9.50708 1.25461 19.2031C1.53321 29.5329 9.78448 36.3075 18.9544 36.5757V36.5742ZM47.2894 47.8747C48.7773 47.7204 49.4746 46.7361 50.2185 45.8028C50.9806 44.8484 50.9369 43.623 50.0649 42.778C47.7984 40.5847 45.5259 38.3974 43.2579 36.2056C42.1344 35.121 41.0381 34.0078 39.8905 32.9486C39.0186 32.1441 38.0457 32.1097 37.3861 32.8093C36.722 33.5119 36.0789 34.234 35.4449 34.9622C34.6798 35.8416 34.7054 36.4843 35.5503 37.3023C38.8228 40.4768 42.0878 43.6604 45.3994 46.793C45.9114 47.2769 46.6539 47.5196 47.2909 47.8732L47.2894 47.8747ZM32.9615 31.9509C33.6151 32.5666 34.1934 33.1089 34.8048 33.6842C35.091 33.3711 35.3334 33.1059 35.4464 32.9816C34.8606 32.2565 34.338 31.6108 33.7507 30.8842C33.4223 31.3276 33.21 31.6153 32.9615 31.9494V31.9509Z" fill="#B61BAD"/>
<path d="M19.1139 33.9571C11.1036 33.993 4.01194 27.7517 3.84026 19.1494C3.6746 10.8796 10.5901 3.99706 18.7871 3.92365C27.4239 3.84725 34.1858 10.2414 34.3499 18.6804C34.5141 27.1869 27.6694 33.9301 19.1139 33.9571ZM19.0145 32.7151C26.7236 32.7765 33.0096 26.6716 33.0819 19.0535C33.1542 11.3889 26.9812 5.23603 19.1576 5.16712C12.1367 5.10419 5.29202 10.538 5.09323 18.7853C4.91252 26.354 11.3069 32.6522 19.0145 32.7151Z" fill="#B61BAD"/>
<path d="M18.9016 25.6498C14.611 25.4505 10.9696 23.4999 7.82508 20.5006C6.34319 19.0864 6.3447 19.034 7.75128 17.5763C12.971 12.1634 20.5431 10.5335 27.0564 14.7822C28.6528 15.8234 29.9645 17.2991 31.3696 18.616C31.5322 18.7688 31.5894 19.3126 31.4569 19.4534C28.1016 23.0355 24.1409 25.4445 18.9031 25.6483L18.9016 25.6498ZM22.162 14.0526C24.9451 16.4556 25.3216 20.0167 23.0249 22.5696C21.4045 24.3704 17.37 24.3119 15.3776 22.4482C14.111 21.2632 13.5433 19.798 13.7421 18.0751C13.9394 16.3658 14.8023 15.0369 16.2284 14.0421C12.9891 14.8316 10.3566 16.556 8.13832 18.965C15.1758 26.285 23.5189 25.8925 30.1271 18.9905C27.9164 16.6324 25.3381 14.8571 22.162 14.0511V14.0526ZM22.1695 16.0736C21.7027 16.9755 21.1334 17.7006 20.9557 18.5111C20.7298 19.5463 20.0205 20.3433 19.022 20.219C18.0176 20.0932 17.3097 19.1853 17.4814 18.2429C17.6576 17.2766 18.7781 16.6384 19.7795 16.8931C19.9934 16.947 20.3337 16.9231 20.4708 16.7882C20.8879 16.3792 21.2343 15.8968 21.5988 15.4564C20.787 14.177 18.4543 13.7874 17.0808 14.8242C14.8866 16.4796 14.2481 19.1104 15.742 20.9111C17.1576 22.616 19.9181 23.3067 22.0897 21.4744C23.5746 20.222 23.7177 17.8399 22.1695 16.0751V16.0736Z" fill="#B61BAD"/>
</g>
<defs>
<clipPath id="clip0_1071_160">
<rect width="52" height="49" fill="white"/>
</clipPath>
</defs>
</svg>
