<?xml version="1.0" encoding="UTF-8"?>
<svg id="Layer_2" data-name="Layer 2" xmlns="http://www.w3.org/2000/svg" viewBox="0 0 345.29 327.07">
  <g id="Layer_1-2" data-name="Layer 1">
    <g>
      <path d="m229.48,200.62c4.06,3.74,8.15,7.51,12.18,11.23,13.36-7.11,20.67-6.26,31.43,4.15,21.66,20.96,43.21,42.03,64.72,63.14,9.06,8.89,9.91,22.17,2.36,32.37-11.26,15.2-25.08,19.54-38.61,11.79-3.18-1.82-5.92-4.52-8.58-7.11-20.41-19.86-40.74-39.8-61.12-59.69-9.06-8.84-10.87-15.7-6.46-25.59-4.01-3.74-8.07-7.52-12.45-11.61-29.46,25.17-63.39,37.15-102.31,32.05-33.83-4.43-61.44-20.51-83.3-46.65C-11.91,157.8-8.51,84.33,35.05,39.4,81.72-8.74,154.9-13.61,208.06,29.44c46.71,37.83,64.62,110.78,21.42,171.18Zm-103.62,43.51c64.88-.3,120.54-51.6,119.47-119.57-1.09-68.83-58.39-116.12-119.28-115.9C61.28,8.9,6.59,63.46,8.33,128.18c1.85,68.95,56.64,114.17,117.53,115.96Zm188.15,75.43c9.88-1.03,14.51-7.6,19.45-13.83,5.06-6.37,4.77-14.55-1.02-20.19-15.05-14.64-30.14-29.24-45.2-43.87-7.46-7.24-14.74-14.67-22.36-21.74-5.79-5.37-12.25-5.6-16.63-.93-4.41,4.69-8.68,9.51-12.89,14.37-5.08,5.87-4.91,10.16.7,15.62,21.73,21.19,43.41,42.44,65.4,63.35,3.4,3.23,8.33,4.85,12.56,7.21Zm-95.14-106.29c4.34,4.11,8.18,7.73,12.24,11.57,1.9-2.09,3.51-3.86,4.26-4.69-3.89-4.84-7.36-9.15-11.26-14-2.18,2.96-3.59,4.88-5.24,7.11Z"/>
      <path d="m126.92,226.66c-53.19.24-100.28-41.42-101.42-98.84-1.1-55.2,44.82-101.14,99.25-101.63,57.35-.51,102.25,42.17,103.34,98.5,1.09,56.78-44.36,101.79-101.17,101.97Zm-.66-8.29c51.19.41,92.93-40.34,93.41-91.19.48-51.16-40.51-92.23-92.46-92.69-46.62-.42-92.07,35.85-93.39,90.9-1.2,50.52,41.26,92.56,92.44,92.98Z"/>
      <path d="m125.51,171.21c-28.49-1.33-52.67-14.35-73.55-34.37-9.84-9.44-9.83-9.79-.49-19.52,34.66-36.13,84.94-47.01,128.19-18.65,10.6,6.95,19.31,16.8,28.64,25.59,1.08,1.02,1.46,4.65.58,5.59-22.28,23.91-48.58,39.99-83.36,41.35Zm21.65-77.41c18.48,16.04,20.98,39.81,5.73,56.85-10.76,12.02-37.55,11.63-50.78-.81-8.41-7.91-12.18-17.69-10.86-29.19,1.31-11.41,7.04-20.28,16.51-26.92-21.51,5.27-38.99,16.78-53.72,32.86,46.73,48.86,102.13,46.24,146.01.17-14.68-15.74-31.8-27.59-52.89-32.97Zm.05,13.49c-3.1,6.02-6.88,10.86-8.06,16.27-1.5,6.91-6.21,12.23-12.84,11.4-6.67-.84-11.37-6.9-10.23-13.19,1.17-6.45,8.61-10.71,15.26-9.01,1.42.36,3.68.2,4.59-.7,2.77-2.73,5.07-5.95,7.49-8.89-5.39-8.54-20.88-11.14-30-4.22-14.57,11.05-18.81,28.61-8.89,40.63,9.4,11.38,27.73,15.99,42.15,3.76,9.86-8.36,10.81-24.26.53-36.04Z"/>
    </g>
  </g>
</svg>